<svg viewBox="0 0 1349 1349" version="1.1" xmlns="http://www.w3.org/2000/svg" xmlns:xlink="http://www.w3.org/1999/xlink" xml:space="preserve" xmlns:serif="http://www.serif.com/" style="fill-rule:evenodd;clip-rule:evenodd;stroke-linejoin:round;stroke-miterlimit:2;"><g><g><path d="M673.654,0l0,1348.17c-372.05,-0.217 -673.654,-301.95 -673.654,-674.087c0.004,-372.138 301.604,-673.871 673.654,-674.088Z" style="fill:#f6c215;fill-rule:nonzero;"/><path d="M1348.18,674.088c0,372.27 -301.775,674.087 -674.087,674.087l-0.434,0l0,-1348.17l0.434,0c372.312,0 674.087,301.817 674.087,674.088Z" style="fill:#d2a32a;fill-rule:nonzero;"/></g><g><path d="M920.617,772.158c2.279,4.863 3.212,9.904 2.112,15.45c-2.012,9.509 2.179,17.613 5.092,25.996c0.904,2.563 3.046,4.088 4.866,5.854c3.092,3.005 3.93,7.067 2.238,10.921c-2.463,5.467 -2.238,10.859 -1.825,16.625c0.525,7.996 0.079,16.029 1.729,24.008c1.071,4.98 -0.579,10.105 -2.958,14.4c-2.534,4.513 -5.521,8.842 -8.829,12.684c-3.088,3.541 -6.809,6.291 -11.359,7.816c-8.508,2.817 -16.05,7.555 -21.329,15.955c-3.804,6.141 -10.062,9.445 -14.454,14.983c-0.958,1.279 -2.313,2.154 -3.388,3.342c-2.316,2.637 -2.816,5.808 -1.65,9.283c0.438,1.237 1.175,2.354 1.575,3.629c3.788,10.896 7.996,21.729 4.771,33.917c-0.391,1.55 -0.441,3.366 -0.262,4.979c0.975,7.304 -2.863,11.283 -7.9,14.212c-2.384,1.38 -5.063,2.1 -7.646,3.017c-4.079,1.454 -7.75,3.767 -11.046,6.704c-2.417,2.142 -2.679,3.329 -1.079,7.609c1.025,2.662 1.025,5.279 0.483,7.841c-1.471,7.196 -3.162,14.317 -4.812,21.467c-0.763,3.387 -2.438,6.192 -5.188,7.896c-4.746,2.929 -7.391,7.729 -9.833,12.796c-1.117,2.379 -2.067,4.854 -3.3,7.166c-2.204,4.004 -4.117,8.284 -6.858,11.788c-6.459,8.383 -13.275,16.412 -20.009,24.504c-3.5,4.233 -7.829,7.308 -12.133,10.421c-2.05,1.425 -4.154,2.741 -6.629,2.954c-3.917,0.362 -7.904,0.4 -10.809,4.05c-5.758,0.917 -11.212,5.029 -17.404,1.837c-2.491,-1.287 -5.216,-1.225 -7.983,-0.575c-1.725,0.4 -3.638,0.525 -5.325,0.08c-3.521,-0.905 -6.517,-0.038 -9.346,2.312c-0.942,0.8 -2.037,1.704 -3.162,1.829c-6.596,0.8 -13.013,2.163 -19.267,4.879c-1.454,0.663 -3.563,-0.012 -5.229,-0.637c-4.292,-1.442 -7.067,-6.342 -11.934,-6.554c-0.45,-0.021 -1.129,-1.613 -1.137,-2.438c-0.079,-3.879 -1.421,-7.121 -3.171,-10.312c-2.008,-3.65 -2.558,-7.204 -0.121,-11.246c2.588,-4.304 1.871,-9.171 -0.537,-13.325c-5.254,-9.129 -8.763,-19.054 -12.071,-29.133c-2.05,-6.38 -5.192,-11.984 -9.696,-16.742c-6.042,-6.392 -9.975,-13.95 -11.046,-23.521c-0.85,-7.242 -3.437,-14.25 -3.437,-21.721c-0,-0.975 -0.263,-2.008 -0.654,-2.912c-2.734,-6.254 -2.971,-12.963 -2.734,-19.692c0.254,-6.942 -1.304,-13.037 -4.891,-18.887c-4.204,-6.946 -7.684,-14.363 -10.496,-22.196c-2.542,-7.167 -6.167,-13.838 -10.508,-19.892c-3.134,-4.429 -4.596,-9.254 -4.696,-14.846c-0.096,-9.746 -0.4,-19.391 3.441,-28.625c1.35,-3.237 1.592,-7.116 2.417,-10.671c2.1,-9.208 4.563,-18.141 11.833,-24.208c2.2,-1.875 3.363,-4.712 3.892,-7.729c0.492,-2.975 0.954,-5.967 1.392,-8.942c0.508,-3.466 -0.034,-6.583 -1.921,-9.508c-3.783,-6.004 -5.767,-12.458 -3.746,-19.904c0.45,-1.542 0.563,-3.525 0.038,-4.942c-2.138,-5.892 -2.592,-12.521 -5.905,-17.875c-2.629,-4.242 -4.279,-8.821 -5.095,-13.837c-1.15,-7.505 -4.692,-13.363 -9.159,-19.155c-6.279,-8.145 -13.979,-14.72 -19.833,-23.254c-2.604,-3.791 -4.521,-7.821 -6.208,-12.137c-1.413,-3.725 -1.542,-6.967 0.75,-10.396c2.804,-4.192 3.508,-9.458 3.691,-14.313c0.325,-7.116 2.063,-13.808 3.388,-20.616c0.316,-1.65 0.604,-3.275 0.787,-4.942c0.579,-4.704 -1.037,-8.604 -3.912,-11.833c-5.434,-6.046 -11.204,-10.738 -19.792,-8.371c-3.15,0.812 -6.454,1.325 -9.667,2.179c-7.133,1.863 -11.7,-0.525 -14.287,-8.221c-1.429,-4.129 -2.983,-8.008 -5.679,-11.296c-2.146,-2.591 -4.679,-4.404 -7.821,-4.516c-11.404,-0.313 -22.888,-0.725 -33.375,5.829c-0.517,0.325 -1.054,0.738 -1.646,0.813c-10.004,1.512 -18.367,7.97 -27.808,11.308c-2.667,0.925 -5.167,1.575 -7.884,0.525c-1.425,-0.525 -2.887,-0.975 -4.316,-1.438c-14.496,-4.883 -28.713,-3.104 -42.25,3.613c-6.338,3.154 -11.784,3.292 -18.096,0.425c-6.796,-3.063 -13.125,-6.584 -18.167,-12.634c-2.441,-2.979 -5.254,-5.541 -8.604,-7.245c-1.337,-0.7 -2.654,-1.675 -3.692,-2.825c-4.516,-5.155 -9.725,-8.946 -15.987,-10.946c-1.063,-0.359 -2.488,-1.025 -2.954,-2.038c-2.079,-4.766 -6.204,-8.454 -6.471,-14.137c-0.363,-6.246 -3.475,-10.946 -7.492,-14.388c-3.675,-3.137 -5.729,-7.804 -9.179,-10.846c-3.425,-2.991 -6.129,-6.258 -7.971,-10.633c-0.712,-1.6 -2.533,-1.612 -3.979,-1.979l-0.362,-0.4c-0.996,-0.767 -2,-1.475 -2.95,-2.317c-7.109,-5.929 -7.205,-6.154 -7.267,-15.712c-0,-3.617 1.55,-7.179 -0.104,-10.859c-1.509,-3.4 -4.238,-5.604 -5.892,-8.379c-0.346,-1.437 0.042,-2.329 0.754,-3.016c5.054,-4.738 8.009,-10.584 8.809,-18.03c0.345,-3.6 1.924,-7.054 2.95,-10.529c2.55,-8.583 3.354,-17.037 -0.85,-25.283c-0.95,-1.887 -1.113,-3.817 -0.346,-5.779c2.008,-5.204 1.3,-9.884 -2.35,-13.813c-5.567,-6.037 -4.684,-12.833 -1.325,-19.316c2.687,-5.238 5.266,-10.484 7.466,-16.013c1.575,-3.979 3.388,-8.029 5.955,-11.208c4.741,-5.967 7.854,-12.563 9.479,-20.229c1.016,-5.08 3.391,-9.317 7.621,-11.946c3.641,-2.275 5.466,-6.079 6.887,-10.234c1.946,-5.366 5.192,-8.87 10.5,-9.845c5.192,-0.938 9.6,-3.717 13.325,-7.917c1.438,-1.613 3.379,-2.742 5.092,-4.092c3.75,-3.012 6.404,-6.979 8.558,-11.521c1.438,-3.104 2.129,-6.179 1.292,-9.645c-1.754,-7.642 -0.179,-14.588 3.712,-21.055c1.304,-2.2 2.304,-4.687 3.254,-7.116c2.725,-7.129 7.117,-12.325 13.471,-15.538c0.8,-0.387 1.617,-0.875 2.454,-1.237c8.63,-3.567 13.371,-10.938 16.188,-20.284c0.954,-3.187 2.042,-6.329 3.254,-9.383c1.6,-4.079 6.225,-6.404 9.308,-1.762c3.363,5.104 8.038,6.491 13.53,6.179c5.383,-0.279 10.75,-0.013 16.104,1.487c4.608,1.263 8.991,0.075 12.296,-4.204c1.787,-2.342 3.716,-4.492 6.491,-5.267c5.004,-1.4 9.413,-4.129 13.713,-7.304c4.312,-3.179 9.196,-4.916 14.487,-4.916c3.938,-0 7.667,-1.117 11.471,-2.275c4.892,-1.525 10.008,-2.188 15.033,-3.038c2.779,-0.462 5.463,0.4 7.921,1.588c3.017,1.487 6.079,1.454 8.704,-0.263c6.496,-4.217 13.455,-2.8 20.167,-2.342c5.558,0.363 10.75,0.513 15.667,-2.787c1.016,-0.7 2.187,-1.113 3.346,-1.575c3.395,-1.313 6.616,-0.975 9.079,2.154c1.916,2.538 3.729,3.842 6.971,2.65c2.229,-0.8 3.737,2.217 2.45,4.592c-0.725,1.4 -1.725,2.691 -2.675,3.966c-3.042,4.355 -3.042,4.73 -0.138,9.596c4.704,7.809 4.213,12.859 -1.946,19.3c-1.75,1.838 -3.687,3.429 -5.375,5.359c-1.091,1.2 -1.579,2.9 -0.537,4.554c0.75,1.15 2.012,1.987 3.112,1.437c3.179,-1.579 5.109,-0.85 6.229,2.929c0.813,2.725 2.938,4.067 5.23,5.217c5.441,2.829 10.633,5.667 17.204,4.213c3.987,-0.896 8.266,1.137 12.208,2.962c2.217,1.017 4.329,2.35 6.567,3.267c3.358,1.379 5.541,3.775 6.716,7.554c2.013,6.483 6.192,9.3 12.325,9.733c7.709,0.5 14.538,3.967 20.638,9.209c0.462,0.425 0.904,0.883 1.392,1.275c2.562,2.129 5.291,3.291 8.395,1.516c3.68,-2.129 6.38,-5.166 6.413,-10.096c0.042,-2.662 -0.438,-5.316 -0.617,-7.983c-0.312,-4.729 1.425,-8.383 4.688,-11.358c9.658,-8.821 21.816,-8.879 31.162,0.387c3.846,3.817 8.534,4.792 13.125,6.154c3.454,1.025 7.092,1.288 9.896,4.317c1.363,1.463 3.288,1.375 5.125,1.45c7.242,0.263 14.275,1.838 21.113,4.692c4.52,1.9 9.237,3.012 13.812,4.612c2.188,0.738 4.179,0.488 6.092,-0.712c1.341,-0.788 2.654,-1.604 3.883,-2.604c6.254,-5.067 13.4,-5.492 20.742,-4.73c1.716,0.163 3.721,0.588 5.054,1.688c5.329,4.304 11.083,4.554 17.254,3.629c5.054,-0.8 5.713,-0.262 7.492,4.642c0.779,2.175 1.229,4.504 2.079,6.629c4.379,10.433 3.612,20.767 -0.054,31.237c-1.3,3.655 -2.721,5.68 -6.567,4.817c-1.912,-0.475 -2.987,1.117 -2.375,2.817c5.458,15.6 10.692,31.35 19.942,44.808c1.616,2.313 2.362,4.467 1.754,7.383c-1.167,5.555 0.608,9.742 4.95,12.796c9.029,6.329 11.933,16.3 12.696,27.396c0.366,5.679 -0.125,11.383 1.254,16.988c0.812,3.366 1.875,6.254 4.917,7.954c7.916,4.429 11.658,12.112 13.508,21.421c1.025,5.191 1.471,10.645 4.517,15.108c1.379,1.992 2.541,2.017 4.204,-0.05c0.354,-0.487 0.529,-1.225 0.941,-1.7c0.942,-1.05 2.317,-0.575 2.855,0.787c0.587,1.613 1.112,3.138 0.491,4.855c-1.129,3.225 0.446,5.066 2.738,6.554c1.508,1.05 2.987,2.225 4.637,3.029c3.129,1.512 5.454,3.929 7.742,6.692c4.5,5.391 9.346,10.42 14.021,15.637c1.254,1.4 2.604,2.767 3.716,4.329c1.705,2.492 2.78,5.384 1.388,8.421c-1.388,3.013 -0.413,5.029 1.479,7.117c1.233,1.416 2.363,3.037 3.379,4.666c3.734,5.68 8.779,7.18 14.413,5.067c4.916,-1.887 9.604,-3.687 14.896,-2.254c1.779,0.517 3.466,-0.725 5.041,-1.738c2.642,-1.725 5.409,-2.737 8.459,-3.204c7.4,-1.225 14.787,-2.866 22.2,-4.262c2.729,-0.525 5.195,-1.704 7.558,-3.229c0.987,-0.663 2.142,-1.138 3.317,-1.388c2.362,-0.487 4.95,1.688 5.166,4.317c0.234,2.666 0.196,5.354 0.359,8.008c0.229,4.017 1.041,8.079 -2.225,11.233c-0.625,0.575 -0.892,1.83 -0.988,2.78c-0.658,7.695 -4.867,13.525 -8.092,19.954c-3.975,7.854 -7.333,16.1 -10.854,24.246c-0.941,2.087 -1.212,4.75 -2.541,6.354c-8.505,10.383 -13.871,23.596 -24.105,32.337c-1.65,1.4 -2.854,3.388 -4.204,5.229c-2.454,3.517 -5.504,6.438 -9.141,7.967c-9.671,4.042 -16.25,12.463 -23.534,19.854c-4.208,4.254 -7.646,9.421 -11.429,14.188c-5.608,6.979 -11.237,13.925 -17.621,20.1c-2.116,2.025 -3.491,4.466 -4.562,7.321c-2.467,6.504 -5.096,12.862 -8.588,18.791c-2.691,4.542 -3.758,9.846 -5.016,15.013c-0.75,2.979 0.412,5.229 3.004,6.429l-0.075,-0.067Zm-82.167,-56.462c-0.4,4.167 0.312,4.967 4.742,5.842c1.441,0.291 2.816,0.887 4.204,1.4c1.754,0.612 3.529,0.775 5.316,0.35c1.217,-0.3 2.775,-0.93 2.521,-2.255c-0.779,-4.379 2.025,-6.691 3.871,-9.583c1.708,-2.787 2.95,-5.829 3.625,-9.067c1.292,-6.145 -2.329,-10.783 -7.779,-9.962c-2.95,0.479 -5.867,1.167 -8.758,1.992c-3.8,1.129 -6.217,3.829 -6.617,8.395c-0.358,4.292 -0.738,8.571 -1.125,12.888Zm24.858,128.312c2.238,6.355 2.592,14.163 6.179,20.855c0.121,0.225 0.609,0.479 0.75,0.362c0.4,-0.287 1.117,-0.85 1.067,-1.162c-1.379,-7.459 -3.075,-14.988 -1.204,-22.567c1.038,-4.117 1.038,-7.654 -0.713,-11.483c-0.887,-2 -0.975,-4.492 -1.304,-6.78c-0.4,-2.662 -0.833,-5.279 -2.316,-7.466c-0.446,-0.688 -1.43,-1.363 -2.138,-1.3c-1.067,0.112 -1.175,1.375 -0.804,2.25c2.892,6.966 2.233,14.275 1.646,21.566c-0.129,1.6 -0.65,3.217 -1.163,5.725Zm-52.958,-102.454c1.367,5.604 -1.85,11.046 0.217,16.579c1.15,3.125 1.425,6.442 1.858,9.734c0.379,2.591 1.167,5.154 2.042,7.579c1.066,2.929 3.1,4.867 5.708,6.008c0.458,0.238 1.233,0.188 1.65,-0.112c0.812,-0.7 0.675,-1.8 0.229,-2.625c-0.642,-1.129 -1.304,-2.317 -2.192,-3.138c-3.291,-2.904 -4.916,-6.341 -4.304,-11.258c0.329,-2.529 -0.121,-5.321 -0.737,-7.846c-1.267,-4.971 -1.404,-10.342 -4.471,-14.921Zm-170.875,-213.646c0.125,3.342 0.354,6.946 3.279,8.596c2.629,1.463 5.079,-0.7 7.371,-2.154c1.05,-0.687 1.875,-1.837 1.425,-3.212c-0.263,-0.788 -1.125,-1.642 -1.837,-1.83c-2.851,-0.787 -5.742,-1.287 -8.13,-3.525c-0.904,-0.8 -2.154,0.538 -2.108,2.125Zm207.554,-206.537c2.471,8.571 2.471,8.571 5.683,10.933c-0.591,-3.816 -1.55,-7.196 -5.683,-10.933Z" style="fill:#fff;"/><path d="M961.975,971.262c-0.275,-4.562 1.129,-8.483 3.167,-12.32c2.641,-4.909 4.929,-10.021 7.429,-14.963c1.875,-3.679 2.504,-7.546 1.062,-11.575c-2.087,-5.992 -2.266,-12.433 -3.337,-18.65c-0.625,-3.517 -0.229,-6.616 1.2,-9.696c0.941,-2.1 1.887,-4.204 2.6,-6.391c0.937,-2.692 2.4,-4.48 4.866,-5.467c3.125,-1.238 6.03,-3.617 9.209,-4.042c8.079,-1.2 12.658,-7.846 18.237,-13.062c3.267,-3.038 4.554,-6.967 5.904,-11.034c0.667,-2.004 1.434,-3.429 3.346,-4.316c3.892,-1.838 6.088,-5.304 6.367,-10.109c-0,-0.641 0.121,-1.337 0.25,-1.979c1.175,-4.45 4.517,-5.679 7.567,-2.737c3.254,3.166 5.312,7.116 6.254,11.887c1.512,7.867 2.191,15.9 4.746,23.521c0.612,1.913 0.4,3.992 -0.175,5.913c-0.542,1.679 -1.355,3.391 -3.092,3.041c-2.95,-0.587 -3.817,0.538 -3.454,3.692c0.229,1.979 0.362,4.104 -0.088,5.983c-4.058,15.713 -6.791,31.8 -11.429,47.4c-4.483,14.913 -9.158,29.8 -11.862,45.313c-0.488,2.925 -1.7,5.704 -2.675,8.516c-1.917,5.655 -5.059,9.609 -10.9,10.584c-2.871,0.504 -5.642,2.291 -8.371,3.679c-3.263,1.662 -6.267,1.2 -9.433,-0.729c-8.267,-5.017 -13.459,-12.184 -13.496,-23.092c-0,-3.767 -0.675,-7.304 -2.329,-10.608c-1.388,-2.717 -1.613,-5.704 -1.563,-8.759Z" style="fill:#fff;"/></g></g></svg>