<svg viewBox="0 0 1349 1349" version="1.1" xmlns="http://www.w3.org/2000/svg" xmlns:xlink="http://www.w3.org/1999/xlink" xml:space="preserve" xmlns:serif="http://www.serif.com/" style="fill-rule:evenodd;clip-rule:evenodd;stroke-linejoin:round;stroke-miterlimit:2;"><g><g><path d="M673.654,0l0,1348.18c-372.05,-0.221 -673.654,-301.954 -673.654,-674.091c0.004,-372.18 301.604,-673.863 673.654,-674.088Z" style="fill:#8e84b7;fill-rule:nonzero;"/><path d="M1348.18,674.092c0,372.275 -301.775,674.091 -674.087,674.091l-0.434,0l0,-1348.18l0.434,0c372.312,0 674.087,301.779 674.087,674.092Z" style="fill:#736c9e;fill-rule:nonzero;"/></g><g><path d="M496.892,498.625c-0.513,-1.079 -1.305,-1.887 -2.23,-2.558c-1.662,-1.267 -3.454,-1.755 -5.158,-0.329c-2.437,2.016 -5.012,0.912 -7.579,0.637c-1.008,-0.083 -1.654,-1.083 -1.625,-2.171c0.037,-3.133 -0.571,-6.075 -1.508,-9.037c-0.275,-0.85 -0.159,-2.071 0.166,-3.005c0.9,-2.72 1.217,-5.612 2.475,-8.25c1.509,-3.225 1.875,-6.516 -0.183,-9.741c-0.379,-0.521 -0.65,-1.184 -0.742,-1.838c-0.441,-3.191 -1.791,-5.833 -3.579,-8.225c-1.142,-1.516 -1.333,-3.012 -0.446,-4.725c0.413,-0.733 0.738,-1.546 0.854,-2.391c0.409,-2.2 1.659,-3.596 3.263,-4.75c0.65,-0.492 1.3,-0.913 1.946,-1.4c3.941,-3.134 4.841,-5.692 3.737,-11.071c-0.171,-0.817 -0.4,-1.638 -0.608,-2.458c-0.283,-1.038 -0.217,-2.034 0.112,-3.034c2.134,0.233 3.388,1.675 3.784,3.888c0.691,3.495 1.304,7.058 0.612,10.691c-0.316,1.671 -0.575,3.384 -0.904,5.054c-0.271,1.367 -0.317,2.709 0.221,4.034c0.683,1.65 0.762,3.229 0.108,4.975c-0.391,1.116 0.163,2.071 1.063,2.521c1.254,0.633 2.596,1.129 3.916,1.52c1.159,0.363 2.438,0.575 3.617,0.85c2.067,0.455 4.308,0.492 6.05,3.925c0.167,-3.333 -0.517,-4.716 -2.154,-5.35c-2.392,-0.912 -4.363,-2.629 -6.217,-4.362c-2.154,-2.013 -2.729,-4.908 -2.846,-7.867c0,-0.425 0.442,-0.979 0.763,-1.196c0.375,-0.162 0.979,-0.195 1.3,0.046c0.621,0.492 1.137,1.15 1.596,1.834c1.875,2.995 2.387,1.979 4.516,0.691c0.53,-0.329 1.055,-0.754 1.505,-1.183c0.933,-0.888 0.975,-2.183 -0.084,-3.004c-1.096,-0.821 -2.121,-1.479 -1.629,-3.213c0.242,-0.875 -0.362,-1.058 -0.979,-1.379c-1.783,-0.921 -2.071,-1.754 -1.171,-3.358c0.4,-0.763 0.854,-1.459 1.367,-2.084c1.8,-2.045 4.325,-1.937 5.35,0.663c0.762,1.983 1.696,2.558 3.404,2.517c2.608,-0.071 4.762,1.033 6.717,2.925c2.37,2.216 4.804,4.237 6.591,7.166c1.596,2.642 3.859,3.846 6.788,2.896c0.9,-0.258 1.829,-0.304 2.733,-0.216c1.25,0.125 2.196,1.662 1.875,3.041c-0.533,2.142 -1.104,4.3 -2.983,5.613c-1.467,1.016 -1.984,2.487 -1.946,4.375c0.087,2.55 0.046,5.158 -0,7.729c-0,1.096 0.317,1.975 0.854,2.837c0.604,0.967 0.946,2.155 1.388,3.242c0.487,1.15 -0.621,3.233 1.012,3.479c1.175,0.179 1.221,-2.041 2.233,-2.929c1.875,-1.708 2.038,-4.158 1.671,-6.629c-0.241,-2.025 -0.571,-4.121 -1.512,-5.896c-1.504,-2.837 -1.254,-5.604 -0.159,-8.408c0.292,-0.784 0.646,-1.571 0.9,-2.375c0.605,-2.279 0.238,-4.229 -1.616,-5.4c-2.863,-1.788 -4.946,-4.009 -5.754,-7.654c-0.242,-1.013 -1.188,-1.546 -2.063,-1.938c-0.862,-0.392 -1.762,-0.6 -2.617,-0.929c-1.583,-0.633 -2.595,-1.892 -3.016,-3.683c-0.434,-1.992 -0.809,-4.009 -0.367,-6.092c0.5,-2.317 0.138,-4.338 -1.187,-6.317c-2.105,-3.212 -0.917,-6.558 0.208,-9.775c0.329,-0.987 1.346,-1.316 2.254,-1.671c2.917,-1.22 6.021,-1.654 9.113,-1.458c2.516,0.146 4.883,-0.229 7.275,-0.954c1.975,-0.583 3.825,-1.379 5.912,-1.121c0.967,0.125 1.746,-0.492 2.596,-0.946c1.104,-0.604 2.242,-1.096 3.425,-1.562c2.154,-0.875 3.221,-2.409 3.246,-4.871c-0,-1.404 -0.321,-2.825 -1.584,-3.509c-1.641,-0.804 -2.77,-2.037 -3.658,-3.758c-0.45,-0.783 -1.467,-1.183 -2.2,-1.808c-0.858,-0.754 -0.812,-2.179 0.233,-2.404c1.596,-0.342 1.763,-1.321 2.017,-2.813c0.396,-2.267 1.204,-2.496 3.333,-1.767c1.65,0.592 2.267,0.442 3.088,-1.045c1.012,-1.913 2.229,-3.817 0.646,-6.134c-0.329,-0.4 0.116,-0.941 0.571,-1.17c0.283,-0.142 0.616,-0.317 0.887,-0.263c2.692,0.604 4.317,-1 5.821,-3.162c0.85,-1.2 1.946,-2.209 2.937,-3.292c0.325,-0.367 0.605,-0.971 1.025,-1.038c4.384,-0.875 7.225,-5.775 11.988,-5.683c3.546,-1.646 7.371,-2.433 10.75,-4.517c1.096,-0.662 1.133,-1.437 0.112,-2.329c-0.208,-0.212 -0.562,-0.262 -0.804,-0.496c-0.904,-0.891 -0.779,-2.054 0.313,-2.304c3.596,-0.817 7.046,-2.396 10.783,-2.196c0.788,0.025 1.504,-0.191 2.292,-0.362c1.004,-0.275 1.004,-0.929 0.558,-1.879c-0.475,-1.005 0.05,-1.663 0.867,-1.959c1.662,-0.575 3.383,-0.246 5.046,0.079c0.854,0.205 1.204,1.813 0.558,2.559c-0.521,0.596 -1.204,1.025 -1.742,1.621c-1.058,1.183 -0.762,2.733 0.538,3.325c1.946,0.85 3.937,0.466 5.883,0.037c0.658,-0.171 0.942,-0.787 1.342,-1.308c1.116,-1.45 2.208,-2.879 3.462,-4.1c1.659,-1.621 2.846,-1.592 4.6,-0.167c0.613,0.508 1.138,1.171 1.759,1.679c0.45,0.413 1.012,0.95 1.545,0.234c0.475,-0.721 0.734,-1.663 0.205,-2.405c-0.488,-0.65 -1.23,-1.012 -1.83,-1.562c-0.804,-0.763 -1.641,-1.521 -2.108,-2.663c-0.504,-1.149 -0.046,-2.183 1.046,-2.141c1.062,0.008 2.158,0.162 3.212,0.162c1.23,-0.062 2.484,-0.091 3.717,-0.408c2.833,-0.758 4.538,-3.687 3.4,-6.637c-0.925,-2.405 -0.442,-4.255 0.283,-6.388c0.85,-2.437 1.83,-4.717 3.18,-6.854c1.829,-2.767 3.695,-5.508 5.291,-8.45c1.871,-3.354 4.875,-4.6 7.896,-5.804c1.554,-0.654 3.133,0.216 4.279,1.433c1.459,1.604 2.925,2.929 5.125,3.017c1.046,0.079 1.254,1.321 1.667,2.271c0.858,2.091 0.233,3.529 -1.271,4.87c-1.304,1.192 -2.483,2.571 -3.621,3.984c-0.571,0.746 -1.304,1.462 -1.216,2.646c0.291,0.079 0.608,0.291 0.804,0.158c3.716,-2.475 7.208,-0.596 10.587,0.816c3.134,1.321 3.896,4.021 1.996,6.976c-1.546,2.375 -2.642,5.004 -4.121,7.42c2.654,1.388 5.217,0.713 6.675,-1.791c0.329,-0.559 0.584,-1.217 0.854,-1.842c1.23,-2.779 1.23,-2.754 4.08,-2.508c0.887,0.091 1.833,0.045 2.716,-0.159c1.234,-0.296 2.404,-0.425 3.584,0.254c0.904,0.463 1.791,0.35 2.737,0.146c3.417,-0.821 6.421,-0.158 8.788,2.959c0.366,0.454 1.1,0.616 1.662,0.887l0.046,0.083c0.242,1.38 0.692,2.688 1.671,3.65c1.462,1.459 2.104,3.25 2.316,5.384c0.163,1.546 0.775,2.241 2.159,0.966c0.516,-0.5 1.171,0 1.504,0.621c0.321,0.596 0.558,1.242 0.696,1.904c0.191,1.159 0.225,2.438 0.962,3.375c1.675,2.1 1.475,4.459 0.688,6.8c-0.609,1.838 -0.809,3.467 -0.113,5.442c0.692,1.958 0.113,4.083 -0.658,6.013c-1.254,3.175 -3.008,5.987 -5.329,8.341c-1.459,1.517 -3.204,2.629 -4.304,4.592c-0.438,0.783 -1.388,0.742 -1.996,1.171c-3.554,2.483 -7.092,4.95 -8.838,9.483c-0.6,1.663 -1.662,2.896 -3.004,3.838c-2.033,1.391 -3.458,3.37 -4.408,5.816c-0.317,0.779 -0.721,1.504 -1.092,2.279c-0.767,1.675 -1.95,2.692 -3.658,2.646c-2.325,-0.062 -3.746,1.138 -4.6,3.463c-0.525,1.441 -1.267,2.854 -2.646,3.433c-1.75,0.779 -2.525,2.417 -3.129,4.204c-0.746,2.034 -0.859,3.2 -0.129,2.996c1.133,-0.329 1.133,-1.45 1.345,-2.437c0.317,-1.55 1.217,-2.4 2.6,-2.346c3.838,0.133 7.284,-1.104 10.625,-3.075c1.267,-0.729 2.6,-1.096 3.413,-2.471c0.246,-0.379 0.737,-0.767 1.104,-0.767c0.775,-0.046 1.542,0.334 2.233,-0.266c1.717,-1.455 3.38,-2.896 4.805,-4.9c-1.38,0.466 -2.721,0.987 -4.113,1.408c-1.058,0.333 -1.875,-0.271 -2.108,-1.383c-0.534,-2.271 0.7,-5.605 2.475,-6.684c0.866,-0.537 1.783,-0.596 2.687,-0.296c1.221,0.421 2.354,0.367 3.621,-0.025c1.879,-0.591 1.996,-0.366 1.946,1.884c-0.067,2.991 1.1,4.562 3.558,4.896c2.517,0.308 3.563,-0.571 4.229,-3.488c0.117,-0.625 0,-1.342 0.567,-1.833c2.413,3.033 3.292,5.925 2.971,9.712c-0.121,1.159 -0.558,2.379 0.254,3.454c0.158,0.23 0.517,0.413 0.763,0.396c0.25,-0.046 0.441,-0.329 0.654,-0.591c0.087,-0.071 0.041,-0.296 0.041,-0.488c0.046,-3.612 0.421,-4.292 3.417,-4.387c2.083,-0.059 3.95,-0.409 5.692,-1.613c1.596,-1.062 3.221,-1.062 4.933,-0.492c1.346,0.442 2.675,0.855 4.021,1.255c2.242,0.679 4.471,1.295 6.842,1.241c1.062,-0.008 2.12,0.229 3.17,0.484c0.817,0.175 1.184,1.183 0.742,2.004c-0.275,0.616 -0.779,1.096 -1.017,1.721c-0.695,1.808 -0.375,3.379 1.096,4.529c0.85,0.712 1.834,1.287 2.846,1.683c5.913,2.317 11.979,2.804 18.15,1.608c0.617,-0.112 1.188,-0.383 1.754,-0.608c1.879,-0.829 2.392,-1.837 2.171,-3.954c-0.05,-0.533 -0.221,-1.017 -0.333,-1.504c-0.584,-2.6 -0.334,-5.1 0.366,-7.634c0.192,-0.82 0.238,-2.212 0.975,-2.112c1.709,0.275 2.155,-2.171 3.671,-1.838c1.821,0.396 3.979,0.225 5.192,1.838c2.333,2.996 5.7,3.258 8.5,4.9c0.783,0.433 1.483,0.254 2.246,0.033c3.575,-0.921 6.675,-0.079 9.041,3.288c1.538,2.171 3.18,4.216 4.755,6.346c0.862,1.125 1.016,2.375 0.77,3.85c-0.57,3.387 -0.729,6.716 0.317,10.145c0.833,2.509 0.296,5.105 -1.412,7.205c-0.442,0.512 -0.934,0.95 -1.342,1.445c-1.583,2.055 -1.875,3.967 -0.279,6.038c1.337,1.775 1.95,3.812 2.716,5.85c1.059,2.892 2.78,5.362 4.725,7.604c0.95,1.063 2.159,1.2 3.292,1.646c0.946,0.387 0.808,2.692 2.329,1.821c1.009,-0.567 0.946,-2.088 1.467,-3.104c1.512,-2.863 2.346,-5.85 2.517,-9.255c0.125,-3.287 1.662,-6.216 2.979,-9.129c0.233,-0.587 1.258,-0.475 1.5,0.196c0.812,2.425 1.987,4.658 3.296,6.788c1.133,1.912 2.766,2.62 4.762,2.483c1.125,-0.067 2.154,-0.263 2.8,-1.413c1.754,-3.179 4.192,-3.179 6.85,-1.8c1.617,0.842 3.117,1.342 4.833,0.363c1.188,-0.671 2.446,-0.363 3.655,-0.338c1.391,0.021 2.812,0.263 4.158,-0.07c1.958,-0.442 3.496,-0.7 4.633,1.812c0.617,1.446 1.959,0.296 2.938,0.054c1.583,-0.35 1.833,-0.679 1.458,-2.437c-0.9,-3.775 -0.646,-7.454 0.696,-10.984c-0.317,-0.254 -0.571,-0.562 -0.85,-0.575c-1.138,-0.145 -2.692,0.575 -3.1,-1.304c-0.446,-2.121 1.308,-4.604 3.221,-4.829c1.216,-0.171 2.471,-0.058 3.654,-0.271c1.996,-0.283 2.525,-1.162 2.367,-3.512c-0.046,-0.534 -0.242,-1.034 -0.242,-1.513c0.037,-1.058 1.004,-1.946 1.95,-1.712c0.442,0.121 0.933,0.191 1.296,0.496c2.487,2.108 5.412,2.233 8.396,2.337c0.766,0.021 1.537,0 2.316,0.021c5.9,0.312 11.55,1.758 16.85,4.775c2.488,1.437 4.925,2.437 7.925,2.05c3.213,-0.425 6.434,0.408 9.371,2.246c2.221,1.362 3.313,3.471 3.783,6.125c0.267,1.762 -0.429,2.625 -2.291,2.904c-0.442,0.079 -0.938,0.021 -1.334,0.204c-0.454,0.158 -0.741,0.638 -0.645,1.171c0.025,0.317 0.316,0.608 0.512,0.775c0.25,0.196 0.579,0.329 0.854,0.329c2.209,-0.033 3.871,1.1 5.304,2.779c1.296,1.596 2.8,2.659 4.875,2.234c1.18,-0.246 2.08,0.466 2.846,1.412c0.538,0.613 1.071,1.254 1.584,1.829c1.437,1.525 1.879,3.134 0.537,5.013c-0.492,0.646 -0.246,1.237 0.317,1.708c1.3,1.021 2.687,1.617 4.312,0.908c3.704,-1.558 7.571,-1.512 11.4,-1.75c2.925,-0.175 5.863,-0.441 8.75,-0.866c2.979,-0.434 5.859,-0 8.796,0.375c3.042,0.366 5.571,1.854 7.234,4.85c0.899,1.621 1.875,3.166 2.595,4.871c0.984,2.233 1.155,4.625 0.342,7.037c-0.342,0.946 -0.662,1.913 -0.9,2.904c-0.333,1.446 0,2.55 1.225,2.929c2.758,0.888 4.996,2.55 7.121,4.605c0.804,0.82 1.862,0.82 2.483,-0.034c2.592,-3.416 6.138,-3.508 9.675,-3.746c0.442,-0.045 0.938,-0.066 1.379,-0.208c1.15,-0.329 2.125,0 2.888,1.042c1.346,1.787 3.021,2.183 5.012,1.629c1.655,-0.454 3.4,-0.246 4.95,0.65c2.975,1.667 5.342,0.896 7.38,-1.917c0.762,-1.083 1.741,-1.9 3.05,-2.175c0.4,0.434 0.762,0.879 1.179,1.329c0.446,2.321 0.846,4.646 1.304,6.971c0.158,0.879 0.646,1.596 1.412,1.954c2.48,1.196 4.263,3.2 5.655,5.825c0.858,1.609 2.62,1.813 4.033,0.638c3.733,-3.096 3.921,-6.629 1.5,-11.342c-2.154,-1.537 -2.8,-3.341 -0.967,-5.787c0.275,-0.434 0.05,-1.354 0.163,-2c0.316,-1.613 1.058,-2.438 2.525,-2.484c1.096,-0.062 2.154,0.113 3.2,0.338c1.062,0.204 2.087,0.608 3.141,0.95c5.821,1.879 11.767,2.367 17.792,1.754c2.688,-0.262 4.996,0.35 7.387,2.058c3.351,2.4 7.001,4.255 10.588,6.313c2.6,1.5 5.125,3.175 7.121,5.654c1.671,2.108 3.712,3.621 5.941,4.792c1.709,0.879 3.055,2.083 4.146,3.929c1.309,2.279 3.496,3.767 5.534,5.258c1.945,1.404 3.875,2.792 4.966,5.229c0.45,0.984 1.305,1.45 2.196,1.755c1.067,0.329 1.383,1.183 1.467,2.337c0.05,0.842 0.529,1.242 1.175,0.554c1.112,-1.091 2.037,-0.541 2.812,0.392c1.059,1.267 1.959,2.667 2.938,3.95c0.696,0.892 0.604,1.892 0.696,2.917c0.191,2.937 0.937,5.737 1.9,8.445c0.204,0.492 0.65,0.817 1.133,0.525c0.258,-0.17 0.458,-0.525 0.537,-0.816c0.459,-1.488 -0.17,-2.625 -0.937,-3.796c-0.533,-0.792 -0.046,-1.788 0.808,-1.788c1.838,0 3.734,-0.387 5.296,1.196c0.967,0.967 2.15,1.221 3.45,0.829c2.775,-0.829 4.792,0.205 6.308,2.905c2.246,4.02 5.484,6.92 8.713,9.891c1.267,1.142 1.267,1.563 -0.238,2.596c-1.345,0.958 -2.529,1.942 -2.941,3.779c-0.534,2.475 -2.359,3.434 -4.271,4.254c-0.521,0.25 -1.217,0.113 -1.788,0.25c-1.916,0.467 -2.933,1.35 -2.808,3.438c0.079,2.404 -0.617,3.925 -2.233,5.262c-1.071,0.855 -0.975,2.05 -0.25,3.192c0.521,0.875 1.262,1.983 0.566,2.804c-1.012,1.217 -1.945,2.729 -3.583,3.096c-0.4,0.079 -0.925,-0.087 -1.3,-0.296c-1.746,-1.087 -3.737,-1.646 -5.033,-3.587c-0.95,-1.446 -2.4,-2.096 -3.917,-2.571c-3.337,-1.05 -5.212,-3.546 -5.729,-7.267c-0.408,-2.879 -1.829,-4.646 -4.35,-5.4c-1.229,-0.4 -2.413,-0.337 -3.596,0.334c-1.254,0.787 -2.6,0.816 -4.033,0.341c-1.204,-0.433 -2.217,-1.012 -2.754,-2.45c-0.905,-2.279 -2.925,-4.121 -2.038,-7.091c0.158,-0.488 -1.471,-1.371 -1.9,-1.005c-0.696,0.63 -1.387,1.346 -2.087,2.005c-0.85,0.75 -0.85,1.745 -0.442,2.766c0.117,0.304 0.275,0.609 0.442,0.888c0.808,1.246 1.708,2.487 1.55,4.179c-0.25,2.108 -0.85,4.112 -2.196,5.596c-2.279,2.537 -4.204,5.4 -7.242,7.075c-1.467,0.8 -2.729,1.45 -4.3,0.937c-0.917,-0.266 -1.829,-0.441 -2.733,-0.579c-0.65,-0.083 -1.184,0.308 -1.513,0.954c-0.275,0.692 -0.258,1.379 0.084,1.971c0.737,1.488 1.912,2.313 3.379,2.4c1.346,0.142 1.879,0.996 2.158,2.254c0.579,2.325 1.133,4.625 1.717,6.938c0.441,1.808 0.808,3.704 1.825,5.262c0.729,1.184 1.262,2.313 0.696,3.825c-0.367,0.913 0.491,1.5 0.775,2.263c0.962,2.383 -0.242,5.846 -2.484,6.825c-0.491,0.229 -1.233,0.162 -1.741,-0.071c-0.855,-0.329 -1.688,-0.921 -2.45,-1.433c-2.863,-1.817 -5.705,-1.596 -8.346,0.291c-5.617,3.938 -11.434,7.484 -17.259,10.934c-2.354,1.425 -4.35,3.925 -6.087,6.262c-2.167,2.783 -4.771,4.975 -7.371,7.017c-2.287,1.804 -3.95,3.621 -4.804,6.562c-0.413,1.442 -1.658,1.625 -2.483,0.438c-0.65,-0.946 -1.171,-1.996 -1.755,-3.034c-1.025,-1.9 -2.595,-2.837 -4.516,-3.175c-3.942,-0.67 -7.325,0.671 -10.25,3.542c-0.696,0.671 -1.267,1.546 -1.996,2.175c-0.9,0.788 -1.55,2.696 -2.846,2.004c-1.112,-0.596 0.042,-2.2 -0.129,-3.354c-0.158,-1.158 -0.979,-1.65 -2.038,-1.158c-1.77,0.866 -3.166,2.096 -3.983,4.087c-0.367,0.867 -1.108,1.354 -1.912,0.888c-1.221,-0.717 -2.392,-0.192 -3.575,-0.1c-2.4,0.083 -3.913,1.479 -4.142,3.95c-0.467,4.35 -2.575,7.696 -4.646,11.087c-1.387,2.304 -2.558,4.704 -3.05,7.438c-0.208,1.408 0.492,2.1 1.9,1.808c0.625,-0.117 1.183,-0.446 1.8,-0.4c2.388,0.138 3.513,2.213 2.517,4.683c-0.242,0.613 -0.646,1.171 -0.938,1.817c-1.233,2.483 -1.341,4.883 0.413,7.146c1.537,2.05 1.675,4.375 1.05,6.812c-0.209,0.646 -0.609,1.209 -1.304,1.3c-0.692,0.096 -1.171,-0.295 -1.455,-0.945c-0.366,-0.746 -0.608,-1.55 -0.983,-2.438c-0.946,1.25 -1.862,2.367 -2.642,3.621c-1.958,3.154 -2.891,6.483 -1.104,10.167c0.159,0.287 0.296,0.57 0.413,0.887c1.296,3.4 0.237,5.533 -3.009,5.442c-2.195,-0.054 -3.829,0.512 -5.42,2.2c-2.346,2.508 -3.984,5.191 -3.13,9.075c0.292,1.358 -0.245,2.304 -1.462,2.8c-0.975,0.446 -1.958,0.991 -2.858,1.654c-1.867,1.408 -3.213,3.287 -3.363,5.846c-0.425,6.3 -4.25,10.104 -8.029,13.921c-0.942,0.962 -2.071,0.5 -2.563,-0.917c-0.65,-1.933 -0.9,-3.983 -0.854,-6.079c0.038,-2.609 -0.125,-5.113 -1.133,-7.554c-0.446,-1.046 -0.533,-2.309 -0.738,-3.48c-0.333,-2.054 -0.445,-4.145 -0.937,-6.116c-1.55,-6.179 -1.829,-12.563 -2.563,-18.846c-0.612,-5.408 0.284,-10.621 1.596,-15.779c0.442,-1.746 1.363,-3.096 2.688,-4.054c2.55,-1.963 3.7,-4.521 3.404,-7.955c-0.117,-1.133 0.325,-2.045 1.387,-2.32c5.571,-1.23 8.909,-5.75 12.338,-10.2c0.933,-1.171 1.783,-2.388 2.229,-3.871c0.9,-2.867 2.604,-5.1 4.596,-6.984c2.767,-2.62 4.967,-5.679 6.704,-9.12c0.746,-1.459 1.6,-2.505 2.942,-3.134c0.983,-0.45 1.9,-1.046 2.883,-1.65c3.983,-2.408 4.033,-2.408 5.054,-7.125c0.729,-3.483 1.379,-7.016 1.992,-10.529c0.367,-2.337 1.304,-4.192 3.212,-5.333c0.4,-0.259 0.775,-0.692 0.609,-1.25c-0.167,-0.767 -0.775,-1.129 -1.384,-1.121c-2.816,0.129 -5.12,1.346 -6.387,4.267c-1.017,2.383 -1.458,4.833 -0.967,7.512c0.317,1.704 -0.05,2.254 -1.629,2.313c-1.708,0.02 -2.942,0.741 -4.033,2.058c-2.038,2.379 -4.125,4.654 -6.117,7.071c-0.937,1.171 -1.904,2.196 -3.204,2.858c-1.1,0.546 -1.829,0.217 -2.033,-1.071c-0.092,-0.483 0.162,-1.204 -0.092,-1.487c-2.433,-3.121 -1.329,-6.375 -0.354,-9.638c0.037,-0.121 -0.088,-0.341 -0.134,-0.512c-0.35,-0.671 -1.012,-0.704 -1.583,-0.734c-1.617,-0.2 -2.308,-2.529 -4.067,-2.2c-1.512,0.28 -2.97,0.825 -4.475,1.205c-0.775,0.17 -1.55,0.17 -2.325,0.295c-2.595,0.371 -4.762,1.875 -5.858,4.496c-1.162,2.867 -3.179,5.034 -4.479,7.8c-0.888,1.996 -2.438,3.542 -4.1,4.825c-2.571,1.975 -3.379,5.267 -4.879,8.029c-0.379,0.759 0.033,1.709 0.725,2.28c0.871,0.691 1.787,1.279 2.654,2.037c0.858,0.783 0.654,2.583 -0.375,3.063c-1.704,0.783 -3.4,1.804 -5.325,1.17c-1.463,-0.491 -2.804,-0.283 -3.942,0.667c-2.366,1.988 -5.329,1.338 -7.9,2.5c-1.141,0.504 -2.391,-0.121 -3.341,-1.254c-0.646,-0.854 -0.4,-2.033 0.491,-2.525c0.896,-0.5 2.604,0.329 2.604,-1.392c0.038,-1.671 -2.57,-3.608 -4.091,-3.154c-1.325,0.379 -2.375,0.367 -3.559,-0.375c-0.475,-0.342 -1.154,-0.479 -1.708,-0.717c-0.442,-0.195 -0.854,-0.354 -1.3,-0.595c-2.487,-1.275 -4.079,-0.85 -5.125,2.195c-0.158,0.471 -0.454,0.888 -0.658,1.359c-0.567,1.025 -1.379,1.5 -2.35,0.921c-1.313,-0.742 -2.563,-1.034 -3.95,-0.192c-1.346,0.842 -2.725,0.329 -4.021,-0.188c-1.55,-0.575 -2.942,-0.679 -4.196,0.892c-0.854,1.083 -1.992,0.858 -2.892,-0.125c-1.308,-1.471 -2.925,-1.675 -4.683,-1.729c-3.25,-0.113 -6.462,0.483 -9.637,1.083c-2.88,0.538 -5.217,2.404 -6.863,4.917c-1.687,2.525 -3.604,4.696 -5.629,6.783c-0.696,0.696 -1.425,1.467 -1.742,2.384c-1.354,3.879 -4.25,6.32 -6.762,9.054c-2.975,3.254 -5.821,6.583 -8.034,10.591c-1.695,3.063 -3.816,5.759 -6.466,8.038c-2.8,2.367 -5.371,5.133 -8.021,7.767c-1.133,1.15 -0.963,2.437 0.3,3.425c0.779,0.583 1.583,1.079 2.562,0.945c0.775,-0.12 1.5,-0.325 2.288,-0.375c1.096,-0.07 1.821,0.592 1.946,1.721c0.071,0.829 0.046,1.717 0.071,2.584c0.091,0.912 -0.559,2.333 0.65,2.55c0.866,0.137 0.741,-1.309 1.145,-1.971c0.284,-0.392 0.613,-0.742 0.98,-1.059c0.4,-0.358 1.425,0 1.579,0.546c0.458,1.996 0.491,4 0.162,6.263c2.529,-0.342 3.742,-2.675 5.617,-3.642c0.121,-0.075 0.204,-0.296 0.204,-0.442c-0.204,-3.545 2.038,-2.575 3.796,-2.575c2.675,-0.045 4.821,1.071 5.987,3.938c0.638,1.633 1.659,2.879 2.959,3.85c1.879,1.354 2.8,2.904 1.95,5.592c-0.567,1.754 -0.113,3.758 0.254,5.6c0.033,0.229 0.437,0.504 0.679,0.562c0.254,0.033 0.65,-0.108 0.833,-0.333c0.809,-1.304 0.967,-2.859 1.209,-4.396c0.204,-1.158 0.25,-2.375 0.296,-3.563c0.02,-1.937 0.558,-3.32 2.504,-3.687c1.296,-0.254 1.641,-1.45 1.437,-2.767c-0.162,-1.183 -0.537,-2.337 -0.741,-3.521c-0.113,-0.754 0.17,-1.316 0.783,-1.67c0.604,-0.4 1.633,-0 1.9,0.854c0.283,0.783 0.608,1.608 0.65,2.433c0.133,2.775 0.742,5.45 1.387,8.096c0.696,2.696 0.905,5.487 0.38,8.2c-0.588,3.154 -0.05,6.092 0.666,9.108c1.817,7.313 3.525,14.613 5.263,21.925c0.091,0.304 -0.042,0.692 -0.042,1.146c-1.258,0.775 -2.312,-0.5 -3.45,-0.554c-1.879,-0.113 -3.083,0.458 -3.621,2.4c-0.854,3.133 -1.5,6.3 -2.133,9.496c-0.317,1.562 0.046,3.121 0.783,4.437c1.184,2.038 1.742,4.438 3.388,6.171c0.808,0.892 1.133,2 1.133,3.254c0,0.479 -0.087,1.184 -0.375,1.425c-0.646,0.538 -1.058,-0.137 -1.412,-0.704c-0.296,-0.392 -0.5,-0.887 -0.83,-1.204c-1.462,-1.467 -2.691,-1.2 -3.733,0.75c-0.092,0.137 -0.142,0.292 -0.204,0.442c-0.492,0.995 -0.608,2.416 -1.996,2.545c-0.854,0.084 -1.504,-1.27 -1.633,-3.287c-0.046,-0.696 -0,-1.379 0.079,-2.075c0.321,-3.229 0.617,-6.513 1.142,-9.7c0.45,-2.433 0.52,-4.763 -0.288,-7.092c-0.804,-2.171 -0.692,-4.375 -0.154,-6.566c0.946,-3.855 1.137,-7.805 0.742,-11.788c-0.092,-1.012 -0.175,-2.062 -0.05,-3.067c0.366,-3.354 0.162,-6.475 -1.83,-9.295c-0.695,-0.98 -0.854,-2.405 -1.3,-3.884c-2.483,3.559 -4.408,6.979 -5.054,11.142c-0.366,2.237 -0.608,4.371 -0.208,6.621c0.65,3.425 0.533,6.858 -0.558,10.179c-0.255,0.783 -0.538,1.637 -0.584,2.492c-0.046,3.683 -1.862,6.358 -3.871,9.091c-2.866,3.988 -5.729,8.029 -7.229,13.059c-1.012,3.462 -3.179,6.229 -5.266,9.02c-2.959,3.938 -5.93,7.909 -8.855,11.909c-0.412,0.512 -0.775,1.108 -1.012,1.721c-1.55,3.741 -4.271,6.212 -7.254,8.491c-3.871,3.063 -7.817,3.746 -12.079,0.979c-2.313,-1.512 -2.438,-1.333 -4.396,0.584c-1.696,1.691 -3.534,3.254 -5.254,4.933c-0.921,0.908 -1.775,1.921 -2.609,2.938c-1.3,1.583 -2.183,3.3 -1.979,5.575c0.238,2.062 -0.662,3.5 -2.133,4.8c-2.688,2.295 -4.95,5.075 -8.209,6.575c-2.654,1.187 -3.004,4.008 -0.82,6.266c2.941,2.95 4.645,6.834 6.966,10.209c1.746,2.516 2.646,5.412 2.6,8.679c0,1.671 0.238,3.416 0.329,5.104c0.113,3.687 -1.025,5.433 -4.112,7.204c-2.729,1.55 -5.733,2.271 -8.346,4.225c-1.212,0.9 -2.937,0.946 -4.437,1.246c-1,0.217 -1.792,-0.638 -1.834,-1.813c-0.021,-2.266 0.334,-4.52 1.229,-6.512c1.188,-2.692 0.742,-4.95 -0.85,-7.15c-0.283,-0.413 -0.604,-0.775 -0.82,-1.221c-0.317,-0.662 -0.317,-1.342 0.254,-1.879c0.441,-0.446 1.025,-0.75 1.471,-1.188c0.808,-0.762 0.937,-1.7 0.558,-2.766c-0.938,-2.775 -1.946,-3.579 -4.475,-3.492c-0.6,0.008 -1.208,0.354 -1.825,0.354c-2.225,0.088 -4.063,-2.783 -3.013,-5.012c1.146,-2.346 1.8,-4.75 2.038,-7.313c0.125,-1.158 -0.325,-1.966 -1.379,-2.333c-6.113,-2.242 -11.509,-0.954 -16.234,3.887c-1.137,1.213 -2.391,2.163 -3.954,2.484c-0.271,0.046 -0.646,-0.113 -0.804,-0.321c-0.158,-0.213 -0.254,-0.754 -0.133,-0.938c0.9,-1.27 1.558,-2.458 0.691,-4.187c-0.525,-0.992 0.125,-1.996 0.646,-2.825c0.817,-1.267 1.767,-2.442 2.488,-3.754c0.783,-1.45 0.466,-3.154 -0.671,-4.171c-0.871,-0.804 -2.488,-1 -3.433,0.083c-2.884,3.329 -6.013,6.334 -9.438,8.971c-0.25,0.217 -0.412,0.5 -0.533,0.829c-1.254,3.038 -3.45,4.267 -6.342,4.213c-1.183,-0.021 -2.121,0.183 -2.646,1.508c-0.646,1.521 -0.608,2.992 0.413,4.325c0.196,0.263 0.35,0.608 0.608,0.775c2.642,1.629 4.567,3.938 6.025,6.917c0.604,1.346 2.479,1.454 3.733,0.504c0.98,-0.775 1.88,-1.771 2.863,-2.617c1.3,-1.137 2.717,-1.641 4.254,-0.671c1.971,1.138 3.996,1.775 6.242,1.642c1.3,-0.079 2.15,0.954 2.312,2.092c0.154,1.425 -0.571,2.929 -1.871,3.037c-1.579,0.125 -2.875,1.125 -4.395,1.513c-1.421,0.371 -2.688,1.125 -3.334,2.541c-0.946,1.971 -3.096,2.25 -4.108,4.055c-0.571,1 -1.517,1.729 -2.167,2.708c-2.233,3.562 -3.087,4.842 1.071,7.117c1.746,0.991 2.763,2.679 3.45,4.612c0.413,1.117 0.808,2.254 1.063,3.413c0.608,3.133 1.787,5.85 3.708,8.2c0.717,0.887 1.367,1.879 1.9,2.891c0.379,0.659 0.158,1.354 -0.533,1.65c-0.88,0.388 -1.255,0.975 -0.609,1.925c0.492,0.667 1.075,1.3 1.442,2.013c0.442,0.808 0.442,1.696 -0.258,2.312c-1.092,0.913 -2.196,1.796 -3.213,2.65c-0.05,1.621 1.179,1.675 1.829,2.279c2.125,1.963 2.642,3.525 1.788,6.234c-0.609,1.933 -1.334,3.812 -2.071,5.712c-0.233,0.638 -0.529,1.288 -0.925,1.759c-4.204,4.895 -6.971,10.791 -9.613,16.812c-1.537,3.521 -3.745,6.654 -6.708,8.917c-0.137,0.121 -0.329,0.121 -0.454,0.233c-2.354,3.425 -5.817,5.467 -8.583,8.3c-2.088,2.079 -4.238,3.383 -6.88,3.838c-1.67,0.283 -3.333,0.729 -5.008,1.158c-1.046,0.262 -1.946,0.808 -2.754,1.708c-1.029,1.138 -1.138,1.025 -2.088,-0.829c-0.279,-0.442 -0.762,-1.092 -0.97,-0.708c-0.9,1.816 -3.338,0.887 -3.988,3.087c-0.367,1.254 -1.579,1.513 -2.646,1.842c-2.391,0.729 -4.746,1.4 -7.162,2.108c-0.904,0.263 -1.788,0.592 -2.642,0.888c-1.458,0.558 -2.437,1.537 -2.2,3.437c0.163,1.209 0.442,2.471 -0.85,3.121c-1.062,0.525 -2.367,-0.5 -3.179,-2.346c-0.171,-0.454 -0.325,-0.954 -0.488,-1.429c-0.329,-1.042 0.455,-2.683 -1.095,-3.046c-1.709,-0.4 -3.096,-1.775 -5.259,-1.054c-4.433,1.525 -8.212,3.754 -10.729,8.25c-0.425,0.708 -1.071,1.233 -1.629,1.817c-1.829,1.658 -2.292,4.004 -2.692,6.379c-0.158,1.067 0.029,2.087 0.696,2.942c3.2,4.316 5.617,9.475 9.667,12.991c2.371,2.025 4.487,4.217 6.071,6.984c0.487,0.875 1.108,1.75 1.387,2.695c1.425,5.459 2.883,10.884 1.875,16.696c-0.046,0.179 -0.087,0.35 -0.129,0.509c-0.2,7.512 -1.417,6.925 -5.658,10.15c-1.779,1.362 -3.659,2.57 -5.78,3.129c-1.249,0.341 -2.437,0.866 -3.004,2.175c-1.096,2.437 -2.891,3.971 -4.841,5.375c-0.534,0.375 -0.934,0.887 -1.471,1.262c-0.946,0.779 -1.704,2.475 -3.092,1.517c-1.137,-0.788 -0.821,-2.463 -0.846,-3.804c-0.045,-0.85 0.075,-1.734 0.113,-2.575c-0,-1.925 -1.5,-3.904 -3.288,-4.213c-0.208,-0.058 -0.487,0.334 -0.65,0.604c-0.5,0.78 -0.987,0.709 -1.5,0.071c-1.187,-1.533 -2.087,-3.341 -3.916,-4.229c-0.588,-0.304 -1.013,-1.304 -1.234,-2.092c-0.962,-3.158 -3.154,-4.987 -5.279,-6.995c-1.017,-0.955 -2.158,-1.338 -3.408,-1.4c-1.767,-0.059 -2.938,-0.875 -3.217,-2.938c-0.083,-0.483 -0.379,-0.962 -0.608,-1.362c-0.738,-1.075 -2.688,-0.855 -3.175,0.304c-0.138,0.333 -0.329,0.633 -0.329,0.954c0.046,5.362 -2.646,9.817 -3.829,14.771c-0.317,1.316 -0.809,2.621 -0.967,3.983c-0.254,2.146 -0,4.142 2.279,4.975c1.3,0.446 1.9,1.571 2.313,2.95c0.729,2.279 1.675,4.438 2.366,6.717c0.717,2.471 2.063,4.146 4.259,5.071c4.27,1.841 7.333,5.6 10.575,8.945c1.504,1.538 2.195,3.725 2.245,6.059c0,1.221 0.046,2.404 -0.05,3.625c-0.112,3.162 0.163,6.175 2.417,8.533c0.229,0.229 0.317,0.588 0.525,0.867c1.421,2.437 2.071,4.962 0.492,7.679c-0.288,0.554 -0.209,1.362 -0.95,1.637c-2.68,-2.858 -6.063,-4.483 -9.113,-6.675c-2.646,-1.883 -4.679,-4.212 -6.471,-7.104c-2.887,-4.575 -4.141,-9.521 -4.629,-14.891c-0.175,-1.767 -0.537,-3.43 -1.471,-4.825c-1.996,-3.05 -4.079,-6.05 -6.183,-9.03c-0.542,-0.808 -1.233,-1.562 -2.154,-1.816c-0.629,-0.146 -1.471,-0.079 -1.721,-0.467c-0.367,-0.671 -0.492,-1.612 -0.413,-2.446c0.138,-1.55 0.459,-3.033 0.696,-4.566c0.317,-2.209 0.9,-4.342 0.571,-6.63c-0.271,-1.937 0.613,-3.7 1.025,-5.533c0.208,-1 -0.092,-1.642 -1.108,-1.792c-0.934,-0.108 -1.513,-0.816 -0.888,-1.716c2.2,-3.217 1.629,-6.546 0.242,-9.75c-2.438,-5.654 -4.067,-11.504 -4.35,-17.754c-0.125,-1.955 -1.013,-3.175 -2.404,-4.163c-1.013,-0.7 -1.946,-0.879 -2.971,0.029c-1.8,1.634 -3.633,3.179 -5.467,4.784c-2.108,1.8 -5.158,1.741 -7.233,-0.146c-0.646,-0.584 -1.008,-1.346 -0.9,-2.267c0.208,-1.308 0.412,-2.692 0.746,-4.004c1.216,-4.95 0.316,-9.192 -3.179,-12.621c-0.609,-0.571 -1.388,-1.158 -1.346,-2.025c0.287,-2.996 -1.671,-4.054 -3.409,-5.5c-3.416,-2.9 -5.791,-6.65 -6.183,-11.621c-0.158,-1.937 -0.65,-3.683 -1.879,-5.137c-0.967,-1.129 -2.392,-1.309 -3.213,-0c-2.362,3.966 -5.941,5.104 -9.8,5.866c-2.12,0.396 -4.158,0.855 -6.354,0.159c-2.641,-0.788 -5.821,1.5 -6.308,4.483c-0.696,4.158 -2.65,6.788 -6.221,8.179c-2.846,1.079 -5.167,3.017 -6.871,5.809c-2.37,3.754 -5.983,5.933 -8.841,9.075c-0.317,0.354 -0.696,0.716 -1.08,0.945c-2.212,1.217 -2.904,4.08 -4.816,5.488c-1.867,1.375 -4.388,1.575 -5.817,3.962c-0.533,0.888 -1.583,0.934 -2.433,1.363c-2.284,1.183 -2.929,2.462 -2.692,5.287c0.271,2.755 0.488,5.509 0.963,8.196c0.425,2.296 0.379,4.525 -0.475,6.6c-1.471,3.496 -1.996,7.204 -2.075,11c-0,1.642 -0.296,3.084 -1.83,3.8c-0.295,0.125 -0.645,0.3 -0.741,0.571c-1.55,3.85 -4.996,5.958 -6.913,9.429c-0.412,0.742 -0.85,1.442 -1.425,2.017c-1.466,1.521 -3.012,1.546 -4.516,-0c-1.742,-1.75 -2.975,-3.858 -3.734,-6.413c-1.279,-4.225 -2.733,-8.395 -4.191,-12.537c-0.33,-0.954 -0.78,-1.946 -1.425,-2.642c-1.971,-2.171 -2.892,-4.875 -3.475,-7.729c-1.25,-6.321 -4.3,-11.75 -6.955,-17.387c-1.375,-2.917 -2.558,-5.83 -2.691,-9.217c-0.025,-1.171 -0.442,-2.333 -0.646,-3.504c-0.804,-4.571 -1.617,-9.092 -2.388,-13.667c-0.091,-0.496 -0.175,-1.079 0,-1.512c1.134,-3.288 0.28,-6.421 -0.504,-9.58c-0.35,-1.645 -0.491,-3.333 -0.804,-5.391c-1.254,1.237 -1.221,2.704 -1.587,3.879c-1.342,4.342 -6.263,6.879 -9.721,4.671c-3.134,-1.938 -5.254,-5.225 -7.404,-8.359c-0.442,-0.625 0.116,-1.745 0.891,-1.97c1.221,-0.317 2.404,-0.55 3.584,-0.955c0.362,-0.137 0.72,-0.691 0.808,-1.129c0.087,-0.583 -0.446,-0.796 -0.9,-0.866c-0.329,-0.025 -0.646,-0.046 -0.938,-0c-3.237,0.637 -5.725,-0.671 -7.637,-3.596c-0.171,-0.263 -0.425,-0.479 -0.583,-0.779c-1.255,-2.059 -3.942,-2.25 -4.825,-4.65c-0.855,-2.271 -2.45,-3.955 -3.546,-5.992c-1.025,-1.879 -2.459,-2.496 -4.317,-2.208c-1.546,0.241 -3.05,0.4 -4.608,0.612c-1.821,0.271 -3.609,0.375 -5.484,0.242c-3.041,-0.196 -6.187,-0.171 -9.158,0.558c-3.129,0.808 -6.104,0.442 -9.15,-0.079c-1.675,-0.275 -3.342,-0.575 -5.017,-0.883c-4.05,-0.792 -8.175,-1.592 -12.237,-2.459c-1.992,-0.4 -3.292,-1.762 -3.983,-3.875c-0.442,-1.262 -0.813,-2.6 -1.392,-3.796c-0.888,-1.9 -2.354,-2.337 -3.733,-0.854c-2.892,3.325 -6.559,2.675 -10.009,2.375c-3.712,-0.362 -7.096,-2.312 -9.966,-5.016c-1.555,-1.475 -3.063,-2.85 -5.009,-3.5c-1.637,-0.509 -2.575,-1.8 -3.221,-3.5c-1.458,-3.825 -3.937,-6.917 -5.691,-10.575c-0.613,-1.3 -1.421,-2.196 -2.929,-1.971c-1.825,0.271 -2.617,-1.546 -3.667,-2.596c-1.338,-0 -1.338,1.379 -1.863,2.104c-3.758,4.821 -3.779,4.217 -1.308,10.35c1.721,4.167 4.108,7.725 7.083,10.775c1.909,1.983 3.213,4.154 3.05,7.167c-0.091,1.091 0.238,1.991 0.85,2.821c0.65,0.883 1.788,0.954 2.367,0.025c0.563,-0.809 0.921,-1.755 1.504,-2.575c0.538,-0.796 1.829,-0.505 2.367,0.387c0.462,0.775 0.558,1.596 0.608,2.45c0.063,2.05 0,4.096 -0.254,6.15c-0.242,2.154 1.5,4.371 3.338,3.95c2.733,-0.625 5.487,-0.45 8.22,-0.733c2.4,-0.225 4.267,-1.488 5.888,-3.592c2.483,-3.292 5.212,-6.346 7.854,-9.454c0.175,-0.238 0.629,-0.433 0.821,-0.317c0.362,0.225 0.854,0.604 0.904,1c0.113,1.517 0.204,3.088 0.113,4.634c-0.242,3.691 1.337,6.191 3.912,8.2c1.663,1.287 3.496,2.141 5.483,2.654c2.488,0.637 4.6,1.866 5.95,4.462c0.442,0.888 1.125,1.638 1.784,2.375c2.125,2.475 2.283,3.279 1.016,6.279c-0.441,1.084 -1.016,2.142 -1.745,3.038c-1.225,1.558 -2.367,3.062 -2.192,5.4c0.083,1.204 -0.904,1.592 -1.946,1.692c-3.267,0.329 -4.125,1.22 -4.454,4.412c-0.025,0.679 0.046,1.375 0.137,2.058c0.113,1.392 -0.412,2.413 -1.641,2.759c-2.554,0.712 -4.384,2.275 -5.288,5.121c-0.329,1.012 -1.229,1.583 -2.162,1.808c-2.267,0.517 -3.9,1.812 -4.913,4.217c-0.583,1.354 -1.721,2.012 -3.058,1.966c-3.175,-0.121 -5.979,1.392 -8.904,2.404c-1.834,0.638 -3.588,1.696 -4.329,3.671c-1.013,2.692 -3.038,3.859 -5.125,4.859c-2.85,1.32 -5.771,2.475 -8.742,3.37c-1.825,0.575 -3.496,1.209 -4.763,2.838c-1.312,1.662 -2.879,2.487 -4.875,2.587c-0.862,0.038 -1.929,0.355 -2.57,0.955c-2.075,1.804 -4.48,2.295 -6.963,2.6c-2.483,0.329 -4.75,0.945 -6.829,2.766c-1.996,1.775 -4.571,1.95 -7.054,1.846c-2.871,-0.104 -4.188,-1.325 -4.959,-4.4c-0.558,-2.483 -1.079,-4.983 -1.708,-7.492c-0.329,-1.312 -0.65,-2.645 -1.254,-3.85c-0.604,-1.287 -0.85,-2.537 -0.488,-3.95c1.413,-5.125 -0.804,-9.2 -3.579,-12.629c-2.237,-2.725 -3.987,-5.6 -5.125,-9.041c-1.221,-3.642 -3.137,-6.692 -6.471,-8.35c-2.85,-1.375 -4.316,-3.742 -4.57,-7.171c-0.017,-1.188 -0.509,-2.4 -0.4,-3.563c0.383,-3.654 -1.138,-6.675 -2.355,-9.837c-0.933,-2.417 -2.279,-4.509 -4.52,-5.654c-2.321,-1.196 -3.459,-3.28 -4.03,-5.938c-0.4,-2.025 -1.375,-3.767 -2.437,-5.487c-2.525,-4.105 -4.888,-8.367 -7.321,-12.538c-0.587,-0.996 -1.075,-2.229 -1.929,-2.812c-1.65,-1.171 -1.692,-2.642 -1.375,-4.438c0.442,-2.633 -0,-5.117 -0.779,-7.621c-0.863,-2.75 -1.629,-5.566 -2.517,-8.291c-0.608,-1.913 -0.692,-3.684 0.563,-5.313c1.387,-1.742 2,-3.846 2.412,-6.067c0.763,-4.266 2.192,-8.237 4.313,-11.879c2.062,-3.596 3.245,-7.308 2.475,-11.704c-0.48,-2.692 0.658,-5.425 0.17,-8.121c-1.075,-0.829 -2.212,0.254 -3.183,-0.262c-2.637,-1.309 -4.587,-0.292 -6.625,1.75c-2.033,2.037 -4.85,2.146 -7.442,2.337c-1.312,0.092 -2.341,-0.875 -3.225,-1.829c-1.616,-1.675 -3.495,-2.825 -5.533,-3.671c-1.392,-0.587 -2.354,-0.337 -3.083,1.246c-1.025,2.279 -2.621,3.3 -4.771,3.425c-1.1,0.071 -2.283,-0.046 -3.013,-1c-2.208,-2.742 -4.962,-3.212 -8.033,-2.904c-1.204,0.121 -1.737,-0.408 -0.871,-1.717c-2.458,-1.812 -3.466,-4.558 -4.033,-7.596c-0.217,-1.125 -1.267,-1.412 -1.996,-1.945c-2.25,-1.571 -2.367,-2.242 -0.908,-4.35c1.991,-2.838 1.808,-4.775 -0.809,-7.23c-1.3,-1.22 -1.587,-1.916 -0.975,-3.483c0.575,-1.396 1.305,-2.712 2.08,-4.037c0.441,-0.784 1.262,-1.217 1.991,-0.738c2.817,1.775 5.746,0.025 8.592,0.579c1.342,0.263 2.292,-0.883 3.254,-1.737c0.367,-0.334 0.492,-0.721 0.571,-1.279c0.25,-2.838 0.25,-2.871 2.158,-2.917c1.829,-0.013 3.709,-0.133 5.529,0.433c2.23,0.767 4.205,0.375 5.946,-1.546c0.988,-1.058 2.242,-1.8 3.384,-2.729c2.437,-1.987 5.204,-2.883 8.225,-3.079c1.537,-0.108 3.037,-0.133 4.587,-0.242c2.208,-0.12 4.154,0.105 6.075,1.713c1.896,1.621 4.221,2.604 6.338,3.996c3.545,2.404 7.566,3.646 11.962,2.721c1.913,-0.4 3.988,-0.317 5.983,-0.225c4.205,0.175 6.846,-2.646 9.4,-5.709c0.292,-0.329 0.575,-0.95 0.484,-1.375c-0.554,-3.354 -0.842,-6.937 -3.988,-8.85c-1.579,-0.991 -3.412,-1.65 -4.712,-3.2c-0.413,-0.491 -0.946,-1.05 -0.5,-1.775c0.204,-0.371 0.741,-0.616 1.15,-0.675c1.533,-0.229 3.083,0.113 4.521,0.779c2.716,1.217 5.483,2.275 8.504,2.105c2.15,-0.113 3.858,1.241 5.5,2.516c1.821,1.392 3.608,2.121 5.983,1.767c3.175,-0.5 6.175,0.329 7.633,4.208c0.4,0.95 1.263,1.513 2.121,1.896c2.354,1.038 4.267,2.7 5.909,4.842c1.129,1.487 2.345,1.387 3.562,0.029c0.329,-0.383 0.663,-0.742 0.917,-1.171c1.946,-3.812 2.75,-2.312 4.462,0.3c0.442,0.717 0.884,1.425 1.217,2.196c1.183,2.729 2.692,5.017 5.467,5.896c0.354,0.137 0.716,0.658 0.854,1.1c0.191,0.575 -0.296,0.883 -0.742,0.941c-1.629,0.28 -2.354,1.534 -2.775,3.096c-0.354,1.342 -0.608,2.663 -0.892,4.009c-0.254,1.195 -0.441,2.416 -1.595,3c-1.534,0.762 -1.825,2.15 -1.534,3.82c0.238,1.542 0.329,3.096 0.609,4.6c0.366,2.238 1.462,3.93 3.541,4.217c2.284,0.346 3.879,1.583 5.488,3.363c2.529,2.916 5.866,3.7 9.396,2.837c1.97,-0.517 3.916,-1.025 5.866,-1.617c1.138,-0.358 2.592,0.75 3.379,-0.854c0.609,-1.321 -0.204,-2.666 -0.404,-3.987c-0.383,-2.367 -0.891,-4.742 -0.662,-7.175c0.279,-2.234 0.616,-4.371 -0.963,-6.288c-0.858,-1.066 0.279,-2.629 -0.404,-3.975c-0.583,-1.058 -0.742,-2.012 -2.246,-1.925c-1.383,0.092 -1.875,-0.783 -2.037,-2.158c-0.204,-1.95 0.325,-3.729 1.062,-5.708c1.425,0.504 2.888,0.95 4.317,1.391c0.892,0.304 1.829,0.363 2.708,-0.083c1.475,-0.708 1.967,-2.325 1.067,-3.783c-0.933,-1.567 -1.992,-3.038 -2.883,-4.65c-1.221,-2.271 -3.092,-1.53 -4.275,-0.309c-0.73,0.754 -0.855,1.775 -1.046,2.813c-0.088,0.4 -0.454,1.012 -0.742,1.075c-0.742,0.166 -1.062,-0.588 -1.3,-1.175c-0.783,-1.779 -1.108,-3.729 -0.646,-5.546c0.809,-3.213 0.109,-5.113 -2.816,-6.333c-2.196,-0.95 -3.838,-2.742 -4.109,-5.742c-0.241,-2.104 -1.787,-3.554 -3.05,-5.054c-0.658,-0.729 -1.379,-1.354 -2.037,-2.121c-0.525,-0.613 -0.125,-1.9 0.608,-2.054c0.446,-0.104 0.95,-0.175 1.396,-0.154c1.012,0.075 2.104,0.929 3.083,-0.046c0.775,-0.738 0.271,-1.959 0.521,-2.904c0.254,-0.955 0.746,-1.605 1.55,-1.717c1.267,-0.158 2.325,-0.854 3.417,-1.45c0.537,-0.292 1.3,-0.554 1.791,-0.342c3.217,1.334 6.855,-0.212 9.938,1.688c0.112,0.1 0.317,0.058 0.442,0.071c0.925,0.137 1.825,-1.05 1.504,-2.038c-0.209,-0.621 -0.446,-1.379 -0.854,-1.754c-2.28,-2.163 -4.034,-4.725 -5.25,-7.754c-0.367,-0.925 -1.059,-1.675 -1.596,-2.509c-1.413,-2.066 -3.2,-3.287 -5.613,-2.858c-1.575,0.296 -3.054,-0.067 -4.512,-0.662c-1.267,-0.555 -2.484,-0.421 -3.413,0.695c-1.675,2.075 -3.875,2.634 -6.141,3.167c-1.767,0.392 -3.805,0.433 -4.409,3.092c-0.204,0.854 -1.183,1.054 -1.946,0.7c-0.741,-0.3 -1.433,-0.729 -2.087,-1.146c-0.929,-0.65 -1.008,-1.767 -0.238,-2.621c0.33,-0.329 0.775,-0.521 1.096,-0.887c0.329,-0.334 0.692,-0.734 0.867,-1.15c0.729,-2.267 -1.633,-6.913 -3.783,-7.409c-0.625,-0.125 -1.275,-0.096 -1.88,-0.062c-1.254,0.012 -1.945,-0.763 -2.483,-1.946c-0.412,-0.921 -0.646,-2.142 -1.296,-2.663c-2.404,-1.845 -1.925,-4.079 -0.904,-6.358c0.742,-1.604 1.058,-3.117 0.742,-4.917c-0.329,-1.741 0.187,-3.404 1.046,-4.887c0.525,-0.854 0.966,-1.746 1.341,-2.679c1.346,-3.371 2.246,-3.496 4.284,-0.509c0.441,0.68 0.808,1.471 1.254,2.171c0.362,0.588 0.854,0.979 1.55,0.721c0.65,-0.229 1.021,-0.817 0.933,-1.579c-0.079,-1.017 -0.279,-2.025 -0.442,-3.067c-0.158,-1.112 0.113,-2.037 1.013,-2.629c1.217,-0.804 2.233,-1.846 3.017,-3.154c0.512,-0.892 1.304,-1.479 2.15,-1.867c1.75,-0.796 3.258,-1.954 4.479,-3.575c1.091,-1.458 2.562,-1.766 4.179,-1.412c0.787,0.175 1.721,0.612 2.242,0.275c3.512,-2.175 6.558,0.941 9.808,1c0.646,-0 1.308,0.875 1.875,1.433c1.025,1.017 1.996,2.129 3.021,3.2c0.316,0.308 0.766,0.971 1.012,0.913c2.554,-0.738 3.871,1.612 5.709,2.687c1.17,0.696 2.437,0.65 3.445,-0.421c2.325,-2.366 4.875,-3.437 8.055,-2.591c0.695,0.166 1.5,-0.234 2.287,-0.355c1.946,-0.379 3.671,-0.15 4.763,2.055c0.729,1.587 2.195,1.654 3.541,2.108c1.346,0.504 2.359,0.221 3.363,-0.842c0.987,-1.046 1.975,-0.246 3.016,0.046c2.992,0.796 5.138,-0.929 5.584,-4.333c0.121,-0.75 -0.117,-1.413 -0.696,-1.746c-1.367,-0.783 -2.75,-1.479 -4.146,-2.263c-1.671,-0.966 -3.129,-2.291 -3.825,-4.283c-0.804,-2.242 -2.196,-3.037 -4.267,-3.2c-2.312,-0.183 -2.487,-0.512 -3.008,-3.05c-0.217,-1.183 -0.296,-2.404 -0.646,-3.517c-1.233,-3.654 -0.333,-6.754 1.738,-9.629c1.175,-1.604 2.45,-3.104 2.937,-5.191c0.071,-0.317 0.163,-0.68 0.192,-1.021c0.129,-0.663 0.287,-1.404 -0.238,-1.929c-0.537,-0.509 -1.183,-0.238 -1.716,0.15c-0.65,0.441 -1.221,1.02 -1.825,1.537c-2.167,1.733 -5.371,1.733 -7.209,-0.25c-1.783,-1.983 -2.879,-4.475 -3.037,-7.325c-0.138,-1.562 1.367,-3.008 2.704,-2.675c0.904,0.225 1.721,0.775 2.617,1.113c2.883,1.05 4.875,-0.33 5.287,-3.655c0.075,-0.683 0.075,-1.387 0,-2.07c-0.087,-1.38 -0.783,-2.271 -1.946,-2.471c-0.95,-0.129 -1.879,-0.071 -2.775,-0.229c-2.558,-0.392 -3.862,-1.671 -4.362,-4.534c-0.433,-2.575 -0.354,-5.146 0.421,-7.65c1.341,-4.229 2.596,-8.529 6.021,-11.358c0.112,-0.088 0.241,-0.225 0.316,-0.371c3.875,-4.821 3.988,-8.317 0.175,-13.121c-1.516,-1.9 -2.529,-3.712 -2.246,-6.446c0.159,-1.65 0.317,-2.97 1.5,-4.087c0.7,-0.679 1.267,-1.492 1.834,-2.3c1.962,-2.854 2.516,-5.846 0.729,-9.075c-0.413,-0.754 -0.775,-1.525 -1.017,-2.338c-0.404,-1.408 -0.404,-2.766 0.984,-3.575c1.216,-0.679 1.266,-1.837 1.091,-3.07c-0.191,-1.367 -0.487,-2.705 -0.729,-4.055c-0.362,-2.208 -0.646,-4.42 -0.158,-6.65c0.271,-1.195 0.271,-2.475 -0.329,-3.495c-1.013,-1.675 -0.767,-3.317 -0.088,-4.934c1.225,-2.883 1.879,-5.796 0.946,-8.983c-0.413,-1.379 0.171,-2.7 0.612,-3.988c1.375,-3.825 2.692,-7.637 2.475,-11.92c-0.112,-2.059 0.975,-3.434 2.809,-3.388c3.341,0.104 5.096,-1.967 6.475,-4.854c0.85,-1.883 2.162,-3.329 3.654,-4.583c1.342,-1.13 2.65,-2.367 3.912,-3.621c1.996,-1.946 3.621,-4.109 4.43,-7.071c0.804,-3.096 2.687,-5.421 5.325,-6.75c2.529,-1.283 4.525,-2.925 5.329,-6.054c0.175,-0.759 0.821,-1.45 1.437,-1.942c1.829,-1.55 2.163,-3.642 1.992,-5.987c-0.088,-1.321 -0.646,-2.109 -1.796,-2.7c-3.692,-1.925 -4.342,-3.334 -2.929,-7.609c0.867,-2.466 0.904,-4.541 -0.442,-6.783c-1.704,-2.917 -1.387,-6.242 -1.008,-9.508c0.108,-0.888 1.042,-1.375 1.825,-0.921c1.346,0.816 2.646,1.708 3.987,2.591c0.363,0.288 0.642,0.763 1.017,1.038c4.721,3.271 9.108,6.921 12.888,11.504c1.558,1.892 2.412,1.492 3.22,-1.05c0.442,-1.446 0.809,-2.958 1.138,-4.437c0.158,-0.721 0.046,-1.471 -0.492,-1.905c-2.525,-2.15 -3.2,-5.362 -4.237,-8.412c-0.888,-2.746 -2.592,-4.171 -5.238,-3.842c-1.025,0.125 -1.558,-0.383 -1.516,-1.325c0.175,-2.658 -0.567,-5.55 1.562,-7.758c0.367,-0.388 0.367,-1.292 0.367,-1.946c-0.142,-2.779 0.279,-5.487 0.558,-8.237c0.25,-1.984 0.138,-2.109 -1.879,-2.484c-1.854,-0.366 -2.346,-0.879 -1.825,-2.566c0.412,-1.305 0.854,-2.455 0.504,-3.959c-0.379,-1.808 0.35,-3.3 1.742,-4.437c0.962,-0.817 1.946,-1.671 2.846,-2.596c2.595,-2.629 4.241,-5.888 4.966,-9.7c0.738,-4.054 1.659,-8.063 2.313,-12.125c0.375,-2.429 1.341,-4.533 2.325,-6.708c0.579,-1.388 1.637,-2.13 3.016,-1.684c2.559,0.779 5.2,0.625 7.813,0.609c1.596,-0 3.004,0.4 4.475,1.066c2.692,1.234 3.862,3.167 4.237,6.571c0.696,6.683 -0.979,12.629 -3.62,18.317c-0.95,2.066 -0.905,3.587 0.316,5.141c4.688,6.121 4.804,13.038 2.929,20.309c-0.237,1.037 -0.32,2 -0.162,3.054c0.762,4.421 0.854,8.846 0.362,13.329c-0.154,1.346 -0.033,2.733 -0.112,4.113c-0.158,2.537 0.4,4.775 2.108,6.545c0.334,0.38 0.617,0.784 0.938,1.159c1.716,1.9 2.196,4.229 1.137,6.604c-1.137,2.6 -1.408,5.204 -1.337,7.996c0.041,1.754 -0.45,3.304 -1.417,4.771c-1.792,2.766 -3.575,5.579 -4.729,8.762c-0.329,0.863 -0.775,1.488 -1.488,1.888c-0.745,0.42 -1.233,1.087 -1.12,2.05c0.17,1.912 -1.063,2.708 -2.196,3.595c-1.5,1.134 -3.004,1.913 -4.592,0.234c-0.408,-0.392 -0.9,-0.359 -1.137,0.204c-0.292,0.646 -0.292,1.367 0.112,1.954c0.488,0.775 1.304,1.042 2.038,0.854c2.37,-0.533 4.6,-0.183 6.85,0.709c1.566,0.608 2.312,0.208 2.704,-1.646c0.425,-1.871 1.387,-2.992 2.641,-4.017c0.917,-0.729 1.725,-1.479 2.625,-2.196c1.667,-1.383 2.842,-3.2 3.084,-5.521c0.25,-2.379 1.179,-4.258 2.641,-5.875c2.825,-3.054 3.105,-6.579 1.546,-10.383c-0.737,-1.925 -1.341,-3.804 -1.129,-5.967c0.208,-2.27 0.967,-3.887 2.8,-4.975c3.45,-2.075 7.071,-3.341 11.058,-3.141c0.184,1.171 -0.02,2.683 0.538,3.458c2.15,2.863 3.254,6 3.221,9.738c-0,0.475 0.475,0.887 1.012,0.637c1.388,-0.617 2.271,-1.858 2.034,-3.025c-0.538,-2.325 -1.059,-4.596 -1.755,-6.871c-0.2,-0.766 -0.816,-1.45 -1.341,-1.987c-1.042,-0.971 -2.313,-1.629 -3.704,-1.921Zm4.612,21.683c-0.25,-0.954 -0.487,-1.912 -0.775,-2.879c-0.125,-0.367 -0.45,-0.504 -0.612,-0.271c-0.159,0.263 -0.209,0.634 -0.159,0.934c0.042,1.175 0.729,1.766 1.592,2.2c0.562,0.983 1.012,2.108 2.062,2.546c0.692,0.299 1.721,0.537 2.084,-0.142c0.646,-1.188 -0.571,-1.175 -1.138,-1.396c-0.991,-0.438 -2.037,-0.662 -3.054,-0.992Zm-239.054,373.879c1.217,-1.866 1.217,-3.55 1.342,-5.141c0.025,-0.517 -0.33,-0.979 -0.821,-1.029c-0.479,-0.067 -0.809,0.312 -0.975,0.82c-0.084,0.317 -0.146,0.663 -0.125,0.98c0.154,1.266 0.325,2.533 0.579,4.37Zm580.608,-438.108c-0.162,-0.246 -0.241,-0.587 -0.446,-0.721c-0.762,-0.575 -1.5,-1.108 -2.325,-1.595c-0.362,-0.234 -0.9,-0.284 -1.125,0.27c-0.091,0.217 0,0.659 0.159,0.892c0.696,1.079 1.412,2.163 2.846,2.038c0.441,-0.034 0.808,-0.296 0.891,-0.884Z" style="fill:#fff;"/><path d="M720.167,1125.62c-2.55,-0.817 -4.509,-0.375 -6.504,0.729c-1.8,1.025 -2.242,0.816 -3.43,-1.084c-0.854,-1.375 -1.741,-2.262 -3.291,-2.47c-0.896,-0.1 -1.75,-0.5 -2.592,-0.884c-1.229,-0.516 -2.354,-0.516 -3.629,-0.083c-1.304,0.463 -2.679,0.729 -4.038,1.008c-0.762,0.163 -1.579,0.071 -2.066,-0.704c-1.175,-1.779 -2.8,-1.95 -4.559,-1.842c-0.604,0.042 -1.221,-0.058 -1.833,-0.15c-1.138,-0.183 -2.025,-0.841 -2.433,-2.083c-0.563,-1.762 -1.305,-3.533 -1.55,-5.362c-0.375,-3.042 -1.346,-5.48 -3.338,-7.713c-2.721,-3.05 -3.179,-10.362 -1.217,-14.05c1.092,-2.108 2.025,-2.471 4.155,-1.742c0.854,0.292 1.741,0.659 2.641,0.817c2.596,0.479 3.546,1.388 4.842,-2.8c0.975,-3.071 2.971,-4.742 5.862,-5.021c2.275,-0.275 3.984,-1.483 5.284,-3.596c0.696,-1.116 1.829,-1.962 2.441,-3.108c1.713,-3.179 4.355,-4.746 7.409,-5.604c0.933,-0.279 1.629,-0.663 2.279,-1.492c1.583,-2.108 3.383,-3.996 4.587,-6.379c0.538,-1.033 1.342,-1.912 2.134,-2.742c0.937,-1.012 2.321,-1.22 3.408,-0.462c0.65,0.408 1.467,0.846 1.825,1.525c1.958,3.621 5.167,5.242 8.346,7.058c0.254,0.146 0.492,0.363 0.696,0.617c0.487,0.608 0.537,1.337 -0.05,1.796c-1.546,1.308 -3.654,1.825 -4.3,4.304c-0.129,0.433 -1.071,0.637 -1.634,0.796c-1.058,0.35 -1.595,0.996 -1.5,2.241c0.113,1.48 -1.791,1.905 -1.466,3.559c0.237,1.404 1.041,2.462 1.691,3.646c0.255,0.425 0.584,0.854 0.65,1.333c0.33,3.333 2.125,5.546 4.363,7.504c0.362,0.292 0.646,0.783 0.742,1.267c0.066,0.433 -0.092,1.058 -0.33,1.35c-0.275,0.366 -0.808,0.587 -1.22,0.587c-3.509,-0.062 -4.925,2.375 -5.459,5.759c-0.571,3.52 -1.946,6.483 -4.721,8.512c-1.187,0.875 -1.504,2.046 -1.099,3.579c0.254,0.788 0.533,1.8 0.254,2.488c-1.05,2.687 -1.38,5.55 -1.35,8.896Z" style="fill:#fff;"/><path d="M661.012,1116.53c-0.158,-1.912 -1.925,-2.004 -2.804,-3.071c-0.329,-0.412 -0.421,-0.937 -0.166,-1.429c0.975,-1.65 3.508,-1.9 4.362,-0.329c0.996,1.9 1.65,4.008 3.2,5.604c0.9,0.95 0.488,2.142 -0.967,2.55c-1.266,0.4 -1.787,1.121 -2.12,2.383c-0.742,2.867 -0.696,5.78 -0.742,8.696c-0.021,7.096 -0.108,6.046 -6.021,6.375c-1.321,0.1 -2.392,-0.308 -3.337,-1.316c-2.704,-3.075 -5.817,-5.609 -8.95,-8.121c-0.488,-0.421 -1.046,-0.834 -1.384,-1.375c-1.858,-3.213 -4.479,-5.684 -6.741,-8.475c-1.142,-1.434 -1.996,-2.959 -2.563,-4.817c-1.342,-4.237 -3.096,-8.275 -6.15,-11.354c-2.025,-2.071 -3.212,-4.575 -4.067,-7.342c-1.012,-3.221 -2.645,-5.854 -5.487,-7.266c-1.071,-0.525 -1.675,-1.475 -2.246,-2.505c-1.671,-2.958 -3.571,-5.475 -6.304,-7.4c-2.075,-1.441 -3.671,-3.658 -5.413,-5.591c-0.787,-0.867 -1.266,-1.95 -1.437,-3.192c-0.158,-1.287 0.904,-2.742 1.879,-2.204c3.292,1.692 6.838,1.946 10.333,2.333c1.463,0.134 2.53,1.254 3.296,2.596c1.996,3.608 4.679,6.308 8.063,8.333c1.183,0.717 2.325,1.78 3.087,3.025c1.879,3.005 4.592,4.446 7.567,5.496c1.187,0.396 2.437,0.375 2.858,2.071c0.163,0.729 0.971,0.658 1.496,1.013c2.192,1.354 4.504,2.675 5.575,5.441c0.275,0.684 0.7,1.084 1.346,1.279c1.879,0.5 2.404,1.913 2.083,3.896c-0.046,0.175 -0.087,0.35 -0.137,0.513c-0.934,3.3 -0.067,4.541 2.575,5.408c1.137,0.35 1.866,1.171 2.316,2.338c0.125,0.325 0.238,0.658 0.371,0.954c1.304,3.142 3.204,5.321 6.629,5.483Z" style="fill:#fff;"/><path d="M617.8,231.163c1.217,-1.026 0.887,-2.03 1.217,-2.771c0.762,-1.959 2.691,-2.638 4.191,-1.359c0.804,0.713 1.55,1.654 2.155,2.604c1.925,3.234 2.904,6.788 2.974,10.659c0.05,0.646 -0.112,1.371 -0.366,1.958c-1.138,2.692 -1.471,5.558 -1.375,8.546c0.033,1.963 -0.204,3.833 -2.529,4.154c-0.488,0.071 -0.613,0.767 -0.367,1.263c0.254,0.612 0.65,1.129 0.937,1.737c0.526,1.059 1.105,2.088 1.426,3.213c1.67,5.645 -2.313,10.933 -7.609,10.079c-1.216,-0.213 -2.608,-0.434 -3.508,-1.184c-2.967,-2.524 -6.371,-4.179 -9.484,-6.412c-0.508,-0.362 -1.137,-0.7 -1.458,-1.204c-0.804,-1.3 -1.629,-1.317 -2.717,-0.442c-0.904,0.683 -1.825,0.454 -2.454,-0.454c-1.896,-2.879 -4.033,-5.538 -3.937,-9.596c0.05,-3.304 -0.9,-4.158 -3.75,-4.791c-0.608,-0.13 -1.254,-0.03 -1.825,-0.234c-0.817,-0.191 -1.421,-2.004 -0.817,-2.533c2.458,-2.171 3.471,-5.663 5.954,-7.771c0.809,-0.696 1.205,-1.571 0.979,-2.688c-0.583,-2.537 0.521,-4.42 2.105,-5.866c2.404,-2.142 4.887,-4.254 8.3,-3.55c1.758,0.35 3.295,-0.538 4.891,-1.288c3.334,-1.654 5.654,-0.433 6.513,3.492c0.271,1.283 0.3,2.625 0.554,4.438Z" style="fill:#fff;"/><path d="M816.933,1115.76c-1.179,-0.662 -2.321,0.225 -3.458,0.28c-2.429,0.091 -4.633,-0.192 -6.025,-2.838c-0.692,-1.275 -1.696,-1.938 -3.038,-1.958c-1.137,-0.046 -2.083,-0.534 -2.845,-1.525c-0.65,-0.854 -0.538,-2.067 0.441,-2.521c2.242,-1.1 4.517,-2.133 6.788,-3.2c1.025,-0.492 2.125,-0.667 3.175,-0.458c2.621,0.499 4.933,1.962 7.279,3.166c1.158,0.584 1.508,2.129 1.604,3.546c0,1.008 -0.217,2.046 -0.217,3.054c-0.049,1.079 0.217,2.259 0.975,2.817c1.63,1.171 2.575,2.912 3.717,4.546c1.013,1.4 2.404,1.458 3.608,0.183c0.821,-0.787 1.517,-1.737 2.242,-2.621c1.221,-1.525 2.367,-3.166 4.4,-3.596c0.938,-0.208 1.592,-0.991 2.159,-1.833c1.904,-2.833 4.229,-3.075 6.866,-1.308c1.058,0.675 2.325,0.975 3.434,1.662c2.433,1.546 4.916,2.767 7.808,2.696c0.604,-0.033 1.208,0.292 1.787,0.521c1.1,0.425 1.88,1.154 1.905,2.6c0.037,0.666 0.204,1.362 0.204,2.05c0.204,9.6 0.325,19.216 0.533,28.833c0.046,2.058 0.25,4.109 0.329,6.158c0.038,0.684 -0.046,1.392 -0.737,1.73c-0.654,0.32 -1.217,0.075 -1.7,-0.4c-1.067,-0.955 -2.121,-1.996 -3.104,-3.084c-1.171,-1.308 -2.517,-1.82 -4.18,-1.379c-1.962,0.492 -3.954,0.867 -5.95,1.234c-0.729,0.112 -1.512,0.045 -2.275,-0.017c-0.975,-0.092 -1.5,-1.217 -1.233,-2.325c0.492,-1.917 1.596,-3.367 3.133,-4.254c1.23,-0.704 1.28,-1.617 1.105,-2.938c-0.805,-5.921 -3.255,-10.283 -8.775,-11.875c-3.425,-0.991 -6.655,-2.666 -10.18,-3.437c-2.445,-0.55 -4.729,-2.354 -6.991,-3.771c-1.138,-0.671 -1.996,-0.604 -2.892,0.358c-0.442,0.471 -1.025,0.829 -1.558,1.059c-0.813,0.316 -1.696,0.02 -2.017,-0.788c-0.854,-2.437 -1.996,-4.612 -3.958,-6.192c-0.513,-0.4 -0.284,-1.512 0.329,-1.662c2.079,-0.525 4.192,-1.013 6.296,-1.525c0.458,-0.104 0.933,-0.171 1.016,-0.988Z" style="fill:#fff;"/><path d="M851.004,378.408c-0.121,0.121 -0.292,0.171 -0.375,0.296c-0.937,1.442 -0.904,4.167 -3.129,3.879c-2.567,-0.329 -5.429,-0.829 -6.55,-3.97c-0.779,-2.017 -1.754,-3.563 -3.383,-4.717c-1.663,-1.184 -2.4,-3.071 -2.813,-5.167c-0.112,-0.683 -0.204,-1.475 0.329,-1.925c1.342,-1.171 1.342,-2.55 0.817,-4.146c-0.775,-2.266 -0.325,-4.458 0.937,-6.287c0.692,-1.008 0.692,-1.763 0.4,-2.825c-0.316,-1.046 -0.195,-2.192 0.742,-2.696c1.992,-1.104 3.496,-2.788 5.079,-4.429c0.409,-0.442 1.009,-0.763 1.546,-1.034c0.809,-0.433 1.596,-0.25 2.088,0.538c2.154,3.583 4.921,6.487 7.854,9.287c0.767,0.755 0.646,1.863 0.892,2.85c0.158,0.513 0.608,0.867 1.054,0.605c0.379,-0.171 0.854,-0.684 0.854,-1.034c0.041,-1.541 -0.121,-3.087 -0.121,-4.633c-0.038,-3.608 0.612,-4.513 3.792,-5.296c0.854,-0.225 1.5,-0.058 2.062,0.629c0.946,1.138 1.925,2.229 2.858,3.388c1.217,1.525 2.609,2.437 4.475,1.741c2.355,-0.875 4.096,-0.158 5.742,1.95c1.179,1.5 2.846,2.571 4.267,3.846c0.737,0.613 1.5,1.259 2.146,2.004c0.587,0.663 0.82,1.584 -0.105,2.134c-1.925,1.021 -2.645,2.546 -2.525,4.941c0.159,2.263 -1.233,3.796 -2.641,5.18c-1.346,1.245 -2.784,1.279 -4.363,0.741c-1.304,-0.441 -1.621,0.296 -1.416,1.65c0.162,1.021 -0.455,1.642 -1.317,1.746c-1.321,0.096 -2.713,-0.05 -4.008,0.667c-0.788,0.433 -1.55,-0.134 -2.088,-0.729c-1.629,-1.913 -3.412,-1.267 -5.121,-0.363c-1.096,0.521 -2.108,1.388 -3.221,2.038c-2.208,1.229 -2.45,1.154 -4.758,-0.859Zm13.883,-25.016c-0.345,0.066 -0.541,0.279 -0.425,0.658c0.242,1.146 0.646,2.196 1.671,2.729c0.113,0.071 0.321,0.071 0.446,0.038c0.088,-0.075 0.25,-0.23 0.25,-0.367c-0.092,-1.092 -1.183,-2.825 -1.942,-3.058Zm0.559,12.15c-0.209,1.866 0.158,3.216 0.854,4.462c0.079,0.1 0.283,0.171 0.408,0.146c0.125,-0.046 0.334,-0.208 0.334,-0.308c-0.046,-1.513 -0.338,-2.888 -1.596,-4.3Z" style="fill:#fff;"/><path d="M823.004,874.413c0.088,-0.151 0.158,-0.296 0.238,-0.446c0.295,-0.592 0.695,-1.205 0.366,-1.888c-0.316,-0.696 -0.966,-0.662 -1.583,-0.512c-1.913,0.512 -3.863,0.941 -5.738,1.608c-2.325,0.783 -4.85,0.946 -6.7,2.992c-0.587,0.571 -1.395,0.512 -2.179,0.504c-1.521,-0.05 -3.037,-0.025 -4.591,-0.05c-0.113,-0.104 -0.242,-0.229 -0.367,-0.329c-0.35,-1.229 -0.438,-2.438 0.746,-3.2c3.121,-1.938 5.9,-4.338 8.379,-7.229c1.1,-1.355 2.517,-1.913 4.158,-1.88c2.471,0.063 4.909,-0.216 7.325,-0.875c1.5,-0.412 3.005,-0.379 4.542,0.146c1.967,0.634 2.971,0 3.471,-2.166c0.4,-1.913 1.179,-3.496 2.346,-4.909c0.946,-1.171 1.433,-2.621 1.796,-4.108c0.195,-0.796 0.65,-1.563 1.137,-2.204c0.246,-0.313 0.821,-0.504 1.221,-0.425c0.525,0.087 0.612,0.679 0.454,1.204c-0.092,0.329 -0.254,0.646 -0.375,0.933c-0.254,0.65 -0.479,1.392 -0.046,1.938c0.738,0.891 1.384,0.058 2.083,-0.25c3.038,-1.45 5.121,-4.134 7.401,-6.73c2.933,-3.362 4.395,-7.333 5.816,-11.512c0.363,-1.129 0.696,-2.346 0.317,-3.533c-1.096,-3.554 0.296,-6.684 1.275,-9.863c0.492,-1.554 0.937,-1.616 2.883,-1.158c1.217,0.283 1.217,0.283 1.146,-1.458c-0.05,-0.55 -0.137,-1.084 0.279,-1.438c0.525,-0.45 1.129,-0.329 1.709,-0.071c0.983,0.471 1.383,1.392 1.425,2.463c0.045,2.508 0.854,4.671 1.866,6.833c0.4,0.938 0.65,1.925 0.979,2.913c0.855,2.554 0.855,5.045 -0.533,7.379c-1.3,2.266 -1.662,5.191 -3.9,6.875c-0.825,0.562 -1.025,1.833 -0.787,2.825c0.858,3.55 0.141,6.762 -1.334,9.908c-0.562,1.229 -0.721,2.667 -0.358,4.054c0.604,2.463 -0.496,4.325 -1.754,6.117c-1.229,1.692 -1.788,1.808 -3.913,0.862c-1.696,-0.795 -1.791,-0.775 -2.879,1.13c-0.412,0.704 -0.904,2.116 -1.437,1.591c-1.9,-1.966 -3.009,0.196 -4.475,0.663c-1.788,0.571 -3.659,0.5 -5.488,0.033c-0.692,-0.171 -1.454,-1.058 -2.108,-0.254c-0.284,0.367 -0,1.321 -0.121,1.975c-0.088,0.442 -0.367,1.025 -0.696,1.242c-1.383,0.954 -2.104,2.504 -3.046,3.85c-1.541,2.108 -3.558,1.983 -5.012,-0.234c-0.363,-0.554 -0.692,-1.183 -0.888,-1.808c-0.525,-1.775 -1.796,-1.592 -3.05,-1.508Z" style="fill:#fff;"/><path d="M602.617,178.7c1.379,-0.029 2.283,0.892 3.025,2.025c1.5,2.442 2.479,5.146 3.2,7.962c0.82,3.105 2.325,5.567 4.771,7.38c0.354,0.27 0.774,0.52 1.091,0.9c0.45,0.475 0.904,0.95 1.234,1.504c1.045,2.091 1.045,4.129 -1.071,5.212c-0.4,0.255 -0.809,0.525 -1.217,0.721c-1.3,0.604 -1.833,1.808 -1.746,3.288c0.046,1.358 0.242,2.708 0.529,4.054c0.213,1.183 0.609,2.3 0.863,3.462c0.554,3.104 -0.584,4.888 -3.388,5.521c-0.325,0.071 -0.608,0.125 -0.933,0.092c-3.742,-0.263 -6.854,1.65 -9.896,3.754c-1.437,1.025 -2.846,2.042 -4.237,3.112c-1.467,1.092 -2.88,0.996 -4.313,-0.062c-1.95,-1.396 -3.871,-2.821 -5.729,-4.321c-0.613,-0.471 -1.263,-1.108 -1.55,-1.825c-0.483,-1.304 -1.229,-2.242 -2.275,-3.062c-1.346,-1.092 -1.438,-1.946 -0.742,-3.555c1.025,-2.162 2.163,-4.337 4.363,-5.104c3.246,-1.104 3.291,-4.137 3.666,-6.975c0.067,-0.608 -0.17,-1.562 -0.533,-1.85c-2.487,-1.866 -1.587,-4.071 -0.821,-6.375c1.267,-3.625 3.221,-6.187 6.796,-6.908c1.879,-0.4 3.496,-1.438 5.009,-2.633c1.254,-1.046 2.27,-2.105 1.758,-4.292c-0.254,-1.133 0.933,-2.025 2.146,-2.025Z" style="fill:#fff;"/><path d="M644.537,259.496c0.48,-0.163 0.646,-0.163 0.742,-0.263c0.717,-0.658 0.513,-2.279 1.521,-2.404c0.983,-0.096 2.087,0.363 3.113,0.733c0.35,0.146 0.875,0.625 0.925,1.013c0.279,2.838 3.016,4.167 3.379,6.979c0.17,1.379 1.341,2.233 2.391,3.033c1.834,1.388 2.459,3.401 2.459,5.784c-0,3.062 0.27,6.196 -1.475,8.933c-0.646,0.984 -1.259,1.946 -2.346,2.325c-3.542,1.125 -7.046,2.321 -10.588,3.421c-0.558,0.158 -1.254,0.221 -1.833,0.05c-1.829,-0.575 -3.658,0.108 -5.488,0.067c-1.67,-0.067 -2.97,0.683 -3.937,2.166c-1.346,2.004 -3.3,3.113 -5.054,4.496c-1.629,1.338 -3.292,0.517 -3.9,-1.662c-0.488,-1.759 -0.329,-3.496 0.354,-5.042c2.292,-5.1 3.146,-10.7 4.979,-15.963c1.133,-3.325 2.025,-6.641 2.925,-10.041c0.921,-3.558 2.729,-6.867 4.138,-10.296c0.37,-0.808 0.937,-0.783 1.462,-0.196c0.488,0.559 0.9,0.992 1.229,-0.137c0.046,-0.146 0.046,-0.33 0.08,-0.475c0.729,-2.459 1.383,-3.188 2.566,-2.88c1.879,0.492 3.492,2.45 3.425,4.28c-0.092,1.037 -0.366,2.037 -0.537,3.045c-0.167,0.95 -0.375,1.913 -0.53,3.034Z" style="fill:#fff;"/><path d="M756.1,1108.99c-0.775,1.091 -1.596,2.104 -2.729,2.737c-1.079,0.617 -2.4,0.758 -3.242,1.904c0.079,1.559 1.25,2.292 1.992,3.371c1.096,1.633 2.183,3.225 2.075,5.513c-0.083,2.062 1.437,3.425 2.642,4.629c2.037,2.067 1.879,4.558 1.458,7.142c-0.113,0.866 -0.667,1.508 -1.488,1.754c-0.854,0.329 -1.504,-0.159 -2.037,-0.813c-0.413,-0.458 -0.904,-1.016 -1.017,-1.646c-0.412,-1.645 -1.296,-2.141 -2.729,-2.141c-1.046,-0 -1.742,-0.754 -1.95,-1.846c-0.329,-1.913 -1.025,-3.55 -2.113,-5.05c-0.97,-1.267 -0.745,-2.942 -1.016,-4.425c-0.092,-0.533 -0.329,-1 -0.854,-1.096c-0.692,-0.121 -1.184,0.254 -1.559,0.821c-0.558,0.954 -0.316,2.004 -0.275,3.037c0.209,3.6 0.255,7.209 -0.162,10.8c-0.279,2.192 -1.092,3.059 -2.963,2.992c-2.041,-0.1 -3.066,-1.375 -2.85,-3.692c0.113,-1.704 0.413,-3.391 0.475,-5.104c0.121,-1.983 -0.27,-3.516 -1.904,-4.891c-1.958,-1.617 -2.241,-3.5 -1.104,-5.913c1.104,-2.292 1.546,-4.792 2.246,-7.204c1.046,-3.729 2.479,-7.292 2.925,-11.229c0.067,-0.604 0.396,-1.446 0.854,-1.75c2.596,-1.671 4.837,-4.354 8.342,-3.375c3.291,0.887 6.629,1.446 10.033,1.683c2.621,0.171 4.85,-0.362 6.683,-2.642c0.613,-0.741 1.421,-1.287 2.238,-1.775c0.321,-0.175 0.971,-0.041 1.258,0.225c0.321,0.275 0.579,0.925 0.533,1.321c-0.441,3.167 -3.733,6.729 -6.591,7.079c-1.217,0.175 -2.479,0.23 -3.65,-0.066c-4.775,-1.254 -9.538,-0.521 -14.259,-0.296c-2.758,0.125 -4.52,3.587 -3.366,6.362c0.675,1.609 1.95,2.621 3.291,3.509c0.559,0.362 1.255,0.221 1.746,-0.225c3.125,-2.988 7.25,-2.463 10.817,-3.929c0.125,-0.059 0.329,-0.009 0.442,-0c0.67,0.145 1.233,0.495 1.325,1.216c0.041,0.434 -0.259,1.063 -0.588,1.263c-0.762,0.516 -1.662,0.841 -2.529,1.246c-0.108,0.183 -0.267,0.362 -0.4,0.504Z" style="fill:#fff;"/><path d="M883.104,793.729c0.158,0.271 0.442,0.571 0.413,0.833c-0.296,2.355 -0.13,4.421 1.979,5.796c0.612,0.4 0.412,1.25 -0.067,1.742c-1.425,1.45 -3.133,2.438 -5.008,2.417c-3.896,-0.084 -5.913,2.325 -7.209,5.979c-0.158,0.491 -0.35,0.983 -0.604,1.362c-0.441,0.617 -1.075,0.796 -1.671,0.467c-1.662,-0.892 -3.291,-1.8 -4.954,-2.746c-1.562,-0.921 -3.133,-1.358 -4.896,-0.658c-0.275,0.116 -0.608,0.116 -0.9,0.241c-1.045,0.455 -2.666,-1.129 -3.158,0.78c-0.375,1.35 1.254,1.704 1.904,2.583c0.609,0.796 0.488,1.55 -0.329,2.121c-0.721,0.571 -1.546,1.112 -2.312,1.65c-1.505,0.991 -2.33,0.629 -2.646,-1.209c-0.042,-0.341 -0.088,-0.67 -0.088,-1.008c-0.033,-1.892 -1.204,-3.6 -0.766,-5.55c0.525,-2.367 2.562,-3.817 3.125,-6.225c0.166,-0.637 0.975,-0.912 1.604,-0.775c2.466,0.683 3.362,-0.767 3.654,-3.204c0.079,-0.817 0.487,-1.625 0.733,-2.425c0.896,-2.983 1.5,-5.942 0.85,-9.1c-0.158,-0.663 -0.158,-1.342 -0.121,-2.038c0.08,-1.537 1.58,-2.4 2.717,-1.537c0.5,0.379 0.988,0.808 1.388,1.342c0.629,0.766 1.108,1.65 1.675,2.45c2.354,3.291 5.12,5.825 8.758,7.325c1.746,0.729 3.167,1.195 4.658,-0.325c0.334,-0.342 0.779,-0.571 1.271,-0.288Z" style="fill:#fff;"/><path d="M658.933,1143.48c1.221,-1.729 2.029,-2.941 2.884,-4.162c0.587,-0.829 1.391,-1.288 2.416,-1.3c4.509,-0.113 8.829,0.666 12.404,4.121c1.134,1.058 2.4,1.512 3.821,1.512c1.392,0 2.759,0.067 4.146,0.067c0.946,-0 1.95,-0.034 2.596,-0.829c1.392,-1.671 2.862,-1.692 4.617,-0.788c1.091,0.575 2.383,0.6 3.57,1.017c2.084,0.741 4.163,1.137 6.338,0.741c1.346,-0.225 2.775,-0.329 4.075,0.388c0.246,0.137 0.492,0.533 0.492,0.783c-0,0.309 -0.205,0.659 -0.413,0.867c-1.133,1.079 -2.642,0.75 -3.937,1.129c-0.217,0.092 -0.442,0.513 -0.421,0.754c-0,0.271 0.25,0.638 0.5,0.75c0.404,0.234 0.891,0.434 1.304,0.363c4.054,-0.692 7.279,2.466 11.15,2.816c0.767,0.067 1.304,0.888 1.304,1.855c0,0.766 -0.425,1.275 -0.937,1.72c-0.534,0.442 -1.15,0.559 -1.705,0.159c-1.137,-0.763 -2.212,-0.9 -3.508,-0.238c-1.346,0.667 -2.737,-0.025 -4.033,-0.454c-1.792,-0.596 -3.575,-0.733 -5.484,-0.733c-3.225,-0 -6.425,-0.488 -9.645,-0.863c-1.834,-0.254 -3.588,-1.004 -5.125,-2.158c-2.084,-1.508 -4.275,-2.033 -6.63,-1.421c-2.195,0.533 -4.279,0.321 -6.391,-0.45c-1.304,-0.458 -2.692,-0.708 -4.079,-0.958c-1.046,-0.171 -2.267,-0.304 -2.963,-1.196c-1.558,-1.896 -3.571,-2.559 -6.346,-3.492Z" style="fill:#fff;"/><path d="M746.142,1015.86c-2.892,-4.237 -5.421,-8.679 -6.43,-13.983c-0.195,-1.012 -0.195,-2.129 0.805,-2.629c1.391,-0.692 1.658,-1.913 1.704,-3.363c0.125,-1.875 0.258,-3.754 0.379,-5.625c0.071,-1.025 0.042,-2.083 0.242,-3.037c0.57,-2.863 1.704,-3.746 4.279,-3.384c1.5,0.226 2.958,0.842 4.546,0.626c1.229,-0.163 1.704,0.483 1.545,1.837c-0.241,1.917 -0.412,3.717 0.488,5.504c1.437,2.846 0.204,5.292 -1.096,7.638c-0.312,0.583 -0.942,0.937 -1.337,1.437c-1.834,2.163 -2.529,4.634 -1.505,7.542c0.396,1.104 0.696,2.25 1.184,3.321c0.229,0.666 0.879,1.146 1.504,0.608c1.85,-1.687 3.496,-1.446 5.375,0.092c1.696,1.408 3.775,1.183 5.817,0.729c0.654,-0.163 1.208,0.175 1.321,1.008c0.137,0.717 -0.225,1.275 -0.88,1.55c-0.291,0.125 -0.62,0.158 -0.912,0.229c-0.963,0.229 -1.213,0.888 -0.804,1.867c0.425,0.9 1.025,1.742 1.229,2.704c0.287,1.304 -0.329,1.95 -1.546,1.663l-0.283,-0.267c-0.454,-0.433 -0.854,-1.158 -1.342,-1.267c-1.462,-0.229 -3.337,0.271 -2.4,-2.6c-0.892,-0.896 -1.221,-3.616 -3.212,-1.271c-0.171,0.192 -0.95,0 -1.171,-0.279c-1.771,-1.966 -3.596,-2.171 -5.754,-0.829c-0.442,0.308 -1.18,0.1 -1.784,0.175l0.038,0l-0,0.004Z" style="fill:#fff;"/><path d="M763.175,1056.76c-0,-0.541 0.05,-1.029 -0,-1.55c-0.063,-1.008 -1.171,-2.05 -1.946,-1.708c-1.867,0.863 -3.746,1.317 -5.817,1.35c-1.129,0 -1.387,1.721 -2.241,2.404c-0.4,0.329 -0.875,0.434 -1.254,0.067c-0.209,-0.212 -0.363,-0.592 -0.413,-0.883c-0.033,-1.817 0.321,-3.659 1.55,-4.725c1.875,-1.675 4.079,-3.042 6.179,-4.38c0.892,-0.566 1.884,-0.112 2.529,0.721c0.938,1.267 1.742,0.779 2.801,0.092c1.67,-1.121 3.087,-2.783 5.083,-3.429c1.225,-0.354 1.179,-1.821 1.508,-2.996c0.254,-0.946 1.063,-1.217 1.754,-0.596c1.834,1.608 3.496,3.292 3.546,6.263c0.034,1.87 0.679,3.716 0.979,5.545c0.317,1.755 0.35,3.463 -0.454,5.038c-0.4,0.729 -0.821,1.712 -1.429,1.9c-0.921,0.292 -0.921,-1.017 -1.337,-1.675c-0.321,-0.613 -0.809,-1.204 -1.417,-0.667c-0.454,0.371 -0.9,1.142 -0.854,1.709c0.071,1.337 0.558,2.662 0.675,4.004c0.133,1.583 -1.004,2.562 -2.346,2.166c-0.742,-0.22 -1.458,-0.55 -2.2,-0.775c-3.988,-1.333 -5.1,-3.129 -4.896,-7.874Z" style="fill:#fff;"/><path d="M907.183,382.042c-3.495,-0.246 -6.421,-2.188 -9.346,-4.034c-0.816,-0.525 -1.474,-1.371 -2.287,-1.779c-1.833,-0.921 -2.879,-2.287 -3.337,-4.567c-0.492,-2.345 -1.663,-4.383 -2.925,-6.387c-0.417,-0.696 -0.855,-1.45 -0.746,-2.333c0.091,-0.584 0.7,-1.025 0.95,-0.729c2.654,2.92 6.012,2.958 9.396,3.25c0.933,0.083 1.791,0.562 2.325,1.483c0.525,0.933 1.262,1.512 2.275,1.454c3.908,-0.179 7.037,2.196 10.312,4.079c0.763,0.421 1.008,1.146 1.042,2.058c0.208,4.317 -2.438,6.388 -5.817,7.38c-0.575,0.162 -1.221,0.112 -1.842,0.125Z" style="fill:#fff;"/><path d="M1081.39,450.575c4.2,-0.421 6.588,1.413 8.926,3.908c2.67,2.85 2.67,5.18 -1.184,6.763c-3.017,1.171 -5.996,2.779 -9.358,1.462c-1.021,-0.375 -2.129,0.071 -3.109,0.75c-0.879,0.65 -1.895,1.084 -3.004,1.084c-2.771,0.079 -4.637,-3.009 -3.171,-5.667c2.65,-4.871 5.905,-8.892 10.9,-8.3Z" style="fill:#fff;"/><path d="M525.633,1055.69c-0.041,4.608 -2.858,8.062 -6.466,8.62c-1.925,0.288 -3.621,-0.729 -4.43,-2.895c-1.387,-3.596 -1.545,-7.342 -0.9,-11.138c0.442,-2.687 0.967,-5.346 1.413,-8.05c0.412,-2.208 1.342,-2.808 2.617,-1.354c3.408,3.788 6.22,8.063 7.595,13.283c0.171,0.663 0.13,1.359 0.171,1.534Z" style="fill:#fff;"/><path d="M856.083,412.408c-1.091,0.1 -2.162,0.263 -3.221,0.242c-0.35,-0 -0.762,-0.471 -1,-0.888c-0.249,-0.466 -0.087,-1.129 0.355,-1.299c2.529,-0.821 3.633,-3.001 4.4,-5.488c0.575,-1.825 1.27,-3.483 3.216,-4.054c2.163,-0.596 4.363,-0.971 6.217,0.508c3.471,2.709 6.354,6.034 6.812,11.104c0.192,2.442 -0.833,3.688 -2.941,3.359c-3.334,-0.534 -6.625,-1.479 -9.85,-2.742c-1.259,-0.504 -2.554,-1.167 -3.988,-0.742Z" style="fill:#fff;"/><path d="M802.813,876.617c0.454,0.466 0.854,1.275 1.341,1.354c2.279,0.317 2.733,2.458 3.588,4.216c0.841,1.746 0.35,3.313 -0.25,4.963c-0.563,1.575 -1.138,3.192 -1.571,4.812c-0.492,1.892 -1.642,3.28 -2.733,4.734c-1.426,1.825 -4.43,0.35 -4.734,-1.675c-0.166,-1.546 -0.212,-3.054 0.209,-4.592c0.808,-3.212 0.808,-3.271 -1.913,-4.658c-1.171,-0.592 -1.546,-1.604 -1.658,-2.838c-0.138,-0.887 0.033,-1.841 0.679,-2.333c2.154,-1.583 3.862,-3.988 6.675,-4.317c0.129,0.104 0.254,0.229 0.367,0.334Z" style="fill:#fff;"/><path d="M582.021,240.938c-0.438,-0.067 -0.875,-0.155 -1.3,-0.338c-0.604,-0.237 -1.133,-0.671 -1.096,-1.45c0.05,-0.558 0.558,-0.654 0.979,-0.854c1.788,-0.854 1.95,-1.238 0.717,-2.142c-1.533,-1.129 -2.013,-2.925 -2.909,-4.475c-0.666,-1.104 -0.537,-2.275 -0.429,-3.45c0.138,-1.446 0.746,-2.091 2.084,-2.15c0.608,-0.012 1.254,-0.091 1.837,0.15c2.729,1.067 5.488,2.092 8.088,3.504c2.316,1.221 2.5,3.034 1.175,5.459c-2.096,3.833 -5.067,5.829 -9.146,5.745Z" style="fill:#fff;"/><path d="M750.946,942.375c-0.534,3.154 -1.309,6.95 -2.575,10.629c-0.725,2.067 -1.629,4.029 -2.434,6.054c-0.533,1.204 -1.275,1.221 -2.166,0.196c-2.767,-3.233 -4.509,-8.425 -1.425,-13.504c0.9,-1.404 1.662,-2.879 2.521,-4.304c0.608,-0.992 1.383,-1.779 2.362,-2.367c1.908,-1.146 3.742,0.1 3.717,3.296Z" style="fill:#fff;"/><path d="M763.392,1041.34c-1.95,-1.43 -3.13,-0 -4.363,1.829c-0.937,1.471 -1.829,1.346 -3.037,0.162c-1.692,-1.662 -1.838,-3.42 -0.588,-5.475c0.588,-0.937 0.083,-1.596 -0.808,-1.896c-0.442,-0.141 -0.9,-0.225 -1.388,-0.27c-1.096,-0.109 -1.629,-0.817 -1.658,-2.013c-0.05,-1.708 -0.083,-3.425 -0.05,-5.146c0,-1.254 0.788,-1.812 1.912,-1.275c2.076,0.992 4.43,1.446 5.38,4.4c0.283,1.03 1.329,1.979 2.604,1.413c0.562,-0.242 0.925,-1.084 1.571,-0.75c0.916,0.383 0.82,1.379 0.741,2.187c-0.204,1.55 0.175,2.654 1.517,3.384c0.729,0.412 1.008,1.279 0.683,2.17c-0.408,1.13 -1.296,1.338 -2.516,1.28Z" style="fill:#fff;"/><path d="M676.429,980.067c-0.075,-1.105 0.454,-1.925 1.063,-2.767c2.72,-3.858 6.462,-4.254 10.45,-3.896c1.516,0.129 2.245,2 1.516,3.517c-0.979,1.937 -1.962,3.917 -3.133,5.733c-1.925,2.959 -4.317,3.621 -7.25,2.296c-1.992,-0.921 -2.767,-2.333 -2.646,-4.883Z" style="fill:#fff;"/><path d="M779.617,1153.51c0.366,0.296 0.82,0.5 1.012,0.892c0.3,0.475 0.092,1 -0.317,1.329c-1.583,1.367 -3.333,2.363 -5.25,3.025c-2.691,0.929 -5.125,2.188 -6.995,4.65c-1.275,1.634 -2.967,2.359 -4.846,2.755c-1.171,0.262 -2.104,-0.592 -2.154,-1.946c-0.088,-1.642 0.208,-3.271 1.504,-4.046c2.975,-1.704 5.571,-4.304 8.833,-5.192c2.692,-0.725 5.446,-0.983 8.213,-1.467Z" style="fill:#fff;"/><path d="M823.004,874.413c0.558,1.445 1.013,2.887 0.05,4.337c-0.996,1.446 -2.087,2.425 -3.879,2.079c-1.5,-0.317 -2.642,0.458 -3.496,1.892c-0.329,0.571 -0.646,1.129 -1.067,1.662c-0.7,0.888 -1.662,0.946 -2.395,0.204c-1.013,-1.095 -1.592,-2.483 -2.13,-3.895c-0.154,-0.4 -0.07,-1.063 0.138,-1.413c0.937,-1.583 1.95,-3.2 3.825,-3.425c1.208,-0.125 2.437,-0.296 3.417,-1.229c1.783,-1.675 3.654,-1.279 5.537,-0.212Z" style="fill:#fff;"/><path d="M697.837,386.612c0.892,0.175 2.121,0.284 3.296,0.617c1.629,0.488 2.409,2.008 2.113,3.938c-0.325,1.937 -1.138,3.5 -2.646,4.554c-1.254,0.891 -2.683,0.954 -3.913,0.162c-1.25,-0.866 -2.387,-2.004 -3.529,-3.158c-0.491,-0.463 -0.491,-1.288 -0.091,-1.825c0.787,-1.008 1.72,-1.879 2.17,-3.221c0.359,-1.108 1.342,-1.267 2.6,-1.067Z" style="fill:#fff;"/><path d="M784.017,1104.53c-0.084,-3.116 -0.73,-6.133 -1.459,-9.096c-0.537,-2.137 -0.366,-4.087 0.604,-5.983c0.38,-0.729 0.905,-1.487 1.805,-1.283c0.775,0.183 0.604,1.046 0.729,1.691c0.204,1.13 0.854,1.584 1.875,1.913c2.191,0.7 2.154,0.808 1.866,3.158c-0.087,0.65 -0.366,1.355 -0.295,1.996c0.208,1.829 -0.646,2.425 -2.063,2.688c-1.508,0.308 -1.546,1.583 -1.229,2.766c0.208,0.821 0.537,1.575 0.808,2.384c0.175,0.504 0.288,1.1 -0.271,1.225c-0.408,0.15 -0.899,-0.134 -1.299,-0.25c-0.376,-0.4 -0.742,-0.817 -1.071,-1.209Z" style="fill:#fff;"/><path d="M725.512,1158.33c-2.158,-0.354 -4.329,-1.45 -6.641,-1.375c-0.238,0 -0.729,-0.683 -0.775,-1.108c-0.159,-2.242 1.833,-3.846 3.571,-2.754c0.854,0.52 1.479,0.995 2.529,0.633c0.987,-0.342 2.354,0.083 3.091,-0.521c2.488,-1.946 4.684,-0.083 6.959,0.304c0.333,0.092 0.746,0.709 0.775,1.117c0.037,0.379 -0.238,1.15 -0.534,1.221c-2.92,0.887 -5.929,1.666 -8.975,2.483Z" style="fill:#fff;"/><path d="M791.062,1119.03c2.8,-0.396 5.121,0.563 7.53,1.15c1.3,0.33 2.166,1.317 2.645,2.655c0.121,0.412 0.08,1.004 -0.083,1.433c-0.221,0.608 -0.729,0.562 -1.187,0.454c-0.438,-0.096 -0.888,-0.267 -1.3,-0.496c-3.505,-2.096 -7.067,-1.662 -10.667,-0.433c-0.967,0.321 -1.783,0.787 -2.358,-0.433c-0.73,-1.534 -0.205,-3.28 1.15,-3.863c0.558,-0.217 1.17,-0.392 1.787,-0.437c0.892,-0.084 1.838,-0.03 2.483,-0.03Z" style="fill:#fff;"/><path d="M574.792,180.808c1.741,0.013 3.087,0.296 4.304,1.079c1.025,0.667 1.583,2.25 1.312,3.559c-0.258,1.316 -1.312,2.525 -2.487,2.654c-1.884,0.171 -3.671,-0.158 -5.329,-1.1c-0.871,-0.504 -1.425,-1.292 -1.513,-2.404c-0.083,-1.321 0.421,-2.384 1.421,-2.988c0.817,-0.45 1.708,-0.604 2.292,-0.8Z" style="fill:#fff;"/><path d="M738.525,1032.92c0.087,2.287 -0.242,3.504 -1.092,4.245c-2.437,1.9 -3.875,4.796 -5.983,7.009c-1.471,1.504 -2.937,2.958 -4.771,3.912c-0.441,0.205 -0.979,0.242 -1.221,-0.241c-0.204,-0.388 -0.271,-1.046 -0.12,-1.363c0.316,-0.754 0.783,-1.546 1.383,-1.983c2.6,-1.892 4.525,-4.546 6.679,-6.946c1.217,-1.308 2.313,-2.696 2.846,-4.567c0.208,-0.716 0.492,-1.85 1.554,-1.287c0.725,0.4 0.725,1.404 0.725,1.221Z" style="fill:#fff;"/><path d="M250.121,871.329c-0.334,-0.121 -0.95,-0.25 -1.475,-0.542c-1.459,-0.766 -1.704,-2.804 -0.367,-3.691c1.029,-0.709 2.121,-1.471 3.292,-1.742c2.279,-0.558 4.521,-1.083 6.637,-2.108c0.254,-0.104 0.65,-0.034 0.813,0.146c0.204,0.15 0.291,0.641 0.204,0.879c-1.671,4.316 -4.679,6.55 -9.104,7.058Z" style="fill:#fff;"/><path d="M1011.2,485.325c-0.421,-0.45 -0.783,-0.896 -1.179,-1.329c-0.329,-1.375 -0.492,-2.688 0.762,-3.65c1.267,-0.971 2.525,-1.017 3.821,-0.117c0.904,0.634 1.838,1.221 2.646,1.938c1.075,0.933 1.392,2.17 1.142,3.633c-0.321,1.912 -1.7,2.837 -3.363,2.292c-1.562,-0.521 -2.525,-1.871 -3.829,-2.767Z" style="fill:#fff;"/><path d="M463.162,410.896c0.984,-0.038 1.884,0.225 2.371,1.229c0.65,1.317 1.25,2.679 1.792,4.075c0.267,0.713 -0.129,1.371 -0.617,1.767c-1.616,1.445 -3.608,1.65 -5.583,2.075c-0.317,0.066 -0.996,-0.4 -1.046,-0.692c-0.491,-2.612 -0.316,-5.129 1.096,-7.362c0.454,-0.734 1.179,-1.084 1.987,-1.092Z" style="fill:#fff;"/><path d="M746.954,1157.25c-1.921,-0.421 -3.987,-0.854 -6.071,-1.35c-0.525,-0.125 -0.7,-1.242 -0.316,-1.742c0.962,-1.254 2.191,-1.8 3.65,-1.646c0.9,0.104 1.791,0.434 2.654,0.7c3.287,1.046 6.546,1.8 9.591,-0.775c0.18,-0.141 0.742,0.009 0.784,0.179c0.175,0.4 0.287,1 0.125,1.371c-0.567,1.35 -1.784,1.85 -2.971,2.079c-2.404,0.492 -4.842,0.788 -7.446,1.184Z" style="fill:#fff;"/><path d="M768.146,1029.95c-0.079,-1.216 -0.446,-2.287 -1.304,-3.129c-0.559,-0.558 -1.05,-1.221 -1.5,-1.938c-0.542,-0.858 -0.05,-2.17 0.854,-2.474c2.762,-0.963 4.883,0.366 5.416,3.562c0.284,1.504 0.4,3.054 0.563,4.558c0.121,1.121 -0.4,1.5 -1.825,1.321c-0.283,-0.046 -0.567,-0.233 -0.858,-0.362c-0.45,-0.5 -0.896,-1.013 -1.346,-1.538Z" style="fill:#fff;"/><path d="M853.521,396.567c0.121,-0.842 0.237,-1.854 0.487,-2.834c0.35,-1.137 1.513,-1.829 2.559,-1.675c1.012,0.175 1.666,0.829 1.962,1.88c0.763,2.604 0.033,4.67 -1.8,6.337c-1.05,0.992 -2.558,0.487 -2.883,-1.013c-0.159,-0.816 -0.2,-1.67 -0.325,-2.695Z" style="fill:#fff;"/><path d="M738.192,1159.35c2.737,-0.15 4.612,1.288 6.241,3.221c0.404,0.5 0.604,1.242 0.275,1.946c-0.441,0.879 -1.183,1.083 -1.95,0.879c-0.766,-0.192 -1.454,-0.583 -2.154,-0.95c-1.275,-0.625 -2.479,-1.3 -3.754,-1.958c-0.563,-0.296 -1.138,-0.705 -1.046,-1.5c0.079,-0.717 0.604,-1.129 1.213,-1.354c0.462,-0.146 0.904,-0.2 1.175,-0.284Z" style="fill:#fff;"/><path d="M746.1,1015.86c2.112,1.459 3.283,3.484 3.083,6.321c-0.075,0.888 -0.404,1.688 -1.183,1.996c-0.808,0.317 -1.525,-0.083 -1.95,-0.842c-0.9,-1.779 -1.708,-3.558 -2.525,-5.362c-0.525,-1.121 -0.158,-1.646 1.229,-2.004c0.446,-0.1 0.9,-0.071 1.388,-0.1l-0.042,-0l-0,-0.009Z" style="fill:#fff;"/><path d="M985.554,648.413c-0.112,-0.221 -0.4,-0.538 -0.35,-0.734c0.35,-1.471 0.692,-2.996 1.246,-4.304c0.821,-1.829 2.442,-2.433 4.162,-2.687c0.738,-0.084 1.496,0.933 1.263,1.733c-0.163,0.575 -0.321,1.375 -0.738,1.75c-1.666,1.475 -3.387,2.846 -5.083,4.242c-0.121,0.091 -0.317,-0 -0.5,-0Z" style="fill:#fff;"/><path d="M603.717,326.792c-0.413,-0.138 -0.971,-0.359 -1.55,-0.588c-0.763,-0.362 -1.142,-1.487 -0.513,-2.042c1.488,-1.383 2.996,-2.758 4.633,-4.012c0.609,-0.454 1.205,0.171 1.38,0.854c0.65,2.542 -1.513,5.821 -3.95,5.788Z" style="fill:#fff;"/><path d="M903.008,782.758c-0.05,0.325 0,0.717 -0.183,0.913c-0.4,0.533 -0.808,1.025 -1.317,1.387c-2.208,1.546 -4.408,3.063 -6.279,5.134c-0.237,0.283 -0.862,0.4 -1.179,0.262c-0.492,-0.229 -0.442,-0.879 -0.208,-1.321c1.387,-2.695 2.85,-5.262 5.945,-5.912c0.855,-0.179 1.671,-0.692 2.525,-1c0.159,-0.025 0.446,0.35 0.696,0.537Z" style="fill:#fff;"/><path d="M776.942,1120.18c1.341,-0.1 2.483,0.263 3.416,1.267c0.967,1.012 0.692,2.767 -0.491,3.429c-1.55,0.804 -2.971,0.525 -4.238,-0.742c-0.646,-0.683 -1.221,-1.575 -0.887,-2.679c0.366,-1.17 1.395,-1.129 2.2,-1.275Z" style="fill:#fff;"/><path d="M512.654,425.183c0.046,1.9 -1.229,2.767 -2.767,1.9c-2.291,-1.321 -2.325,-4.521 0.034,-6.129c0.583,-0.417 1.183,-0.096 1.596,0.467c0.758,1.091 1.2,2.333 1.137,3.762Z" style="fill:#fff;"/><path d="M823.858,1138.37c0.121,1.662 -0.296,2.891 -0.966,4.045c-0.538,0.784 -0.959,1.788 -2.038,1.725c-0.742,-0.02 -1.137,-1.27 -0.742,-3.045c0.317,-1.446 0.805,-2.867 1.338,-4.213c0.162,-0.35 0.783,-0.683 1.142,-0.625c0.366,0.021 0.729,0.513 0.945,0.933c0.234,0.384 0.275,0.942 0.321,1.18Z" style="fill:#fff;"/><path d="M768.146,1029.95c0.45,0.525 0.896,1.038 1.341,1.542c0.088,1.679 0.205,3.358 0.159,5.029c-0,0.375 -0.438,0.842 -0.771,1.058c-0.408,0.263 -0.963,0.146 -1.179,-0.354c-0.854,-1.946 -1.709,-3.925 -2.471,-5.921c-0.263,-0.604 -0.288,-1.391 0.362,-1.766c0.321,-0.192 0.809,-0 1.255,0.083c0.458,0.079 0.858,0.225 1.304,0.329Z" style="fill:#fff;"/><path d="M827.796,355.358c3.021,3.654 2.366,7.005 1.562,10.338c-0.091,0.258 -0.491,0.621 -0.662,0.591c-0.413,-0.1 -0.854,-0.354 -1.104,-0.683c-0.242,-0.4 -0.367,-0.987 -0.321,-1.446c0.129,-2.708 0.325,-5.404 0.525,-8.8Z" style="fill:#fff;"/><path d="M527.133,369.571c-0.737,-0.388 -1.133,-0.584 -1.541,-0.809c-0.609,-0.387 -1.588,-0.195 -1.75,-1.304c-0.154,-1.025 -0.088,-2.095 0.65,-2.837c0.72,-0.734 1.341,-2.117 2.595,-1.492c1.105,0.55 1.28,1.846 1.059,3.063c-0.159,0.983 -0.563,1.921 -1.013,3.379Z" style="fill:#fff;"/><path d="M840.383,692.446c-0.808,-0.013 -1.55,-0.329 -1.916,-1.184c-0.58,-1.47 0.808,-4.087 2.266,-4.35c0.867,-0.12 1.596,0.263 1.875,1.15c0.588,1.675 -0.741,4.155 -2.225,4.384Z" style="fill:#fff;"/><path d="M945.446,733.212c-0.854,2.813 -2.2,5.067 -4.813,6.146c-0.229,0.113 -0.604,0.05 -0.804,-0.108c-0.196,-0.171 -0.404,-0.696 -0.333,-0.833c1.471,-2.046 2.529,-4.567 5.012,-5.475c0.2,-0.084 0.529,0.141 0.938,0.27Z" style="fill:#fff;"/><path d="M668.617,289.154c1.108,0 2.245,0.063 2.733,1.4c0.112,0.4 0.05,1.067 -0.171,1.45c-0.729,1.221 -1.821,1.092 -2.892,0.658c-0.966,-0.383 -2.233,-0.35 -2.595,-1.8c-0.205,-0.887 1.183,-1.683 2.925,-1.708Z" style="fill:#fff;"/><path d="M762.05,1022.2c-0.05,1.446 0.921,2.475 1.217,3.792c0.083,0.283 -0,0.72 -0.205,0.937c-0.158,0.183 -0.608,0.375 -0.804,0.279c-1.108,-0.504 -2.25,-1.042 -3.271,-1.771c-0.925,-0.662 -0.604,-2.37 0.538,-2.829c0.742,-0.292 1.458,-0.45 2.242,-0.679l0.283,0.271Z" style="fill:#fff;"/><path d="M588.625,1020c-0.25,1.421 -0.583,3.388 -1.017,5.325c-0.208,0.867 -0.129,2.392 -1.346,2.025c-0.7,-0.25 -0.083,-1.487 0.046,-2.312c0.284,-2.155 0.571,-4.288 0.888,-6.446c0.087,-0.492 0.416,-1.092 0.9,-0.925c0.237,0.117 0.375,0.808 0.533,1.254c0.033,0.146 -0.004,0.333 -0.004,1.079Z" style="fill:#fff;"/><path d="M604.458,331.7c0.679,-0 1.467,-0.025 2.179,0.042c0.538,0.021 0.9,0.454 0.742,1.016c-0.087,0.434 -0.408,0.921 -0.742,1.117c-1.045,0.583 -2.058,0 -3.129,-0.15c-1.012,-0.142 -2.062,-0.225 -3.133,-0.413c-0.204,-0.054 -0.533,-0.416 -0.533,-0.658c-0,-0.237 0.295,-0.646 0.533,-0.729c1.3,-0.413 2.642,-0.517 4.083,-0.225Z" style="fill:#fff;"/><path d="M531.325,395.292c1.3,-0 2.437,-0.23 3.337,0.645c0.175,0.171 0.284,0.605 0.284,0.88c-0.046,0.283 -0.284,0.737 -0.492,0.775c-1.829,0.466 -3.571,-0.059 -5.325,-0.546c-0.158,-0.046 -0.362,-0.575 -0.317,-0.829c0.046,-0.275 0.317,-0.659 0.521,-0.709c0.725,-0.137 1.517,-0.158 1.992,-0.216Z" style="fill:#fff;"/><path d="M695.15,335.45c0.887,-1.804 1.671,-2.504 2.483,-2.104c1.3,0.596 2.104,2.833 1.504,4.229c-0.208,0.471 -0.741,0.775 -1.137,0.442c-0.967,-0.755 -1.867,-1.642 -2.804,-2.488l-0.046,-0.079Z" style="fill:#fff;"/><path d="M616.821,1096.1c-0.196,0.217 -0.371,0.521 -0.613,0.592c-0.271,0.058 -0.65,-0.025 -0.854,-0.192c-1.867,-1.529 -2.596,-2.95 -2.058,-4.058c0.067,-0.229 0.512,-0.488 0.716,-0.434c1.63,0.513 2.526,1.826 2.892,3.596c0.042,0.13 -0.054,0.334 -0.083,0.496Z" style="fill:#fff;"/><path d="M831.954,400.029c-0.083,0.125 -0.125,0.354 -0.246,0.4c-0.25,0.113 -0.646,0.288 -0.825,0.184c-1.7,-1.476 -2.65,-3.563 -3.454,-5.767c0,-0.079 0.092,-0.279 0.208,-0.413c0.092,-0.087 0.284,-0.204 0.375,-0.141c1.78,1.295 3.121,3.05 3.988,5.245c0.042,0.138 -0.046,0.33 -0.046,0.492Z" style="fill:#fff;"/><path d="M489.708,411.85c-0.583,-0.204 -0.866,-0.625 -0.696,-1.121c0.696,-1.925 2.042,-2.687 4.08,-2.312c0.225,0.037 0.554,0.262 0.716,0.512c0.329,0.583 -0.05,0.946 -0.441,1.221c-1.175,0.754 -2.292,1.721 -3.659,1.7Z" style="fill:#fff;"/><path d="M674.567,1119.06c-0.084,1.105 -0.571,1.659 -1.425,1.725c-1.025,0.075 -1.834,-0.783 -1.792,-1.841c0.071,-0.98 0.558,-1.571 1.417,-1.65c0.979,-0.105 1.75,0.787 1.8,1.766Z" style="fill:#fff;"/><path d="M912.233,776.629c0,0.163 0.046,0.363 -0.037,0.488c-0.734,1.525 -1.834,2.695 -3.221,3.495c-0.196,0.138 -0.608,0 -0.808,-0.166c-0.171,-0.2 -0.242,-0.663 -0.171,-0.913c0.654,-1.621 1.771,-2.766 3.179,-3.462c0.138,-0.071 0.375,-0.134 0.454,-0.059c0.233,0.192 0.396,0.425 0.604,0.617Z" style="fill:#fff;"/><path d="M999.362,685.463c0.321,0.037 0.717,-0.021 0.859,0.183c1.008,1.267 1.737,2.746 2.021,4.442c0.033,0.237 -0.238,0.637 -0.488,0.729c-0.242,0.083 -0.65,-0 -0.821,-0.196c-1.204,-1.15 -1.9,-2.617 -2.025,-4.383c0,-0.221 0.284,-0.513 0.454,-0.775Z" style="fill:#fff;"/><path d="M774.987,1151.4c-0.537,-0.063 -1.025,-0.271 -1.025,-0.8c0,-0.384 0.338,-0.996 0.625,-1.113c0.963,-0.412 1.996,-0.696 3.005,-0.916c0.4,-0.067 0.891,0.366 0.841,0.879c0,0.433 -0.237,0.958 -0.512,1.216c-0.896,0.742 -1.971,0.663 -2.934,0.734Z" style="fill:#fff;"/><path d="M485.787,424.279c-1.374,-0.433 -2.529,-1.158 -2.687,-2.937c-0.071,-0.909 0.292,-1.705 1.15,-1.83c0.804,-0.166 1.533,0.338 1.629,1.3c0.067,1.138 -0.046,2.309 -0.092,3.467Z" style="fill:#fff;"/><path d="M624.233,1110.97c-0.283,0.433 -0.425,0.783 -0.658,0.937c-0.254,0.084 -0.683,0.084 -0.854,-0.058c-0.571,-0.588 -1.138,-1.158 -1.55,-1.888c-0.604,-1.099 -0.288,-2.475 0.491,-2.6c0.975,-0.166 1.342,0.663 1.705,1.4c0.329,0.755 0.583,1.538 0.866,2.209Z" style="fill:#fff;"/><path d="M585.042,250.371c-0.33,-0 -0.609,0.05 -0.938,-0c-1.008,-0.059 -1.829,-0.721 -1.596,-1.275c0.334,-0.696 0.95,-1.009 1.55,-0.95c1.025,0.112 2.084,0.421 3.088,0.729c0.204,0.046 0.425,0.592 0.375,0.808c-0.079,0.263 -0.4,0.571 -0.646,0.625c-0.613,0.104 -1.233,0.025 -1.833,0.025l-0,0.038Z" style="fill:#fff;"/><path d="M888.833,792.025c0.042,0.167 0.134,0.375 0.088,0.5c-0.646,1.992 -1.879,3.383 -3.546,4.346c-0.079,0.071 -0.283,-0.034 -0.363,-0.134c-0.129,-0.1 -0.254,-0.32 -0.204,-0.4c0.679,-1.887 1.534,-3.675 3.254,-4.704c0.121,-0.1 0.484,0.267 0.771,0.392Z" style="fill:#fff;"/><path d="M662.908,288.267c-0.479,-0.171 -0.833,-0.546 -0.762,-1.092c0.208,-1.242 1.108,-1.937 1.95,-2.575c0.254,-0.217 0.854,-0.079 1.183,0.133c0.413,0.229 0.492,0.821 0.254,1.279c-0.583,1.196 -1.279,2.217 -2.625,2.255Z" style="fill:#fff;"/><path d="M569.092,317.587c-0.05,0.9 -0.321,1.675 -1.225,1.805c-0.642,0.095 -1.338,-0.905 -1.217,-1.805c0.083,-0.891 0.4,-1.795 1.267,-1.808c0.92,-0.046 1.1,0.946 1.175,1.808Z" style="fill:#fff;"/><path d="M653.808,1100.48c1.275,0.505 1.504,2.588 0.409,3.692c-0.155,0.175 -0.646,0.242 -0.809,0.092c-0.896,-0.659 -1.104,-2.438 -0.362,-3.509c0.108,-0.216 0.475,-0.196 0.762,-0.275Z" style="fill:#fff;"/><path d="M804.65,1150.89c-0.492,-0.096 -0.808,-0.442 -0.854,-0.988c-0.125,-1.242 0.158,-2.346 1.216,-2.95c0.442,-0.267 0.938,-0.108 1.138,0.388c0.442,1.229 0.046,2.304 -0.717,3.191c-0.183,0.213 -0.504,0.263 -0.783,0.359Z" style="fill:#fff;"/><path d="M833.458,1113.24c-0.854,-0.088 -1.583,-0.171 -2.325,-0.263c-0.966,-0.158 -1.775,-0.983 -1.412,-1.375c0.508,-0.558 1.096,-0.342 1.662,-0.254c0.729,0.137 1.471,0.229 2.184,0.412c0.379,0.15 1.02,0.404 1.02,0.659c0.055,0.991 -0.72,0.65 -1.129,0.82Z" style="fill:#fff;"/><path d="M614.337,333.517c-0.283,0.391 -0.445,0.775 -0.691,0.82c-0.196,0.021 -0.654,-0.208 -0.688,-0.425c-0.316,-1.266 -0.571,-2.55 -0.783,-3.825c-0.038,-0.17 0.371,-0.5 0.612,-0.525c0.25,-0.07 0.73,0.075 0.775,0.25c0.33,1.28 0.53,2.546 0.775,3.705Z" style="fill:#fff;"/><path d="M671.308,314.833c0,1.013 -0.583,1.534 -1.387,1.663c-0.7,0.087 -1.175,-0.367 -1.209,-1.146c-0.045,-0.95 0.4,-1.646 1.3,-1.675c0.65,-0.05 1.138,0.367 1.296,1.158Z" style="fill:#fff;"/><path d="M1110.24,716.2c0.284,0.133 0.65,0.204 0.78,0.433c0.487,0.921 0.087,1.646 -0.534,2.25c-0.446,0.505 -1.05,0.721 -1.662,0.388c-0.175,-0.071 -0.288,-0.229 -0.329,-0.388c-0.121,-1.012 0.733,-2.354 1.745,-2.683Z" style="fill:#fff;"/><path d="M530.562,350.392c0.792,0.245 1.742,0.262 2.3,1.146c0.088,0.091 0.088,0.325 0.046,0.47c-0.046,0.125 -0.108,0.292 -0.237,0.363c-1.221,0.525 -2.313,-0.167 -3.425,-0.567c-0.163,-0.037 -0.325,-0.558 -0.234,-0.754c0.071,-0.263 0.367,-0.5 0.646,-0.596c0.246,-0.096 0.563,-0.037 0.904,-0.062Z" style="fill:#fff;"/><path d="M786.546,928.871c-0.113,1.266 -0.808,2.083 -1.884,2.471c-0.154,0.075 -0.645,-0.225 -0.691,-0.388c-0.159,-1.387 0.658,-2.104 1.596,-2.667c0.191,-0.099 0.57,0.063 0.816,0.159c0.071,0.025 0.117,0.266 0.163,0.425Z" style="fill:#fff;"/><path d="M774.904,1113.36c-0.137,0.666 -0.271,1.366 -1.058,1.204c-0.442,-0.1 -0.808,-0.384 -1.229,-0.634c-0.196,-0.171 -0.517,-0.425 -0.563,-0.683c-0.092,-0.613 0.413,-0.763 0.808,-0.887c1.396,-0.392 1.992,-0.046 2.042,1Z" style="fill:#fff;"/><path d="M831.508,1107.88c-0.121,0.171 -0.158,0.329 -0.279,0.4c-0.904,0.433 -2.25,-0.421 -2.454,-1.617c-0.046,-0.187 0.283,-0.662 0.458,-0.662c0.996,-0.125 1.788,0.379 2.229,1.391c0.092,0.138 0.046,0.33 0.046,0.488Z" style="fill:#fff;"/><path d="M800.379,1101.83c0.775,-0.112 1.471,0.159 1.992,0.763c0.158,0.187 0.242,0.637 0.158,0.854c-0.112,0.262 -0.412,0.491 -0.679,0.554c-0.742,0.175 -1.425,-0.104 -1.963,-0.725c-0.158,-0.204 -0.254,-0.621 -0.158,-0.888c0.079,-0.241 0.396,-0.383 0.65,-0.558Z" style="fill:#fff;"/><path d="M1088.67,720.879c0.366,0.113 0.804,0.125 1.175,0.4c0.612,0.388 1.354,0.784 1.225,1.779c-0,0.192 -0.438,0.45 -0.692,0.434c-1.296,-0 -2.083,-0.663 -2.196,-1.825c-0.046,-0.229 0.296,-0.459 0.488,-0.788Z" style="fill:#fff;"/><path d="M777.229,882.113c-0.587,-0.167 -0.975,-0.53 -0.854,-1.059c0.229,-0.9 0.967,-1.254 1.792,-1.146c0.47,0.059 0.895,0.492 0.725,1.046c-0.255,0.938 -0.925,1.233 -1.663,1.159Z" style="fill:#fff;"/><path d="M1038.86,711.133c-0.079,0.296 -0.116,0.742 -0.329,0.863c-0.975,0.537 -2.229,0.125 -2.754,-0.854c-0.042,-0.138 -0.042,-0.409 0,-0.438c0.404,-0.2 0.808,-0.504 1.221,-0.517c0.725,-0.045 1.512,0 1.862,0.946Z" style="fill:#fff;"/><path d="M628.792,1117.9c1,0.454 1.487,1.446 1.579,2.616c-0,0.23 -0.25,0.542 -0.409,0.73c-0.079,0.091 -0.354,0.037 -0.4,-0.067c-0.533,-0.788 -1.025,-1.55 -1.47,-2.396c-0.084,-0.158 0.125,-0.554 0.287,-0.817c0.046,-0.066 0.242,-0.066 0.413,-0.066Z" style="fill:#fff;"/><path d="M494.625,416.075c0.612,0.058 1.3,0.217 1.3,1.012c0.046,0.875 -0.683,0.967 -1.3,0.875c-0.613,-0.124 -1.217,-0.441 -1.133,-1.283c0.079,-0.55 0.645,-0.604 1.133,-0.604Z" style="fill:#fff;"/><path d="M538.683,397.787c0.204,0.034 0.534,0.034 0.788,0.163c0.441,0.225 0.716,0.7 0.491,1.2c-0.129,0.242 -0.491,0.412 -0.783,0.442c-0.296,0.07 -0.612,-0.034 -0.85,-0.159c-0.254,-0.171 -0.583,-0.454 -0.583,-0.729c-0.067,-0.587 0.333,-0.871 0.937,-0.917Z" style="fill:#fff;"/><path d="M673.871,1075.62c0.696,0.071 1.025,0.529 1.058,1.246c0.033,0.691 -0.242,1.308 -0.975,1.191c-0.65,-0.108 -0.887,-0.75 -0.887,-1.441c0.029,-0.525 0.325,-0.854 0.804,-0.996Z" style="fill:#fff;"/><path d="M788.421,1085.47c0.487,0.133 0.804,0.495 0.766,1.058c-0.05,0.717 -0.412,1.221 -1.095,1.146c-0.5,-0.034 -0.817,-0.433 -0.775,-0.988c0.033,-0.762 0.412,-1.171 1.104,-1.216Z" style="fill:#fff;"/><path d="M756.5,1108.5c0.742,0.133 1.475,0.208 2.212,0.421c0.571,0.175 1.171,0.6 0.905,1.358c-0.259,0.763 -0.984,0.588 -1.554,0.542c-1.071,-0.079 -1.563,-0.888 -1.963,-1.825c0.133,-0.146 0.292,-0.325 0.4,-0.496Z" style="fill:#fff;"/><path d="M785.692,1110.88c0.045,0.692 -0.33,0.979 -0.809,1.038c-0.775,0.071 -1.596,0.071 -1.833,-0.979c-0.121,-0.563 0.321,-0.959 0.808,-1.013c0.804,-0.121 1.504,0.1 1.834,0.954Z" style="fill:#fff;"/><path d="M767.45,1111.69c0.533,0.137 0.829,0.174 1.112,0.283c0.117,0.058 0.317,0.229 0.317,0.321c-0.067,0.279 -0.112,0.679 -0.279,0.833c-0.775,0.554 -1.596,0.804 -2.475,0.279c-0.133,-0.058 -0.25,-0.25 -0.25,-0.387c0.037,-0.305 0.037,-0.763 0.204,-0.83c0.488,-0.266 1.05,-0.387 1.371,-0.5Z" style="fill:#fff;"/><path d="M798.875,1113.05c-0,0.821 -0.488,1.137 -1.096,1.216c-0.9,0.159 -1.75,-0.5 -1.55,-1.183c0.163,-0.729 0.696,-1.017 1.304,-1.05c0.646,0 1.134,0.242 1.342,1.017Z" style="fill:#fff;"/><path d="M565.142,320.704c0.041,0.529 -0,1.063 -0.484,1.279c-0.571,0.221 -0.858,-0.262 -0.946,-0.775c-0.07,-0.546 0.046,-1.058 0.534,-1.279c0.571,-0.208 0.812,0.221 0.896,0.775Z" style="fill:#fff;"/><path d="M1096.73,720.742c0.559,0.196 0.854,0.766 0.763,1.483c-0.063,0.554 -0.475,0.942 -0.963,0.883c-0.821,-0.021 -0.979,-0.716 -0.866,-1.458c0.091,-0.546 0.37,-0.933 1.066,-0.908Z" style="fill:#fff;"/><path d="M768.471,1153.3c-0.284,0.716 -0.817,0.875 -1.471,0.662c-0.475,-0.17 -0.767,-0.662 -0.433,-1.12c0.204,-0.355 0.733,-0.521 1.129,-0.55c0.491,-0.005 0.821,0.349 0.775,1.008Z" style="fill:#fff;"/><path d="M784.017,1104.53c0.329,0.392 0.695,0.809 1.07,1.213c-0.625,0.5 -1.229,0.841 -1.995,0.462c-0.784,-0.375 -1.184,-1.441 -0.646,-1.946c0.512,-0.533 1.046,0.059 1.571,0.271Z" style="fill:#fff;"/><path d="M607.267,1085.09c-0.371,0.184 -0.659,0.442 -0.863,0.425c-0.729,-0.204 -1.437,-0.533 -1.3,-1.574c0,-0.167 0.442,-0.442 0.679,-0.388c0.746,0.175 1.234,0.696 1.484,1.537Z" style="fill:#fff;"/><path d="M511.467,386.367c-0.488,-0.125 -0.809,-0.488 -0.646,-1.063c0.108,-0.567 0.579,-0.792 1.021,-0.567c0.229,0.109 0.525,0.475 0.525,0.742c0.033,0.634 -0.363,0.888 -0.9,0.888Z" style="fill:#fff;"/><path d="M747.929,1064.54c-0.283,0.492 -0.696,0.584 -1.096,0.375c-0.454,-0.229 -0.695,-0.741 -0.295,-1.104c0.25,-0.216 0.766,-0.137 1.137,-0.058c0.162,0.058 0.162,0.525 0.254,0.787Z" style="fill:#fff;"/><path d="M836.3,687.804c0.537,0.229 0.65,0.671 0.425,1.146c-0.379,0.625 -0.992,0.842 -1.596,0.625c-0.375,-0.125 -0.442,-0.487 -0.283,-0.854c0.283,-0.608 0.762,-0.992 1.454,-0.917Z" style="fill:#fff;"/><path d="M922.125,768.204c0.033,0.742 -0.325,1.184 -0.854,1.471c-0.204,0.079 -0.613,0.012 -0.738,-0.15c-0.271,-0.433 -0.112,-0.946 0.255,-1.242c0.279,-0.241 0.724,-0.346 1.091,-0.441c0.042,-0.034 0.167,0.22 0.246,0.362Z" style="fill:#fff;"/><path d="M761.4,1153.73c-0.221,0.525 -0.537,0.892 -1.021,0.809c-0.537,-0.084 -0.721,-0.542 -0.537,-1.08c0.216,-0.491 0.646,-0.716 1.137,-0.504c0.2,0.083 0.3,0.492 0.421,0.775Z" style="fill:#fff;"/><path d="M844.729,843.696c0.458,0.275 0.525,0.758 0.413,1.221c-0.125,0.537 -0.442,0.916 -0.938,0.729c-0.5,-0.179 -0.567,-0.696 -0.454,-1.192c0.162,-0.508 0.454,-0.812 0.979,-0.758Z" style="fill:#fff;"/><path d="M765.55,400.45c0.204,0.163 0.575,0.317 0.604,0.537c0.088,0.559 -0.242,0.934 -0.771,0.842c-0.154,-0.046 -0.421,-0.487 -0.375,-0.737c0,-0.255 0.334,-0.438 0.542,-0.642Z" style="fill:#fff;"/><path d="M968.746,464.683c-0.479,-0.212 -0.721,-0.608 -0.517,-1.133c0.075,-0.2 0.446,-0.479 0.654,-0.425c0.484,0.092 0.729,0.587 0.534,1.121c-0.088,0.187 -0.421,0.291 -0.671,0.437Z" style="fill:#fff;"/><path d="M759.408,1168.18c0.034,0.758 -0.979,1.55 -1.583,1.233c-0.346,-0.145 -0.413,-0.55 -0.142,-0.804c0.288,-0.346 0.654,-0.637 1.079,-0.871c0.317,-0.2 0.555,0.009 0.646,0.442Z" style="fill:#fff;"/><path d="M1072.84,726.167c-0.646,-0 -1.092,-0.434 -1.421,-1.05c-0.092,-0.121 -0.113,-0.459 -0.092,-0.463c0.3,-0.15 0.629,-0.346 0.784,-0.233c0.399,0.233 0.729,0.575 1.025,0.954c0.229,0.346 0.07,0.662 -0.296,0.792Z" style="fill:#fff;"/><path d="M666.179,311.596c-0.154,0.525 -0.487,0.912 -0.975,0.854c-0.571,-0.071 -0.696,-0.6 -0.487,-1.104c0.187,-0.513 0.612,-0.779 1.091,-0.575c0.217,0.108 0.246,0.566 0.371,0.825Z" style="fill:#fff;"/><path d="M653.687,1093.96c0.492,0.009 0.859,0.288 0.813,0.813c-0,0.233 -0.321,0.608 -0.538,0.625c-0.479,0.063 -0.808,-0.258 -0.762,-0.838c0.004,-0.216 0.321,-0.395 0.487,-0.6Z" style="fill:#fff;"/><path d="M751.996,1060.91c-0.196,-0.226 -0.525,-0.455 -0.525,-0.671c0.033,-0.6 0.441,-0.804 0.887,-0.567c0.204,0.087 0.367,0.575 0.317,0.783c-0.067,0.234 -0.429,0.334 -0.679,0.455Z" style="fill:#fff;"/></g></g></svg>