<svg viewBox="0 0 1349 1695" version="1.1" xmlns="http://www.w3.org/2000/svg" xmlns:xlink="http://www.w3.org/1999/xlink" xml:space="preserve" xmlns:serif="http://www.serif.com/" style="fill-rule:evenodd;clip-rule:evenodd;stroke-linejoin:round;stroke-miterlimit:2;"><g><g><path d="M673.654,345.89l0,1348.17c-372.05,-0.221 -673.654,-301.95 -673.654,-674.087c0,-372.138 301.604,-673.871 673.654,-674.088Z" style="fill:#c4bf65;fill-rule:nonzero;"/><path d="M1348.17,1019.98c0,372.271 -301.775,674.087 -674.087,674.087l-0.434,0l0,-1348.17l0.434,0c372.316,0 674.087,301.817 674.087,674.088Z" style="fill:#aca54d;fill-rule:nonzero;"/></g><g><clipPath id="_clip1"><rect x="101.526" y="604.731" width="1126.32" height="894.288"/></clipPath><g clip-path="url(#_clip1)"><path d="M1182.91,744.505c-3.77,0.286 -6.047,-2.16 -5.982,-6.481c0,-2.433 0.85,-4.652 1.706,-6.864c1.739,-4.639 2.024,-9.18 -0.61,-13.611c-2.997,-4.969 -3.963,-10.445 -3.367,-16.329c0.143,-1.239 0.02,-2.569 0.02,-3.88c0.123,-3.094 -0.993,-5.456 -2.829,-7.856c-2.634,-3.484 -6.26,-4.574 -9.731,-6.183c-5.742,-2.614 -11.23,-5.852 -17.776,-5.689c-3.374,0.09 -6.883,-0.63 -9.972,-2.686c-1.245,-0.87 -2.757,-1.149 -4.288,-1.058c-1.739,0.078 -2.543,1.908 -3.756,2.777c-1.421,-2.323 -2.731,-4.249 -3.821,-6.261c-3.925,-7.129 -10.627,-11.424 -14.747,-18.366c-1.116,-1.907 -2.977,-1.739 -4.009,0.331c-2.063,4.152 -4.554,8.142 -2.472,13.598c1.642,4.308 4.321,7.778 6.202,11.833c0.74,1.577 1.921,0.993 2.381,-0.713c0.571,-2.063 2.089,-1.648 2.479,-0.422c1.686,4.827 4.969,5.702 9.004,4.788c0.273,5.222 0.442,6.39 2.459,10.354c1.499,2.919 2.465,5.956 3.25,9.16c2.252,8.849 -0.175,13.663 -8.122,15.681c-2.303,0.551 -2.939,2.005 -2.829,4.288c0.065,0.915 0.299,1.765 0.519,2.667c0.552,2.316 -0.519,3.899 -1.991,5.222c-1.181,1.038 -2.414,0.947 -3.653,0.123c-1.797,-1.2 -2.355,-2.951 -2.257,-5.138c0.064,-1.323 0.395,-2.699 1.245,-3.536c2.809,-2.711 2.128,-5.313 0.046,-8.044c-0.617,-0.824 -1.116,-1.784 -1.583,-2.764c-2.083,-4.398 -2.148,-4.398 -6.293,-2.666c-5.865,2.472 -10.335,6.922 -14.059,12.398c-2.348,3.49 -2.258,3.561 -5.754,1.907c-3.815,-1.771 -8.058,0.091 -11.879,-1.596c-2.479,1.881 -5.586,2.245 -8.123,3.834c-3.205,2.05 -5.618,4.814 -5.806,9.53c-0.169,3.14 -1.291,3.562 -3.309,1.59c-1.09,-1.006 -2.037,-1.778 -3.503,-1.635c-1.103,0.091 -2.083,-0.629 -2.147,-1.765c-0.286,-3.613 -1.862,-7.162 -0.831,-10.866c0.895,-3.043 1.058,-6.06 -0.441,-8.992c2.582,-1.486 5.956,-0.441 7.759,-5.223c-4.334,1.817 -8.187,1.038 -11.716,2.492c-3.659,1.498 -6.118,4.191 -6.326,8.849c-0.032,0.914 -0.097,1.926 -1.44,1.881c-0.201,-0.35 -0.662,-0.74 -0.688,-1.181c-0.065,-2.841 -1.142,-3.393 -2.978,-1.583c-1.368,1.33 -2.601,2.829 -3.678,4.451c-1.226,1.907 1.044,2.776 1.408,4.249c0.22,1.006 0.058,1.908 -0.617,2.524c-0.96,0.837 -1.511,-0.065 -1.92,-0.85c-1.09,-2.173 -2.634,-3.458 -4.84,-2.381c-5.079,2.511 -10.081,5.171 -15.103,7.811c-0.408,0.24 -0.739,0.74 -1.07,1.103c-5.443,6.059 -12.197,10.03 -18.568,14.545c-1.907,1.33 -3.724,2.096 -4.054,4.892c-0.15,1.434 -1.149,2.257 -2.414,2.348c-6.202,0.714 -8.563,5.21 -9.245,11.457c-0.155,1.246 -0.96,2.543 -0.772,3.692c1.272,9.069 -3.633,11.866 -10.302,13.092c-0.993,0.129 -1.765,0.804 -2.634,-0.331c-0.772,-1.038 -1.849,-0.649 -2.764,-0.156c-2.316,1.337 -3.912,0.104 -4.774,-2.121c-2.161,-5.255 -4.95,-9.842 -8.798,-13.786c-1.453,-1.486 -1.797,-3.776 -0.707,-5.554c2.556,-4.158 4.872,-8.829 10.38,-8.894c1.136,-0 2.303,-0.409 3.426,-0.714c4.716,-1.233 4.716,-1.233 3.594,-6.812c-0.35,-1.784 -0.564,-3.613 -0.882,-5.404c-0.176,-1.278 -0.364,-2.744 -1.655,-3.14c-2.731,-0.973 -3.724,-3.562 -4.385,-6.15c-0.818,-3.251 -2.712,-4.872 -5.366,-5.839c-2.543,-0.915 -5.112,-1.298 -7.778,-1.233c-5.917,0.13 -11.879,0.403 -17.082,-3.75c-0.396,-0.285 -0.902,-0.506 -1.343,-0.629c-0.616,-0.188 -1.356,-0.37 -1.862,0.312c-0.668,0.817 -0.331,1.732 0.156,2.458c1.862,2.842 4.295,5.113 6.753,7.253c2.492,2.135 3.316,4.626 3.231,8.032c-0.168,7.902 -0.519,15.713 -2.666,23.362c-0.616,2.115 -0.993,4.308 -1.123,6.468c-0.22,3.516 0.351,6.598 4.101,7.649c2.673,0.707 3.788,3.263 3.613,5.871c-0.421,5.048 0.299,10.27 -2.348,14.954c-1.752,3.185 -2.401,6.844 -1.213,10.601c0.421,1.388 0.596,2.854 -1.188,4.619c0.221,-4.178 -3.737,-3.769 -4.729,-6.844c-1.226,-3.835 -4.275,-5.463 -7.714,-5.995c-2.115,-0.383 -4.042,-0.869 -5.839,-2.53c-2.16,-2.044 -3.062,-1.713 -4.749,0.915c-0.454,0.746 -0.733,1.693 -1.2,2.419c-3.879,5.58 -6.967,12.178 -14.285,13.261c-1.674,0.286 -2.952,1.745 -3.659,3.445c-1.421,3.095 -3.562,5.365 -6.261,6.864c-2.543,1.388 -3.049,3.562 -2.829,6.358c0.409,4.859 2.083,9.167 4.639,13.124c2.965,4.639 4.775,9.842 6.325,15.505c-3.328,0.429 -5.949,-2.173 -8.265,-1.342c-4.165,1.511 -6.987,-0.584 -9.861,-2.998c-1.797,-1.492 -3.925,-1.92 -5.936,-2.699c-4.146,-1.55 -8.259,-2.951 -11.256,-7.071c-1.622,-2.219 -4.256,-3.438 -6.734,-4.464c-2.057,-0.862 -3.516,-0.285 -4.198,2.239c-0.434,1.738 -0.739,3.646 -2.251,4.729c-2.653,1.946 -2.089,4.451 -0.791,6.708c2.004,3.614 4.275,6.923 6.5,10.348c1.278,1.953 2.822,2.602 5.138,1.843c3.867,-1.292 3.899,-1.071 4.834,3.367c0.155,0.882 0.376,1.797 0.506,2.698c0.726,5.178 -4.276,10.063 -8.674,8.064c-5.541,-2.556 -11.516,-4.658 -14.889,-10.977c-0.344,-0.616 -0.792,-1.154 -1.239,-1.686c-1.298,-1.655 -2.699,-2.699 -4.762,-1.83c-2.29,0.993 -3.744,-0.506 -5.099,-2.251c-1.304,-1.719 -1.862,-3.724 -1.986,-6.046c-0.142,-2.706 0.519,-5.664 -0.616,-8.155c-1.693,-3.659 -1.797,-7.805 -3.776,-11.263c-0.85,-1.485 -0.934,-2.997 0.506,-4.437c4.068,-4.113 3.562,-9.861 2.809,-14.844c-0.596,-3.594 -2.017,-7.714 -5.131,-10.309c-3.517,-2.971 -8.441,-3.99 -10.004,-9.582c-0.299,-1.181 -1.933,-1.291 -2.965,-1.777c-2.537,-1.201 -4.6,-3.063 -5.962,-5.567c-2.478,-4.638 -4.652,-9.53 -7.097,-14.623c3.217,-0.915 4.988,0.617 6.091,3.406c1.797,4.451 4.983,7.714 9.018,8.758c2.855,0.753 5.164,4.256 8.616,2.505c0.571,-0.279 1.103,0.746 1.323,1.375c0.837,2.459 2.225,3.471 4.626,2.634c1.563,-0.526 2.841,0.396 4.184,1.226c6.494,4.353 13.378,7.558 21.039,8.531c2.609,0.331 5.158,1.369 7.293,3.244c1.751,1.518 3.736,2.245 5.851,2.621c19.839,3.549 35.896,-10.568 41.54,-29.668c0.604,-2.095 1.246,-4.56 0.286,-6.468c-2.316,-4.846 -2.478,-10.172 -3.484,-15.343c-0.525,-2.718 -1.44,-5.404 -3.614,-6.131c-3.782,-1.271 -5.002,-4.885 -7.129,-7.739c-0.993,-1.441 -1.953,-2.92 -3.03,-4.308c-0.5,-0.727 -1.609,-1.596 -2.076,-0.947c-2.589,3.483 -3.925,-0.046 -5.476,-1.175c-1.959,-1.401 -3.38,-3.438 -4.729,-5.566c-0.785,-1.291 -1.7,-2.88 -3.503,-0.915c-1.279,1.311 -2.148,-0.285 -2.557,-1.388c-1.485,-3.834 -4.294,-6.455 -6.812,-9.368c-4.937,-5.677 -10.633,-10.406 -16.108,-15.376c-2.362,-2.212 -5.184,-3.918 -8.012,-5.475c-2.303,-1.298 -5.002,-2.414 -7.604,-1.408c-1.953,0.727 -3.438,-0.136 -5.17,-0.454c-4.704,-0.934 -9.154,-4.438 -14.293,-2.011c-1.278,0.597 -2.685,-0.046 -3.075,-1.875c-0.395,-1.875 -1.927,-1.817 -2.919,-2.634c-3.406,-2.602 -8.064,-2.842 -10.601,-7.208c2.128,0.363 3.659,2.147 5.742,2.096c2.257,-0 3.912,-1.421 4.56,-4.101c0.597,-2.381 -0.155,-4.191 -2.212,-4.781c-2.991,-0.772 -5.242,-2.978 -7.649,-4.749c-0.966,-0.694 -2.082,-1.116 -3.185,-1.511c-0.818,-0.318 -1.882,-0.111 -1.849,1.057c0.233,3.834 -3.756,5.145 -3.471,9.439c-3.568,-2.919 -6.604,-5.099 -10.4,-5.254c-1.349,-0.085 -2.471,-0.085 -3.594,1.148c-2.037,2.27 -4.56,1.473 -4.904,-1.642c-0.318,-2.348 -1.356,-3.418 -3.264,-4.242c-2.997,-1.168 -5.404,-3.439 -7.447,-6.67c7.778,3.614 13.942,0.785 19.404,-5.157c0.441,-0.506 1.116,-0.675 1.667,-1.116c3.011,-2.459 3.011,-4.496 0.513,-7.701c-2.303,-3.062 -5.683,-4.749 -8.045,-7.759c-1.641,-2.147 -3.834,-3.296 -6.435,-3.062c-2.226,0.207 -3.945,-0 -4.451,-3.166c-0.266,-1.862 -1.693,-2.842 -3.659,-2.92c-3.678,-0.129 -5.761,1.512 -6.377,5.917c-0.409,2.868 -0.85,5.768 -0.571,8.752c0.13,1.07 -0.766,1.544 -1.732,1.291c-0.805,-0.221 -1.577,-0.597 -1.356,-1.83c0.117,-0.525 0.396,-1.012 0.675,-1.472c1.641,-2.745 1.115,-4.775 -1.577,-6.196c-0.571,-0.318 -1.044,-0.869 -0.804,-1.784c4.022,-1.466 5.975,-4.191 5.469,-7.603c-0.273,-2.148 -1.973,-3.296 -3.095,-4.775c-1.31,-1.81 -2.952,-0.993 -4.522,-0.396c-0.558,0.22 -1.278,-0.065 -1.881,-0.299c-1.778,-0.817 -2.459,0.111 -2.621,1.927c-0.805,7.63 -5.125,13.832 -7.098,20.994c-0.22,0.74 -0.849,1.135 -1.991,0.98c-0,-3.581 -1.804,-7.065 0.058,-10.867c0.526,-0.947 0.286,-2.537 0.13,-3.724c-0.253,-1.473 -0.519,-3.12 -2.063,-3.471c-1.499,-0.369 -2.524,0.85 -3.121,2.141c-4.139,8.739 -10.224,16.265 -12.813,25.964c-0.454,1.699 -1.219,3.295 -2.536,4.476c-0.902,-1.187 -0.461,-2.07 0.039,-2.777c1.596,-2.29 2.179,-4.917 2.16,-7.746c-0,-3.672 1.356,-6.702 3.263,-9.589c1.298,-1.861 2.712,-3.691 3.529,-5.949c0.383,-1.044 0.695,-2.147 -0.032,-3.12c-0.817,-1.09 -2.05,-1.544 -3.108,-0.714c-2.601,1.94 -3.782,0.085 -5.17,-1.927c-1.817,-2.582 -5.073,-2.582 -6.767,0.085c-0.681,0.992 -0.901,2.335 -1.985,3.081c-1.453,0.947 -1.576,2.459 -0.707,3.77c1.972,2.977 0.662,4.541 -1.83,5.981c-1.089,-1.232 -0.992,-3.237 -2.29,-4.23c-0.914,-0.739 -1.764,-1.881 -3.042,-1.226c-1.343,0.629 -1.084,2.102 -0.961,3.348c0.221,2.186 1.227,4.145 0.837,6.825c-1.297,-3.705 -3.899,-4.023 -6.675,-3.309c-0.422,-6.014 -2.083,-7.383 -6.819,-6.442c-1.336,0.272 -2.472,0.921 -3.594,1.654c-3.737,2.498 -3.659,2.556 -1.862,6.76c0.74,1.648 1.577,2.148 3.108,1.843c1.291,-0.299 2.601,-0.351 3.892,-0.617c0.993,-0.188 1.518,0.124 1.797,1.181c0.649,2.16 0,3.075 -2.257,3.095c-3.504,0.045 -3.718,0.136 -2.758,3.892c0.617,2.368 -1.18,2.161 -1.926,3.568c-1.058,-4.353 -3.458,-4.249 -6.845,-3.977c-2.854,0.221 -2.854,1.311 -2.874,3.471c-0.013,1.992 0.681,3.458 2.122,4.717c3.198,2.887 3.185,2.952 1.2,7.856c-1.94,-1.881 -2.997,-4.891 -5.599,-5.618c-1.09,0.681 -1.012,1.622 -1.181,2.537c-0.24,1.518 -0.175,3.801 -2.322,1.064c-0.675,-0.902 -1.843,0.266 -2.472,1.057c-1.635,2.083 -2.829,4.515 -3.445,7.24c-0.344,1.473 0.526,3.27 -1.051,4.866c-0.746,-1.972 -0.428,-3.737 -0.13,-5.443c0.396,-1.83 0.266,-3.627 -0.22,-5.424c-0.253,-1.057 -0.461,-2.238 -1.635,-2.459c-1.058,-0.22 -1.914,0.442 -2.543,1.311c-1.259,1.654 -1.668,3.977 -3.374,5.3c-3.373,-2.316 -3.438,-2.316 -2.361,-6.383c0.344,-1.311 0.674,-2.777 -0.682,-3.316c-2.478,-0.96 -4.495,-3.029 -7.253,-3.25c-2.887,-0.22 -3.704,0.584 -2.731,3.724c0.96,3.25 0.221,5.456 -1.739,7.902c-1.732,2.102 -3.879,3.691 -5.235,6.293c-1.083,2.082 -0.759,3.062 0.973,3.743c3.16,1.272 3.977,4.418 5.32,7.707c-2.083,-0.694 -2.459,-2.296 -3.075,-3.782c-0.415,-0.85 -1.09,-2.082 -1.713,-1.739c-3.043,1.629 -3.529,-1.148 -4.84,-2.867c-1.362,-1.966 -3.568,-2.05 -5.144,-0.331c-1.226,1.421 -2.135,3.361 -3.594,4.477c-2.699,2.017 -2.985,5.19 -3.329,8.174c-0.233,1.511 0.279,2.997 -0.46,4.651c-0.772,1.895 0.35,2.887 2.368,2.667c2.478,-0.273 4.574,-1.544 7.045,-4.249c-0.661,3.282 -1.135,5.352 -1.576,7.415c-1.661,0.409 -3.549,-1.071 -4.736,0.811c-1.512,2.244 -4.113,4.055 -3.328,7.525c0.441,2.187 -1.071,2.887 -1.973,4.101c0,-0.74 -0.064,-1.512 0,-2.206c0.377,-3.082 -1.641,-6.138 0.455,-9.401c0.901,-1.44 -1.071,-2.731 -2.602,-3.205c-1.641,-0.519 -2.478,0.318 -2.543,2.226c-0.065,2.147 -1.2,3.613 -2.491,5.611c-1.512,-3.756 -2.303,-6.61 0.616,-9.634c1.667,-1.719 1.81,-4.638 1.927,-7.227c0.032,-1.466 -0.746,-2.381 -2.005,-2.699c-1.135,-0.298 -2.063,0.175 -2.491,1.291c-0.681,1.895 -1.628,3.53 -2.932,4.989c-1.519,1.739 -2.025,3.783 -1.298,6.073c0.993,2.952 -0.143,5.397 -1.116,8.615c-0.285,-1.09 -0.409,-1.408 -0.512,-1.784c-0.584,-2.082 -1.136,-4.418 -3.056,-5.346c-1.797,-0.934 -0.947,2.083 -2.699,2.809c-2.828,1.045 -5.521,3.646 -5.962,7.701c-0.188,1.389 0.253,3.426 1.2,3.062c3.011,-1.323 5.379,1.96 8.201,0.649c-0,1.265 -0.396,2.005 -1.116,2.543c-3.568,2.602 -7.967,3.614 -10.951,7.286c-0.273,0.318 -1.012,0.551 -1.376,0.363c-4.223,-1.862 -6.922,0.409 -9.225,4.055c-0.234,0.428 -0.727,0.791 -1.181,0.96c-4.561,1.92 -4.333,6.896 -5.456,10.899c-0.331,1.35 0.74,1.966 1.921,1.447c0.557,-0.253 1.232,-0.785 1.453,-1.401c2.368,-6.157 9.186,-6.183 12.365,-11.204c0.318,-0.474 1.2,-0.695 1.784,-0.695c4.97,0.143 9.699,-0.408 13.293,-4.762c0.454,-0.538 1.168,-1.219 1.765,-0.817c2.381,1.654 2.997,-0.487 4.574,-1.797c2.225,-1.927 4.087,-4.58 6.909,-5.566c1.511,1.524 1.816,2.867 -0.221,4.333c-1.576,1.084 -2.978,2.725 -1.927,4.957c1.246,2.699 0.065,5.3 0.87,7.882c-1.09,0 -1.246,-0.519 -1.486,-1.012c-1.927,-4.632 -2.53,-4.742 -5.462,-1.005c-0.344,0.408 -0.85,0.739 -0.954,1.2c-1.252,4.749 -4.58,6.28 -8.473,7.117c-1.622,0.344 -3.315,5.3 -2.348,6.799c1.167,1.816 2.582,0.869 3.912,0.032c1.544,-1.044 2.29,-3.438 4.418,-3.815c0.687,3.744 -1.992,5.521 -2.978,8.065c-0.396,1.089 -1.006,0.395 -1.544,-0c-2.569,-1.817 -4.431,0.097 -5.275,2.108c-1.323,3.237 -3.938,5.651 -3.659,9.939c0.143,2.459 -1.349,5.235 -4.022,6.384c-2.173,1.044 -4.094,2.368 -3.938,5.586c0,1.012 -0.837,1.466 -1.401,2.102c-3.932,4.255 -5.443,9.322 -4.386,15.33c0.046,0.538 0.273,1.258 -0.233,1.433c-3.705,1.116 -3.108,6.267 -6.248,8.045c-1.408,0.818 -2.361,3.062 -0.564,4.606c2.147,1.875 1.18,3.88 0.155,5.281c-2.348,3.38 -3.879,7.085 -5.3,11.042c-1.401,3.867 -1.622,3.789 2.212,7.02c-7.46,-1.259 -8.408,5.962 -11.943,9.478c-0.902,0.869 -0.883,2.725 -0.493,4.243c0.272,0.869 0.648,1.693 0.759,2.569c0.441,3.218 -0.403,4.042 -3.03,2.666c-1.388,-0.726 -2.543,-1.135 -3.51,0.312c-3.607,5.573 -8.881,9.971 -10.088,17.322c-0.117,0.648 -0.474,1.466 -0.947,1.816c-3.238,2.173 -3.724,4.95 -1.233,8.123c-1.719,0.83 -3.03,1.466 -4.353,2.147c-0.83,0.409 -1.797,0.61 -2.147,-0.441c-0.785,-2.667 -3.802,-2.018 -4.86,-4.353c-0.661,-1.531 -1.797,-1.038 -2.906,-0.253c-0.96,0.674 -1.959,1.278 -2.978,1.907c-1.576,0.934 -1.829,1.596 -0.194,3.075c1.738,1.512 1.511,4.133 1.576,6.338c0.013,1.246 -0.96,2.634 -2.647,2.855c-0.065,-0.597 -0.065,-1.09 -0.188,-1.609c-0.882,-3.166 -2.005,-4.087 -4.009,-3.166c-1.953,0.85 -2.148,1.933 -0.597,5.138c0.694,1.421 0.674,2.316 -0.617,3.088c-1.122,0.727 -2.647,1.149 -3.107,2.602c-0.74,2.699 -2.186,3.633 -4.619,3.834c-1.707,0.169 -3.043,1.726 -2.868,3.867c0.169,2.004 0.681,4.009 2.952,4.509c0.817,0.155 2.128,-0.396 2.271,1.466c-1.259,1.408 -2.777,0.551 -4.152,0.408c-2.005,-0.272 -3.899,-0.032 -5.807,0.76c-1.81,0.674 -2.653,1.751 -2.653,3.989c0.052,3.452 -0.065,3.452 -2.978,2.537c-2.978,-0.947 -3.86,-0.169 -3.691,3.341c-0,0.811 1.154,1.408 0.415,2.42c-1.012,0.136 -1.972,0.318 -2.965,0.506c-3.815,0.577 -3.802,0.577 -4.704,5.093c-0.097,0.675 -0.564,1.291 -0.901,1.907c-2.206,3.536 -2.427,5.333 -0.065,8.629c1.187,1.635 1.356,2.737 0.35,4.288c-1.369,2.277 -1.985,4.833 -1.025,7.337c1.077,2.797 0.61,5.268 -0.156,7.967c-1.044,3.562 -0.681,7.098 2.187,9.433c1.797,1.408 1.401,2.245 0.408,3.899c-1.836,3.056 -1.485,4.73 0.896,7.02c0.681,0.661 2.082,0.272 2.134,1.985c-0.616,0.934 -1.356,1.92 -2.005,2.984c-1.148,1.83 -1.621,3.899 -0.188,5.547c1.707,2.005 0.98,3.38 -0.129,5.255c-1.674,2.829 -2.128,6.105 -2.161,9.433c0,0.727 0.299,1.499 1.045,1.739c0.674,0.22 1.401,-0 1.576,-0.824c1.077,-4.353 4.97,-2.615 7.338,-4.146c0.597,-0.396 1.511,0.539 1.667,1.596c0.195,1.116 -2.699,6.799 -3.659,6.702c-3.309,-0.363 -3.056,2.459 -3.653,4.638c-0.96,3.406 0.584,5.852 2.317,8.467c3.334,4.937 9.342,5.949 12.462,11.061c0.143,0.169 0.642,0.234 0.96,0.221c2.531,-0.364 4.671,0.726 6.923,1.777c1.472,0.746 3.081,0.195 4.197,-0.863c2.16,-2.004 4.541,-3.393 7.175,-4.366c1.181,-0.441 2.433,-1.472 3.134,-2.608c2.666,-4.619 7.006,-7.662 9.517,-12.586c1.401,-2.822 3.374,-4.852 6.65,-4.632c2.459,0.188 3.815,-1.434 4.723,-3.957c1.07,-2.842 2.031,-5.651 2.031,-8.895c0.674,3.594 1.135,7.046 4.885,8.278c1.784,0.552 1.531,2.349 1.485,4.12c-0.35,6.514 0.377,12.67 3.484,18.457c1.2,2.193 1.953,4.652 2.933,6.929c0.966,2.219 2.698,4.918 2.478,7.11c-0.461,4.464 0.96,7.909 2.368,11.847c1.972,5.586 4.184,10.678 8.109,14.83c0.759,0.772 1.369,1.765 0.694,2.887c-3.347,5.236 -6.027,11.295 -12.826,11.847c-0.661,0.052 -1.498,0.162 -1.621,0.947c-0.571,3.347 -2.797,4.197 -5.268,4.892c-0.935,0.259 -1.369,1.557 -0.805,2.218c1.966,2.388 2.018,5.158 2.251,8.129c0.078,1.544 1.402,2.855 2.829,3.542c0.753,0.318 1.687,0.24 2.361,0.695c1.311,0.837 1.454,2.465 1.123,3.821c-0.351,1.278 -1.531,1.031 -2.491,0.694c-2.537,-0.889 -4.743,-1.881 -5.398,-5.346c-0.487,-2.679 -1.577,-5.209 -2.413,-7.746c-0.695,-2.05 -1.525,-3.01 -3.945,-2.919c-3.406,0.136 -6.325,2.05 -9.602,2.335c0.137,0.714 0.279,1.401 0.39,2.115c1.31,6.754 4.969,10.491 11.282,10.601c-0,1.764 -0.208,3.237 0.045,4.619c0.311,1.486 1.025,3.03 2.725,1.213c0.992,-1.09 1.894,-0.318 2.543,0.396c2.932,3.516 7.162,1.752 10.581,3.244c0.727,0.318 1.2,-0.409 1.453,-1.103c0.377,-0.805 0.805,-1.622 0.915,-2.517c0.571,-4.483 0.805,-9.012 4.224,-12.385c1.057,-1.136 0.064,-2.757 -0.597,-4.055c-0.519,-1.044 -0.597,-2.102 0.311,-2.932c0.681,-0.617 1.401,-1.11 2.245,-0.669c0.739,0.344 0.869,1.038 0.662,1.81c-0.883,3.27 1.057,3.614 3.185,4.068c2.744,0.604 5.171,-0.96 7.779,-1.044c6.935,-0.266 6.935,-0.279 6.935,-7.915c0.019,-5.275 3.886,-9.634 8.791,-9.732c1.965,-0.051 3.957,0.098 5.916,0.143c5.08,0.091 5.08,0.033 6.702,-5.047c0.616,-1.849 1.31,-3.672 2.03,-5.755c1.038,1.609 0.286,2.822 0.208,4.023c-0.084,1.291 -0.383,2.9 1.096,3.25c1.343,0.285 1.739,-1.356 2.355,-2.413c0.059,-0.111 0.189,-0.312 0.208,-0.487c1.843,-7.727 4.665,-15.187 5.949,-23.79c-3.263,0.74 -3.38,3.503 -4.165,5.644c-0.837,2.336 -1.07,5.002 -3.36,7.701c-0.468,-4.113 0.363,-7.448 1.102,-10.503c0.831,-3.595 1.077,-7.085 1.356,-10.744c0.474,-6.487 1.797,-12.995 1.733,-19.515c-0.046,-3.548 1.355,-4.969 3.438,-6.085c3.172,-1.706 5.651,-4.386 9.225,-5.761c3.659,-1.486 6.28,-6.241 8.486,-10.296c0.772,-1.498 0.13,-2.458 -1.421,-2.569c-0.629,-0.032 -1.31,0.377 -2.082,-0.493c3.438,-1.667 5.015,-5.08 6.656,-8.44c0.772,-1.609 1.473,-3.627 0.506,-5.242c-2.29,-3.828 -3.626,-8.363 -6.766,-11.509c-0.831,-0.844 -1.798,-1.609 -2.258,-2.829c-0.616,-1.894 -1.7,-2.809 -3.562,-3.237c-3.458,-0.804 -5.521,-3.023 -6.215,-7.363c-0.98,-5.976 -1.044,-12.002 -1.434,-18.062c-0.11,-1.492 0.046,-2.939 1.752,-3.438c2.225,-0.649 2.018,-2.615 1.687,-4.451c-0.441,-2.361 -0.506,-4.729 0.175,-7.065c0.993,-3.373 1.343,-6.753 -0.895,-10.393c4.035,-0.506 5.884,-2.854 6.137,-6.779c0.065,-0.915 -0,-2.291 0.726,-2.511c5.236,-1.641 5.697,-7.617 8.519,-11.451c1.343,-1.862 2.763,-3.237 4.496,-4.684c3.6,-2.893 6.766,-6.39 10.951,-8.297c0.22,-0.137 0.35,-0.74 0.616,-0.837c7.383,-3.121 10.711,-10.348 14.26,-17.348c0.85,-1.564 1.875,-2.842 3.315,-3.977c2.997,-2.336 3.237,-4.405 1.31,-7.98c-0.493,-0.934 -1.356,-1.654 -1.738,-2.647c-1.201,-3.049 -2.31,-5.884 0.305,-9.069c2.348,-2.842 3.782,-6.494 2.348,-10.646c-0.739,-2.161 0.273,-3.757 1.804,-4.529c3.938,-1.998 6.26,-5.456 7.616,-9.9c0.779,-2.459 2.855,-3.613 5.54,-2.394c2.07,0.947 3.569,1.097 5.444,-0.415c1.355,-1.057 3.237,-0.96 4.742,-0.136c1.849,1.005 3.25,1.641 5.333,-0.046c1.375,-1.025 3.724,0.902 4.619,2.083c2.277,2.945 5.281,4.989 7.162,8.298c1.479,2.601 2.478,5.17 2.005,8.278c-0.221,1.459 -0.24,2.861 -0.013,4.34c0.616,3.802 0.396,4.548 -2.952,5.566c-4.016,1.2 -5.852,3.919 -6.896,8.252c-1.2,5.08 -4.756,8.785 -7.682,12.638c-4.398,5.807 -8.576,11.639 -11.716,18.341c-1.706,3.458 -4.373,5.994 -6.611,8.894c-1.291,1.693 -3.049,2.148 -4.905,2.037c-1.621,-0.032 -3.438,0.357 -3.548,2.187c-0.156,3.678 -2.946,5.099 -4.619,7.207c-3.854,4.723 -4.308,9.848 -2.511,15.337c0.928,2.835 1.485,5.579 1.103,8.577c-0.286,2.063 0.363,3.847 1.057,5.754c1.466,3.834 1.778,7.779 1.817,12.119c-0,6.559 -3.341,12.696 -1.531,19.385c0.668,2.381 0.895,4.223 3.568,5.138c3.244,1.077 5.676,4.152 8.959,5.618c1.797,0.837 1.953,3.568 0.993,5.904c-0.409,1.044 -1.564,2.271 -0.364,3.438c1.233,1.103 2.732,1.201 4.146,0.331c0.811,-0.46 1.291,-2.147 2.4,-1.245c1.175,0.914 1.233,2.491 0.902,3.989c-0.188,0.837 -0.973,1.687 -0.142,2.459c0.96,0.87 1.991,0.221 2.685,-0.46c1.259,-1.272 2.81,-1.577 4.367,-2.096c6.494,-2.193 12.981,-4.476 19.274,-7.162c6.767,-2.881 13.579,-5.534 20.52,-7.837c0.792,-0.266 1.817,-0.87 2.368,-0.552c3.899,2.07 7.714,-0.674 11.626,0c2.193,0.377 3.315,-2.102 5.819,-3.282c-1.654,4.333 -1.012,7.428 2.511,9.621c2.984,1.881 5.476,4.891 9.453,3.38c0.869,-0.364 2.004,-0.273 2.9,0.013c1.297,0.396 2.543,1.401 2.147,3.14c-0.35,1.7 -1.817,1.31 -2.887,1.025c-3.529,-1.155 -6.293,-0.649 -9.401,2.4c-1.861,1.83 -5.092,3.672 -8.31,3.023c-2.135,-0.421 -2.576,0.935 -2.809,2.745c-0.792,5.255 -0.792,5.255 -5.346,5.332c-3.095,0.098 -6.04,-0.201 -9.024,-1.926c-3.77,-2.174 -8.168,-2.602 -12.333,-3.594c-0.454,-0.078 -1.181,-0.13 -1.421,0.188c-3.198,4.418 -8.168,2.653 -12.164,3.97c-4.542,1.499 -7.993,5.002 -12.398,6.598c-2.271,0.785 -2.537,3.756 -2.271,6.17c0.422,3.626 0.643,7.253 0.896,10.847c0.253,3.691 1.816,6.786 5.365,8.531c2.206,1.09 3.691,0.35 5.268,-0.772c1.498,1.233 0.538,2.491 0.441,3.627c-0.74,6.059 -1.486,12.047 -1.2,18.113c0.065,1.083 0.065,2.238 -0.078,3.322c-0.409,3.678 -2.05,5.585 -5.275,6.299c-2.439,0.526 -4.722,-0.545 -5.962,-3.691c-1.875,-4.84 -5.663,-8.071 -8.122,-12.411c-0.584,-1.045 -1.486,-1.265 -2.556,-1.168c-6.767,0.759 -11.405,5.313 -13.118,12.949c-0.584,2.323 -0.967,4.619 -2.147,6.721c-3.218,5.723 -3.329,12.236 -2.998,18.626c0.188,3.406 0.584,6.936 0.967,10.38c0.61,5.015 -0.616,9.388 -3.38,13.365c-1.531,2.173 -3.205,4.1 -6.027,4.145c-2.316,0.033 -3.659,1.564 -3.899,4.107c-0.578,6.449 -5.735,9.744 -11.782,10.315c-1.31,0.124 -2.225,-0.11 -2.822,-1.531c-0.506,-1.31 -0.772,-2.303 0.675,-3.153c2.083,-1.18 1.168,-2.757 0.078,-4.022c-2.096,-2.387 -4.918,-3.153 -7.746,-2.796c-7.772,1.012 -15.22,3.49 -21.357,9.121c-3.562,3.264 -7.318,5.508 -11.782,6.423c-4.846,1.012 -8.739,4.191 -12.696,7.033c-3.03,2.115 -3.996,2.335 -5.794,-1.012c-1.226,-2.362 -2.043,-5.061 -5.91,-5.009c4.276,-2.653 4.918,-4.197 4.224,-7.701c-0.506,-2.413 -2.213,-3.153 -3.945,-3.626c-1.706,-0.474 -2.491,1.22 -2.757,2.511c-0.804,3.23 -1.992,4.405 -4.749,2.238c-2.024,-1.577 -3.879,-0.597 -5.171,1.31c-1.706,2.446 -3.853,3.945 -6.487,4.717c-0.895,0.24 -1.927,0.83 -2.569,1.544c-2.174,2.433 -4.743,3.03 -7.915,2.699c-0.175,-1.921 1.531,-2.615 2.147,-3.958c1.188,-2.776 -0.065,-5.313 -2.614,-4.496c-3.367,1.077 -5.508,-2.205 -8.486,-1.972c-0.85,0.046 -1.972,-6.007 -1.453,-7.493c1.473,-4.295 1.057,-5.411 -2.647,-6.922c-0.584,-0.286 -1.265,-0.286 -2.031,-0.383c1.278,-3.283 -0.129,-6.754 1.259,-9.829c1.907,-4.671 6.844,-7.13 7.571,-12.683c0.032,-0.285 0.785,-0.526 1.246,-0.597c1.355,-0.188 2.413,-1.09 3.503,-1.94c1.862,-1.609 2.854,-3.581 2.225,-6.215c-0.649,-2.459 -2.465,-2.595 -4.373,-2.459c-2.322,0.143 -3.334,-1.2 -3.153,-3.723c0.156,-3.646 0.013,-7.351 1.798,-10.692c0.96,-1.752 1.589,-3.646 1.115,-5.761c-0.506,-2.316 -0.83,-4.619 -0.545,-7.065c0.234,-1.726 -0.726,-2.446 -2.147,-1.628c-2.965,1.66 -6.196,3.14 -7.837,6.455c-2.147,4.353 -5.287,6.228 -9.53,6.734c-2.92,0.344 -5.456,1.953 -6.637,5.08c-2.336,6.468 -4.275,13.15 -3.899,20.273c0.233,3.828 1.006,7.617 0.882,11.483c-0.097,1.596 0.299,2.972 1.94,3.283c3.601,0.805 3.912,3.834 4.055,7.162c0.162,4.749 0.097,9.576 2.621,13.774c0.707,1.226 0.752,2.394 -0.156,3.496c-1.408,1.72 -1.343,3.238 -0.318,5.385c1.453,3.108 2.401,6.546 -1.466,8.862c-0.746,0.441 -1.07,1.81 -1.421,2.809c-0.778,2.459 -1.738,3.199 -3.99,1.609c-4.911,-3.516 -8.758,-2.718 -12.852,2.362c-0.791,0.979 -1.518,2.18 -2.809,1.862c-3.328,-0.805 -6.468,0.85 -9.744,0.96c-6.501,0.233 -9.634,6.105 -7.097,12.599c0.713,1.991 0.713,3.672 -0.13,5.17c-0.902,1.655 -1.2,3.471 -1.862,5.742c-0.597,-1.136 -1.071,-1.622 -1.006,-2.083c0.188,-3.977 2.076,-8.116 -1.408,-11.574c-0.35,-0.279 0.273,-1.706 0.377,-2.556c0.175,-1.057 1.031,-2.004 -0.143,-3.38c-2.16,1.408 -3.86,3.614 -3.899,6.293c-0.13,10.445 -3.562,19.119 -10.27,26.294c-0.668,0.675 -1.265,1.324 -0.616,2.291c1.044,1.563 0.778,2.368 -0.96,2.244c-1.72,-0.084 -1.986,1.94 -2.998,2.44c-4.839,2.238 -8.693,6.565 -14.006,7.902c-6.624,1.686 -8.266,4.087 -9.012,11.755c-0.077,1.057 -0.253,2.238 -0.026,3.25c0.487,2.621 -0.739,4.152 -2.316,5.644c-2.082,1.96 -4.684,2.634 -7.162,3.647c-3.633,1.511 -7.052,3.282 -7.441,8.433c-0.098,2.07 -1.771,2.544 -3.14,2.998c-3.426,1.206 -10.101,-1.622 -12.177,-4.97c-1.233,-2.005 -6.021,-3.328 -7.889,-2.238c-1.544,0.882 -1.642,3.795 -0.234,7.065c0.059,0.136 0.136,0.331 0.234,0.461c2.413,3.814 2.562,8.135 2.446,12.819c-2.511,-0.461 -4.827,0.156 -6.988,0.681c-3.029,0.72 -5.443,0.279 -7.681,-2.134c-2.511,-2.654 -5.586,-2.193 -8.239,-0.694c-1.83,1.09 -3.627,1.609 -5.566,1.907c-2.777,0.409 -5.521,1.323 -7.747,3.38c-1.576,1.479 -2.776,3.276 -0.804,5.521c1.155,1.278 1.369,2.601 1.187,4.418c-0.272,3.01 3.912,7.033 6.481,6.202c2.757,-0.869 5.145,-0.032 7.065,1.518c4.308,3.497 10.14,3.912 13.864,8.771c1.298,1.668 3.38,2.206 2.193,5.048c-0.454,1.103 -0.065,2.193 0.564,3.094c2.699,3.835 4.405,8.759 9.122,10.348c2.238,0.779 3.373,3.283 2.965,5.19c-0.818,3.705 0.188,7.188 -0.033,10.776c-0.395,6.39 -0.895,12.774 -1.576,19.151c-0.552,4.743 -1.421,9.427 -2.193,14.13c-0.506,2.829 -2.05,4.405 -4.775,4.542c-2.511,0.207 -4.924,0.097 -7.415,-0.221c-5.19,-0.707 -10.491,-1.875 -15.668,-1.401c-5.177,0.486 -10.081,0.097 -15.155,-0.902c-5.242,-1.07 -10.471,-3.484 -15.966,-0.934c-0.545,0.227 -1.271,0.045 -1.952,0.045c-4.003,0.143 -7.837,-0.83 -11.626,-2.335c-4.775,-1.862 -7.668,-0.63 -10.199,4.262c-0.837,1.622 -1.836,2.459 -3.471,2.569c-1.141,0.104 -2.316,0.201 -3.386,0.597c-4.515,1.784 -5.242,4.885 -2.809,9.524c2.245,4.23 4.431,8.583 3.03,13.916c-0.409,1.634 0.279,3.23 0.564,4.859c0.662,3.938 2.459,8.265 1.641,11.833c-2.205,9.874 -2.478,20.203 -7.065,29.623c-3.756,7.759 -3.756,12.728 4.178,16.893c1.408,0.753 1.408,1.927 1.356,3.121c-0.233,4.917 0.506,9.861 -1.077,14.746c-1.226,3.925 -0.065,5.443 3.724,5.398c5.015,-0.033 9.991,0.914 15.064,-1.473c5.177,-2.439 9.278,0.525 11.659,6.468c1.115,2.874 2.238,5.742 4.1,8.136c2.744,3.581 7.292,4.891 9.543,2.05c2.634,-3.316 6.027,-4.749 9.258,-6.767c3.205,-2.005 6.409,-2.588 9.906,-2.816c5.385,-0.343 10.744,0.649 16.2,-0.123c3.704,-0.538 5.949,-1.875 7.019,-5.488c1.434,-4.684 4.224,-7.318 8.506,-8.097c2.381,-0.376 3.782,-1.544 4.463,-4.288c1.246,-5.067 3.38,-9.582 7.668,-12.372c0.695,-0.428 1.278,-1.168 1.797,-1.862c1.356,-1.829 1.486,-3.458 -0.343,-5.255c-5.061,-4.872 -5.314,-8.421 -1.402,-14.448c3.549,-5.54 7.117,-11.029 10.426,-16.738c1.486,-2.4 3.043,-4.405 5.579,-5.047c7.623,-2.024 13.3,-7.785 19.697,-12.262c2.912,-2.082 4.995,-8.706 3.431,-12.066c-1.342,-2.81 -1.135,-5.677 -1.634,-8.506c-0.526,-2.841 0.545,-4.982 2.88,-6.325c1.875,-1.148 3.691,-2.433 5.521,-3.692c0.993,-0.746 2.083,-1.355 3.205,-0.836c5.612,2.634 11.892,1.952 17.49,4.989c6.391,3.347 8.441,2.348 13.488,-2.9c3.062,-3.218 5.677,-7.318 10.296,-8.097c3.815,-0.681 6.689,-2.491 8.726,-6.403c1.343,-2.712 3.659,-5.138 6.812,-4.477c5.3,1.123 9.4,5.002 13.929,7.98c0.33,0.188 0.441,0.928 0.616,1.421c1.181,3.659 2.764,7.208 3.328,10.964c0.551,4.055 2.757,6.507 5.112,9.063c2.271,2.413 2.381,7.649 7.162,6.909c0.344,-0.084 0.935,0.519 1.155,0.974c2.349,4.288 6.637,6.468 9.18,10.613c1.499,2.368 3.724,4.12 5.69,6.124c1.622,1.655 3.484,2.57 5.806,2.271c3.88,-0.551 6.358,1.596 8.616,5.015c1.927,2.868 3.912,6.403 8.012,6.157c1.31,-0.065 2.031,1.103 2.258,2.459c0.901,5.19 4.054,7.473 8.408,8.297c0.493,0.098 1.057,0.299 1.135,0.837c1.103,5.794 4.385,10.646 5.281,16.55c0.117,0.759 0.227,1.622 -0.396,1.985c-2.206,1.401 -3.218,3.38 -3.263,6.248c-0.065,1.226 -1.246,2.017 -2.433,2.381c-5.553,1.751 -11.139,3.276 -16.796,4.307c-2.667,0.493 -5.281,0.286 -7.604,-1.485c-3.782,-2.874 -7.539,1.012 -11.34,0.097c-0.617,-0.13 -1.187,1.135 -1.512,1.985c-1.31,3.218 0.046,7.876 3.095,8.674c6.565,1.771 10.951,8.207 17.588,9.725c0.83,0.169 1.511,1.382 2.283,2.044c1.058,0.869 2.05,1.881 3.238,2.51c4.606,2.479 7.778,0.364 8.122,-5.3c0.058,-0.902 -0.026,-1.914 -0.344,-2.699c-2.024,-4.749 0.221,-8.518 2.173,-12.333c0.649,-1.278 1.324,-1.498 2.732,-0.506c3.055,2.115 4.463,1.616 6.371,-1.907c0.895,-1.778 1.81,-3.516 3.341,-4.652c1.343,-1.044 1.907,-2.601 1.907,-4.333c0,-2.459 0.98,-3.925 2.919,-5.145c3.835,-2.459 4.464,-7.947 1.421,-11.529c-1.025,-1.2 -2.251,-2.225 -3.373,-3.217c-2.543,-2.213 -1.181,-4.814 -0.279,-7.007c0.973,-2.413 2.238,-5.015 5.06,-5.521c0.409,-0.045 0.993,0.234 1.356,0.551c3.12,2.511 7.493,3.205 9.31,7.727c0.266,0.805 1.09,1.343 1.751,1.817c1.123,0.817 2.226,0.726 3.036,-0.617c0.785,-1.407 1.7,-3.14 0.954,-4.638c-2.206,-4.438 -4.132,-9.576 -8.499,-11.639c-6.403,-2.997 -11.69,-8.298 -18.392,-10.536c-2.193,-0.759 -3.049,-2.063 -1.408,-4.904c1.752,-3.186 0,-5.82 -3.295,-5.709c-1.499,0.012 -2.972,0.408 -4.418,0.382c-1.798,-0.11 -3.783,1.09 -5.294,-0.305c-4.684,-4.275 -10.192,-7.681 -12.353,-14.603c-0.947,-3.134 -2.03,-6.196 -2.99,-9.316c-0.727,-2.258 -1.408,-4.548 -3.264,-6.027c-2.491,-2.031 -4.891,-4.587 -7.713,-5.852c-6.203,-2.744 -6.799,-9.53 -5.236,-15.272c0.675,-2.524 0.83,-4.288 -0.571,-6.611c-1.635,-2.601 -0.915,-4.191 1.972,-5.268c1.895,-0.707 3.659,-1.641 5.411,-2.647c2.063,-1.219 4.146,-1.894 6.481,-0.914c-1.486,4.619 -1.181,7.253 1.246,12.144c1.155,2.303 2.193,4.84 5.235,2.842c1.025,-0.662 1.473,0.175 1.959,0.947c0.519,0.837 0.824,2.05 2.051,1.92c0.551,-0.311 0.616,-0.804 0.674,-1.388c0.085,-1.304 -0.739,-3.263 1.233,-3.484c1.622,-0.155 2.712,0.993 2.978,2.972c0.298,2.439 1.356,4.554 2.952,6.241c0.609,0.635 1.226,1.323 0.927,2.329c-1.135,4.041 1.376,6.079 3.581,8.278c2.005,1.914 3.783,4.295 5.774,5.839c3.173,2.458 5.833,7.292 10.912,5.462c1.674,-0.603 3.205,0.221 3.426,2.044c0.11,1.421 -1.466,1.719 -2.602,1.881c-0.506,0.078 -1.005,0.046 -1.479,0.136c-0.817,0.176 -1.784,0.383 -1.751,1.551c0.032,1.414 1.083,1.622 2.115,1.765c0.454,0.09 1.012,0.09 1.453,-0.033c4.411,-1.674 8.31,0.74 11.684,2.777c6.786,4.152 12.618,9.906 17.588,16.628c0.434,0.603 0.817,1.349 0.545,2.017c-1.732,4.386 -0.279,9.089 -1.116,13.598c-1.2,6.41 -1.862,12.794 4.969,16.401c1.486,0.778 0.552,1.881 -0.24,3.03c-1.563,2.257 0.24,7.318 2.647,7.888c1.187,0.279 1.882,-0.395 2.148,-1.654c0.155,-0.882 -0.682,-1.687 -0,-2.588c3.373,5.365 6.922,10.691 9.238,16.725c1.44,3.684 3.095,6.318 7.162,5.235c-0.052,1.784 -1.187,1.544 -1.764,2.096c-3.945,4.054 -3.945,8.252 0.266,11.937c1.764,1.544 2.698,3.081 2.004,5.598c-0.24,0.837 -0.24,1.843 -0.116,2.712c0.441,3.757 2.238,4.749 5.527,3.043c0.973,-0.5 1.648,-0.331 2.076,0.584c0.564,1.278 0.96,2.686 1.401,4.055c0.305,0.901 0.552,1.894 1.428,2.115c1.226,0.35 1.634,-0.818 2.082,-1.81c0.331,-0.753 0.454,-1.849 1.447,-1.72c2.543,1.278 1.576,3.77 1.862,5.852c0.13,1.084 0.674,2.096 1.862,2.173c1.317,0.091 1.641,-1.025 1.764,-2.173c0.24,-3.062 0.779,-6.157 0,-9.277c-0.454,-1.758 -1.18,-3.627 -1.025,-5.365c0.221,-2.362 2.822,-1.83 4.165,-3.011c1.512,-1.278 2.024,-2.329 0.74,-4.002c-0.422,-0.539 -1.025,-0.961 -1.466,-1.447c-0.694,-0.811 -1.499,-1.706 -1.012,-2.887c0.545,-1.453 1.939,-1.116 3.029,-0.947c0.772,0.077 1.531,0.629 2.206,1.115c4.652,3.205 4.619,3.205 4.859,-3.12c0.065,-0.454 0.156,-0.96 0.221,-1.233c3.659,2.92 7.882,4.873 10.977,8.661c0.344,0.351 0.902,0.584 1.349,0.617c0.448,0.077 0.967,-0.098 1.33,-0.429c0.597,-0.486 0.675,-1.466 0.143,-1.875c-2.083,-1.595 -2.984,-4.275 -4.781,-6.182c-2.083,-2.206 -5.456,-3.296 -6.248,-6.676c-0.752,-3.328 -2.446,-4.918 -5.242,-5.793c-2.965,-0.928 -6.007,-3.153 -6.468,-6.196c-0.597,-3.782 -2.349,-6.241 -4.275,-8.985c-1.733,-2.42 -2.758,-5.411 -3.549,-8.395c-0.461,-1.797 -0.792,-3.912 0.934,-5.521c2.569,1.7 4.95,3.244 6.293,6.228c0.513,1.168 1.265,2.238 2.433,2.614c1.894,0.617 3.438,-2.147 5.527,-0.882c0.325,0.156 0.5,-1.122 0.5,-1.894c0.052,-1.188 -1.466,-1.96 -0.804,-3.251c1.673,-0.266 2.776,2.252 4.651,1.071c-0.363,-3.821 -3.847,-4.431 -5.469,-7.065c2.128,-2.193 4.885,-2.329 6.955,-4.12c0.233,0.746 0.454,1.09 0.421,1.376c-0.343,1.751 -0.473,3.49 1.616,3.782c1.907,0.272 2.303,-1.213 2.666,-3.062c0.649,-3.186 1.706,-3.705 4.619,-3.108c4.717,1.006 9.09,3.01 12.813,6.669c-0.408,0.727 -1.025,1.596 -1.375,2.557c-0.597,1.544 -1.168,3.393 0.188,4.593c1.486,1.369 2.92,-0 3.815,-1.2c2.634,-3.627 6.5,-5.632 9.42,-8.869c4.385,-4.924 9.465,-6.196 15.33,-4.762c1.499,0.383 2.932,0.409 4.34,-0.266c1.512,-0.668 2.472,-1.816 2.472,-3.691c0.065,-1.81 -1.025,-2.524 -2.361,-3.043c-2.038,-0.824 -3.99,-1.654 -5.917,-2.686c-1.706,-0.915 -3.549,-2.206 -3.659,-4.256c-0.234,-4.463 -2.381,-7.921 -4.12,-11.593c-0.96,-2.082 -1.116,-3.802 0.779,-5.222c1.764,-1.324 1.985,-3.251 1.952,-5.379c0,-3.231 1.22,-5.644 4.153,-6.611c2.361,-0.772 3.328,-2.77 3.892,-5.222c0.792,-3.075 0.506,-6.17 0.597,-9.29c0.065,-1.862 -0.091,-3.86 1.233,-5.171c2.095,-2.082 3.672,-4.905 6.273,-6.118c3.659,-1.725 4.691,-4.859 4.561,-8.849c-0,-1.453 0.065,-2.952 -0,-4.366c-0.065,-3.12 1.245,-5.651 3.646,-6.656c2.971,-1.2 4.353,-3.503 5.599,-6.468c0.895,-2.115 2.303,-4.023 3.561,-5.885c2.135,-3.107 5.521,-2.899 8.454,-3.736c0.597,-0.156 0.96,0.772 1.343,1.368c1.31,1.862 2.698,3.614 2.977,6.105c4.25,0.779 7.682,5.288 12.586,3.14c2.764,-1.232 5.599,-0.999 9.291,1.7c-5.917,0.649 -9.025,4.574 -12.476,7.824c-2.063,1.907 -1.784,3.724 0.753,4.133c2.757,0.473 4.619,2.666 7.064,3.704c1.609,0.727 2.115,2.245 2.174,4.029c-0,1.414 -0.123,2.913 -0.221,4.385c-0.168,3.134 0.837,4.86 3.491,5.541c1.751,0.409 3.659,0.616 5.28,-0.603c4.133,-3.03 8.331,-5.976 12.573,-8.83c2.686,-1.784 4.607,-3.789 7.837,-2.147c2.498,1.278 5.807,0.674 7.007,-1.032c2.647,-3.795 4.022,-0.785 5.735,0.493c0.759,0.597 1.246,1.687 1.726,2.615c1.382,2.614 2.887,4.95 6.007,4.95c0.617,-0 1.421,0.279 1.797,0.778c2.887,3.549 7.007,4.697 10.666,6.754c3.094,1.777 5.93,4.003 7.902,7.318c1.388,2.4 3.516,3.782 5.41,5.54c1.136,0.947 2.349,1.434 3.646,0.616c3.173,-1.92 6.086,-0.791 9.025,0.617c4.872,2.316 9.919,4.846 15.22,4.32c7.999,-0.785 13.864,3.205 19.404,8.726c0.272,0.221 0.506,0.474 0.72,0.779c1.739,2.017 3.659,2.219 5.819,0.928c4.243,-2.537 8.298,-1.402 12.23,0.901c1.667,0.986 4.353,1.168 4.651,3.549c0.74,5.138 4.308,6.611 7.688,8.466c4.269,2.433 8.109,5.346 10.711,10.173c2.024,3.724 6.656,4.152 9.355,0.999c1.466,-1.739 2.978,-3.393 4.399,-5.19c1.42,-1.83 3.107,-3.925 1.622,-6.799c-2.647,-5.112 -5.061,-10.315 -7.883,-15.272c-2.147,-3.886 -2.653,-7.811 -1.706,-12.119c0.422,-1.777 0.804,-3.561 0.895,-5.391c0.065,-1.064 -0.441,-2.841 -1.336,-2.465c-2.479,1.155 -2.258,-1.084 -2.809,-2.284c-1.311,-2.562 -2.381,-5.527 -4.555,-7.084c-2.445,-1.739 -2.556,-3.439 -1.388,-5.897c0.668,-1.467 1.057,-3.056 1.907,-4.464c4.133,-7 7.137,-14.591 8.661,-22.882c0.772,0.221 0.837,1.038 1.123,1.687c0.395,0.772 0.674,1.687 1.077,2.472c1.466,2.621 3.86,3.159 5.676,1.025c1.771,-2.005 2.829,-4.671 3.095,-7.383c0.259,-2.601 -1.94,-3.503 -3.802,-4.386c-0.629,-0.266 -1.246,-0.648 -1.226,-1.498c0.045,-1.136 0.707,-1.687 1.609,-1.739c2.095,-0.22 3.769,-0.772 4.178,-3.646c1.044,-7.636 -1.778,-13.546 -6.468,-18.645c-0.818,-0.915 -2.024,-1.213 -3.186,-1.278c-1.349,-0.046 -2.634,-0.026 -3.97,-0.111c-3.581,-0.311 -4.295,-0.849 -4.859,-4.761c-0.429,-2.745 -1.136,-5.035 -3.659,-5.976c-2.446,-0.914 -2.732,-2.906 -2.258,-5.3c0.402,-2.173 0.779,-4.366 2.349,-5.917c2.147,-2.095 2.575,-4.242 1.31,-7.305c-1.544,-3.769 -0.675,-7.901 1.512,-10.834c1.875,-2.575 3.107,-4.969 3.6,-8.168c0.519,-3.016 1.59,-3.107 3.627,-0.869c1.894,2.082 3.263,4.561 4.256,7.35c0.635,1.797 1.654,3.218 3.626,3.095c3.679,-0.253 6.592,-4.418 5.852,-8.376c-0.221,-1.089 -0.551,-2.147 -0.817,-3.224c-1.064,-4.476 -0.993,-4.541 2.458,-7.143c2.018,-1.485 4.561,-2.446 5.359,-5.378c0.506,-2.024 1.739,-2.822 3.335,-3.633c4.113,-2.284 8.168,-4.652 10.789,-9.29c1.609,-2.842 4.145,-2.952 6.922,-1.116c4.385,2.841 4.418,2.887 8.44,-0.792c1.797,-1.621 3.834,-2.244 5.223,-0.259c2.504,3.49 5.754,3.159 9.024,3.172c1.81,0.013 3.925,-0.395 5.06,1.421c3.413,5.521 9.719,8.583 10.841,16.012c0.195,1.148 0.96,2.063 2.147,1.848c1.116,-0.155 1.421,-1.291 1.635,-2.432c0.351,-1.473 -0.454,-3.316 1.259,-4.652c2.4,2.556 5.002,4.762 7.999,6.274c2.971,1.531 5.443,0.914 7.649,-1.577c0.694,-0.772 1.2,-1.784 1.907,-2.524c2.965,-2.861 6.767,-5.319 10.27,-3.458c3.516,1.908 5.807,1.609 8.979,-0.408c4.21,-2.615 6.533,-1.447 8.518,3.412c0.993,2.381 2.446,3.834 4.704,4.431c1.42,0.383 2.828,0.772 4.152,1.655c2.932,1.894 4.762,1.719 6.935,-1.097c1.739,-2.381 3.12,-3.659 5.534,-1.219c1.031,1.044 2.465,0.914 3.789,0.759c6.766,-0.695 11.171,-5.353 12.067,-12.826c0.33,-2.79 -0.571,-5.002 -3.108,-5.314c-3.263,-0.421 -5.962,-2.115 -8.505,-4.022c-4.055,-3.023 -8.953,-5.424 -9.303,-12.171c-0.143,-2.984 -2.07,-4.463 -4.672,-4.69c-1.641,-0.188 -3.334,-0.299 -4.904,0.032c-2.543,0.506 -3.659,-0.629 -4.178,-3.237c-1.058,-5.171 -2.16,-10.328 -3.237,-15.531c-0.299,-1.519 -0.033,-2.926 0.674,-4.25c1.882,-3.458 3.367,-7.396 6.125,-9.939c4.95,-4.606 5.819,-10.847 6.526,-17.257c0.344,-3.166 -1.2,-4.574 -3.899,-3.484c-3.231,1.278 -6.637,2.368 -8.979,5.489c-1.096,1.434 -2.459,2.433 -4.243,2.556c-4.08,0.298 -9.193,-2.764 -11.022,-6.896c-0.837,-1.985 -1.499,-4.068 -2.037,-6.163c-0.597,-2.206 -2.063,-4.685 0.013,-6.657c2.147,-2.095 3.938,0.111 5.754,1.278c0.117,0.098 0.26,0.227 0.383,0.312c6.767,4.385 13.871,0.876 15.35,-7.662c0.22,-1.265 0.421,-2.498 0.616,-3.769c1.343,-9.829 -0.649,-12.067 -9.42,-10.368c-6.669,1.298 -9.939,-1.368 -10.886,-8.959c-0.435,-3.646 -0.376,-7.35 0.584,-10.886c1.122,-4.256 2.368,-8.421 3.724,-12.573c1.453,-4.366 3.743,-8.058 6.753,-11.373c2.491,-2.666 4.671,-5.676 6.767,-8.771c2.082,-3.062 3.899,-6.481 3.6,-10.588c-0.402,-5.579 -1.583,-10.815 -5.352,-14.986c-1.531,-1.687 -2.712,-3.692 -4.133,-5.476c-1.012,-1.323 -1.738,-2.653 -1.057,-4.476c0.519,-1.401 0.344,-2.919 0.13,-4.366c-0.221,-1.784 0.22,-3.335 1.576,-4.34c3.27,-2.459 4.782,-6.423 7.039,-9.797c4.289,-6.533 3.199,-12.683 -0.363,-18.866c-0.817,-1.42 -1.674,-2.822 -2.173,-4.333c-0.506,-1.408 -0.617,-3.153 1.31,-3.38c2.913,-0.377 3.153,-2.634 3.309,-5.145c0.175,-3.153 -0.331,-6.228 -1.291,-9.167c-1.797,-5.696 -2.303,-11.451 -0.662,-17.335c0.376,-1.524 0.61,-3.231 0.772,-4.872c0.286,-2.621 0.123,-5.255 -1.875,-7.033c-1.434,-1.323 -1.434,-2.685 -0.759,-4.372c0.837,-2.005 1.421,-4.1 2.368,-6.06c1.739,-3.736 2.193,-7.616 1.148,-11.723c-0.849,-3.282 -0.596,-6.487 0.117,-9.776c2.044,-9.959 6.514,-19.307 6.105,-29.908c-0.052,-2.206 1.525,-3.289 3.451,-2.9c6.417,1.408 10.471,-2.913 13.546,-7.915c5.723,-9.388 12.775,-17.289 20.65,-24.257c3.549,-3.095 6.105,-6.598 6.832,-11.626c0.785,-5.287 3.815,-8.804 7.882,-11.347c2.524,-1.609 5.067,-3.321 7.604,-5.112c3.503,-2.433 5.929,-5.865 6.941,-10.315c0.5,-2.336 1.525,-3.847 3.387,-5.047c3.38,-2.206 4.872,-5.865 5.034,-10.128c0.091,-2.381 -0.013,-4.794 -0.142,-7.149c-0.312,-5.352 -1.038,-6.066 -5.722,-5.748Zm-576.968,258.31c1.103,0.123 2.634,0.584 2.128,2.258c-0.454,1.602 -1.985,0.986 -2.964,0.486c-2.524,-1.213 -4.938,-2.712 -7.377,-4.022c2.835,0.266 5.502,1.044 8.213,1.278Zm44.122,109.05c-0.201,1.226 -1.401,1.304 -2.374,0.72c-0.869,-0.454 -1.168,-1.324 -0.727,-2.206c0.961,-1.849 1.992,-3.678 2.939,-5.508c1.46,2.608 0.493,4.769 0.162,6.994Zm216.258,168.794c-2.848,2.082 -6.228,3.12 -8.564,6.17c-0.538,0.739 -2.206,0.382 -3.36,0.506c-1.642,0.285 -3.329,0.642 -3.789,2.841c-0.376,2.018 1.031,2.933 2.206,3.925c0.253,0.221 0.551,0.299 0.836,0.539c3.316,2.601 3.439,3.094 0.377,5.975c-2.582,2.458 -4.036,5.741 -5.962,8.687c-2.303,3.516 -6.76,4.703 -10.471,2.776c-3.251,-1.674 -6.488,-0.331 -9.466,0.74c-1.797,0.662 -3.503,0.636 -5.255,0.772c-1.498,0.188 -2.238,-0.934 -3.153,-2.115c-2.368,-3.023 -1.939,-6.358 -1.511,-9.777c0.045,-0.538 -0.059,-1.226 0.551,-1.181c3.393,0.156 4.01,-3.282 5.794,-5.255c1.816,-2.069 3.659,-4.184 6.611,-4.23c3.088,-0.077 5.365,-4.009 8.803,-2.38c2.362,-2.271 5.203,-3.536 8.012,-5.067c2.258,-1.2 4.438,-2.031 6.91,-2.459c3.406,-0.564 6.825,-1.135 10.062,-2.491c0.817,-0.377 1.622,-0.396 2.147,0.772c-0.24,0.46 -0.428,0.999 -0.778,1.252Z" style="fill:#fff;"/><path d="M525.933,176.108c-0.272,3.97 0.526,7.681 2.193,11.1c1.311,2.654 1.707,5.541 2.083,8.408c0.233,1.499 0.674,2.991 2.251,3.218c1.473,0.156 2.511,-0.915 3.172,-2.251c0.617,-1.298 1.038,-2.731 1.635,-4.029c0.364,-0.863 0.441,-2.238 2.148,-1.7c-0.74,1.895 -0.74,4.308 -1.525,5.729c-2.971,5.17 0.72,7.915 2.692,11.386c0.727,1.245 2.498,0.778 2.978,2.322c-0.674,0.662 -1.349,0.519 -1.959,0.363c-1.985,-0.441 -3.672,-1.596 -5.235,-2.919c-0.805,-0.714 -1.862,-0.902 -2.745,-0.013c-0.973,0.928 -0.467,2.031 0.02,2.952c0.726,1.226 1.485,2.459 2.433,3.458c1.511,1.751 2.381,3.341 1.077,5.8c-0.74,1.356 -0.915,3.107 -0.221,4.768c2.524,5.93 5.806,11.074 11.859,13.014c0.779,0.221 1.674,0.208 2.225,1.421c-1.102,0.272 -2.192,0.396 -3.191,0.727c-1.434,0.538 -2.271,1.894 -1.648,3.425c0.927,2.297 1.239,5.19 3.438,6.501c1.972,1.2 3.134,2.439 2.427,5.183c-0.364,1.246 0.22,2.569 1.122,3.445c4.95,4.729 13.76,1.635 15.33,-5.443c0.513,-2.128 0.727,-3.756 3.393,-3.581c2.186,0.188 2.978,-1.992 2.083,-3.789c-2.602,-4.892 -1.09,-9.997 -1.123,-15.045c-0.045,-1.122 -0.123,-2.445 1.123,-3.205c0.817,1.687 0.83,3.374 1.686,4.814c1.181,2.031 3.108,-0.207 4.451,0.902c-0.143,3.789 0.519,7.02 2.822,9.796c1.421,1.752 2.601,2.005 4.262,0.837c1.719,-1.232 3.458,-2.536 5.774,-4.243c-1.135,5.872 4.795,4.957 5.865,8.648c-1.862,2.258 -3.659,1.136 -5.586,0.519c-4.003,-1.291 -8.609,0 -9.764,5.314c-0.155,0.694 -0.097,1.563 -0.772,1.881c-3.276,1.609 -4.528,5.138 -6.202,8.233c-0.454,0.824 -0.902,1.706 -1.81,1.706c-3.484,0.065 -6.468,2.426 -9.971,2.744c-3.724,0.318 -4.905,1.765 -4.619,5.982c0.272,4.561 0.836,9.095 1.453,13.611c0.363,2.712 2.225,3.834 4.84,2.712c2.095,-0.902 4.184,-1.013 6.26,-1.201c3.393,-0.207 6.488,-1.18 9.07,-3.782c0.856,-0.895 1.881,-1.972 2.997,-1.226c2.18,1.388 4.399,0.136 7.162,0.188c-1.401,2.011 -2.536,3.653 -4.223,3.601c-4.055,-0.098 -7.033,2.854 -10.542,4.327c-2.634,1.148 -2.764,3.328 -0.519,5.326c2.03,1.83 4.632,1.804 6.954,2.524c1.272,0.396 2.868,0.22 3.614,2.381c-0.87,-0.065 -1.311,-0.013 -1.765,-0.156c-3.782,-1.038 -7.525,-2.777 -11.496,-0.947c-0.85,0.376 -1.103,-0.318 -1.466,-0.915c-1.103,-1.738 -2.699,-2.303 -4.34,-1.401c-1.862,0.992 -3.218,2.614 -3.283,5.093c-0.078,5.696 0.811,11.132 3.121,16.42c1.356,3.198 3.14,5.436 6.027,6.753c1.511,0.694 3.548,1.012 4.041,2.933c1.421,5.748 5.061,5.255 9.038,4.483c1.511,-0.312 3.204,-1.136 4.495,0.759c-0.266,0.934 -0.992,0.791 -1.596,0.934c-7.525,2.147 -8.206,6.04 -2.458,10.808c2.763,2.297 5.222,5.151 4.924,9.615c-0.065,0.915 0.298,1.842 0.992,2.368c3.329,2.413 7.922,0.629 9.388,-3.692c0.727,-2.082 0.727,-4.288 0.493,-6.513c-0.285,-3.153 -0.24,-6.241 1.849,-8.849c1.525,-1.862 1.421,-4.353 1.512,-6.799c0.123,-4.918 0.343,-9.842 0.564,-14.76c0.13,-2.102 0.863,-4.002 2.303,-5.332c1.324,-1.278 2.446,-2.303 1.784,-4.529c-0.584,-1.985 0.72,-2.543 2.148,-2.9c4.158,-1.012 4.132,-1.031 4.859,-5.683c1.343,-8.31 1.719,-16.718 1.498,-25.146c-0.064,-2.205 0.098,-3.419 2.537,-3.373c3.51,0.045 3.88,-0.266 3.789,-3.88c-0.273,-6.26 1.336,-12.398 1.051,-18.632c-0.123,-2.433 0.661,-4.191 2.491,-5.521c1.103,-0.805 2.725,-1.518 2.796,-3.03c0.11,-4.178 2.933,-5.423 5.534,-7.331c3.782,-2.822 7.325,-6.079 12.398,-4.366c0.675,0.234 1.706,-0.143 2.368,-0.538c2.887,-1.758 4.119,-11.451 1.816,-14.195c-0.395,-0.493 -1.07,-0.993 -1.641,-1.058c-5.521,-0.486 -9.861,-3.393 -13.974,-7.318c-1.719,-1.622 -3.205,-3.042 -3.789,-5.475c-1.181,-5.061 -3.594,-8.408 -8.687,-8.94c-2.822,-0.273 -3.406,-1.719 -3.237,-5.047c0.052,-0.74 0.188,-1.486 0.35,-2.141c1.719,-7.163 -1.466,-13.267 -3.296,-19.658c-0.155,-0.642 -0.661,-1.258 -1.167,-1.751c-3.127,-3.329 -4.86,-2.758 -6.436,1.719c-0.85,2.413 -0.123,4.937 -1.083,7.266c-1.317,-2.271 -2.42,-4.412 -1.279,-7.376c1.279,-3.374 1.246,-7.176 2.524,-10.601c0.85,-2.161 0.123,-4.308 -1.012,-6.228c-1.849,-3.309 -4.055,-6.228 -6.526,-8.96c-3.225,-3.613 -3.296,-3.613 -7.902,-0.142c-0.065,-2.226 -0.163,-3.86 -0.227,-5.469c-0.059,-2.323 -1.025,-4.217 -2.206,-6.014c-1.298,-1.927 -2.569,-1.973 -4.152,-0.422c-1.83,1.829 -2.667,4.113 -2.757,6.792c-0.13,2.401 0.032,4.925 -1.201,6.923c-2.523,4.067 -2.653,8.693 -2.205,13.189c0.596,6.384 1.135,12.761 1.576,19.151c0.792,10.517 1.025,21.26 5.521,31.043c0.474,0.961 1.032,2.148 0.584,3.458c-0.396,-0.259 -0.584,-0.298 -0.662,-0.46c-2.543,-5.093 -3.159,-11.243 -7.117,-15.538c-0.285,-0.286 -0.285,-1.058 -0.22,-1.577c0.441,-6.156 -1.992,-11.865 -2.011,-17.983c-0.046,-3.633 -0.721,-7.273 -1.22,-10.899c-0.85,-5.735 -3.354,-10.108 -8.324,-12.664c-2.017,-1.045 -3.231,-0.727 -3.866,1.453c-1.343,4.918 -3.53,9.42 -5.787,13.897c-1.136,2.368 -0.74,5.06 -0.441,7.616c0.382,3.38 0.934,6.786 1.388,10.192c-1.388,-3.121 -1.635,-6.974 -4.211,-9.044c-2.043,-1.596 -2.504,-2.556 -1.31,-5.151c1.174,-2.491 0.175,-3.646 -2.413,-3.834c-1.512,-0.097 -2.933,0.428 -4.334,1.057c-1.103,0.506 -2.206,1.635 -4.178,0.221c2.997,-1.135 4.496,-3.458 5.975,-5.884c0.772,-1.356 1.959,-1.862 3.38,-1.908c0.785,-0.045 1.635,0.338 2.426,0.117c2.414,-0.564 4.211,-2.069 4.847,-4.846c0.674,-3.062 0.266,-6.079 -1.687,-8.265c-1.972,-2.206 -4.405,-0.675 -6.358,0.506c-1.622,0.915 -2.881,2.446 -4.463,3.471c-2.887,1.952 -4.01,1.589 -5.761,-1.836c-0.597,-1.136 -1.097,-2.44 -2.524,-1.862c-1.259,0.493 -1.421,1.907 -1.434,3.237c-0.052,1.687 0.993,3.438 -0.207,5.424c-1.927,-1.564 -2.206,-3.899 -3.218,-5.709c-1.343,-2.323 -2.368,-2.589 -3.789,-0.636c-0.993,1.421 -1.739,2.777 -3.529,3.36c-1.311,0.429 -1.467,2.258 -1.181,3.835c0.221,1.401 1.057,2.692 0.551,4.891c-0.674,-1.265 -1.135,-2.102 -1.641,-2.971c-0.441,-0.818 -1.148,-1.278 -2.082,-0.993c-0.948,0.312 -1.013,1.291 -1.136,2.206c-0.156,1.875 0.234,3.633 0.947,5.333c0.597,1.408 0.973,2.809 -0.629,3.756c-1.849,1.148 -1.881,2.842 -1.09,4.723c0.681,1.68 0.999,3.51 0.882,5.307Z" style="fill:#fff;"/><path d="M324.961,1053.33c-0.817,-1.862 -0.792,-5.287 -3.127,-4.697c-1.907,0.454 -3.659,2.777 -4.742,5.074c-0.403,0.836 -0.682,2.134 -0.052,2.588c2.543,1.972 3.217,5.806 6.597,7.072c4.464,1.686 5.093,4.632 1.635,7.947c-3.347,3.12 -2.257,7.727 -3.899,11.34c-0.506,1.09 0.96,1.94 1.908,1.907c2.711,-0.032 5.19,-0.882 6.611,-3.801c0.519,-1.136 1.057,-2.206 3.042,-1.81c-1.92,2.653 -1.181,6.578 -3.782,8.252c-2.686,1.752 -4.12,5.235 -7.493,5.884c-1.311,0.234 -2.174,1.856 -2.083,3.361c0.078,2.063 1.81,2.523 3.153,3.023c1.486,0.487 2.362,-0.804 3.043,-2.193c0.772,-1.544 1.512,-3.237 2.978,-4.262c1.583,1.187 2.257,2.53 1.362,4.625c-0.746,1.635 -1.246,3.458 -1.661,5.204c-0.318,1.355 -0.759,3.081 0.902,3.788c1.33,0.539 2.05,-0.694 2.621,-1.829c0.389,-0.727 0.389,-1.499 1.654,-1.389c3.361,0.299 4.704,-2.127 3.361,-5.456c-0.331,-0.778 -1.233,-1.317 -1.499,-2.082c-0.363,-1.233 0.37,-2.102 1.441,-2.465c0.953,-0.331 1.531,0.22 1.81,1.258c1.115,4.892 2.614,9.732 -0.695,14.461c-0.992,1.408 -1.511,3.185 -2.257,4.866c-1.187,2.692 -0.078,5.041 1.226,7.162c1.317,2.128 2.446,0.532 3.568,-0.584c0.286,-0.272 1.025,-0.337 1.369,-0.117c1.862,1.123 3.25,0 5.002,-0.564c3.205,-1.058 6.436,-1.972 10.095,-3.977c-0.805,1.92 -1.188,2.919 -1.577,3.867c-3.075,7.331 -1.181,12.397 5.742,15.317c0.895,0.376 1.557,0.992 1.135,1.972c-1.564,3.594 -0.597,7.571 -1.356,11.308c-0.221,1.187 -0.396,2.459 -1.473,2.322c-3.99,-0.583 -8.103,2.57 -11.956,-0.681c-0.662,-0.597 -1.557,-0.785 -2.174,0.02c-0.519,0.661 -0.233,1.511 0.221,1.998c2.024,2.277 0.681,3.918 -0.675,5.586c-0.674,0.837 -1.375,1.641 -1.991,2.459c-0.617,0.856 -1.577,1.706 -0.961,2.854c0.649,1.213 1.707,0.817 2.667,0.35c1.057,-0.506 2.147,-1.187 2.913,0.455c2.264,4.56 1.284,9.445 -2.758,12.488c-2.588,1.959 -5.345,3.503 -8.064,5.281c-1.2,0.746 -2.16,1.596 -2.004,3.425c0.376,4.101 3.25,5.963 6.611,4.165c0.979,-0.486 2.05,-1.907 3.029,-0.661c1.784,2.257 3.679,2.796 6.183,1.985c1.31,-0.428 2.024,0.837 2.887,1.687c3.601,3.581 4.21,3.581 7.934,0.473c0.571,-0.473 1.077,-1.479 2.024,-0.804c-1.291,4.496 -4.21,5.774 -8.077,5.177c-4.839,-0.694 -8.31,1.752 -10.737,6.072c-3.159,5.742 -7.525,10.192 -11.788,14.812c-1.115,1.232 -2.634,2.277 -2.361,4.534c3.782,1.577 7.13,1.765 9.874,-2.42c2.316,-3.516 5.742,-2.977 9.07,-2.283c5.423,1.213 5.423,1.232 7.668,-4.366c1.187,-2.985 6.468,-5.21 8.22,-3.017c3.166,3.867 6.455,1.687 9.426,0.584c2.193,-0.811 3.977,-1.259 6.014,0.032c1.985,1.239 3.802,1.324 4.905,-1.433c0.24,-0.636 0.298,-1.694 1.2,-1.389c3.802,1.246 7.461,-0.616 11.263,-0.597c5.864,0.033 11.275,-2.16 15.758,-6.688c1.259,-1.259 2.446,-2.634 1.894,-4.704c-0.506,-2.05 -2.147,-1.94 -3.633,-2.128c-0.311,-0.013 -0.661,0 -0.992,-0.032c-3.614,-0.545 -3.88,-1.226 -1.895,-4.885c0.422,-0.759 0.87,-1.96 1.453,-2.083c2.836,-0.675 3.53,-3.672 5.294,-5.54c3.724,-3.958 3.99,-9.083 3.316,-14.305c-0.539,-4.276 -3.9,-7.714 -7.682,-8.201c-2.984,-0.402 -5.903,0.033 -8.362,2.316c-0.63,0.604 -1.421,1.213 -2.193,0.552c-1.168,-0.96 -0.363,-2.063 0.253,-2.842c2.608,-3.094 2.433,-6.17 0.156,-9.381c-0.61,-0.837 -1.454,-1.784 -0.986,-2.919c1.278,-3.517 -0.208,-5.995 -2.161,-8.408c-1.044,-1.265 -1.278,-2.952 -1.914,-4.399c-2.128,-4.924 -3.892,-10.367 -9.511,-11.866c-0.817,-0.201 -1.485,-0.817 -1.81,-1.706c-1.531,-3.438 -3.944,-6.578 -4.067,-10.549c-0.143,-5.806 -2.096,-10.399 -5.729,-14.59c-3.451,-4.023 -6.954,-7.188 -12.333,-6.073c-0.759,0.208 -1.719,0.24 -1.797,-1.102c0.474,-0.896 1.298,-1.214 2.115,-1.311c2.699,-0.519 4.516,-1.525 2.699,-5.041c-0.454,-0.979 0,-1.784 0.564,-2.53c5.145,-6.514 5.976,-15.363 9.764,-22.622c2.245,-4.334 -0.078,-8.136 -4.522,-8.168c-7.162,-0.013 -14.402,-2.115 -22.194,2.524c1.233,-2.933 2.978,-4.496 1.291,-6.825c-0.739,-1.045 0.571,-2.42 1.577,-2.985c3.263,-1.797 4.905,-5.41 7.272,-8.135c1.72,-1.881 2.096,-4.768 0.863,-7.175c-1.213,-2.355 -3.36,-1.531 -5.319,-1.123c-3.893,0.681 -7.695,1.908 -11.717,1.136c-3.847,-0.772 -4.983,0.473 -7.363,3.814c-3.647,5.08 -2.394,12.826 -7.831,16.797c-0.078,0.097 -0.091,0.331 -0.091,0.551c0.156,3.925 -2.939,8.077 0.681,11.989c-2.66,-0.979 -3.068,-3.471 -3.97,-5.521Z" style="fill:#fff;"/><path d="M233.207,835.442c-1.343,-0.487 -1.142,-1.512 -0.811,-2.634c1.103,-3.724 -0.37,-6.812 -1.881,-9.907c-0.584,-1.226 -1.421,-2.193 -2.725,-0.98c-1.388,1.311 -2.018,0.617 -2.336,-1.012c-0.233,-1.511 -1.109,-2.205 -2.439,-2.147c-2.323,0.032 -2.037,-1.564 -1.862,-3.374c0.506,-5.598 0.136,-6.091 -4.619,-7.071c1.116,-3.614 1.116,-3.614 4.509,-7.441c0.551,-0.668 1.291,-1.278 0.759,-2.316c-0.441,-0.87 -1.259,-1.136 -2.096,-1.09c-1.356,0.013 -2.601,0.551 -3.568,1.641c-0.83,0.85 -1.641,1.706 -2.699,2.316c-3.425,1.875 -3.503,2.005 -5.015,-2.004c-0.674,-1.83 -2.303,-2.602 -3.107,-4.211c-1.369,-2.712 -3.095,-2.478 -5.424,-1.563c-2.575,1.005 -2.64,2.854 -2.29,5.17c0.11,0.921 0.13,1.875 0.046,2.796c-0.286,3.38 -1.862,4.872 -4.561,3.543c-3.062,-1.545 -4.509,-0.63 -5.742,2.543c-0.687,1.894 -2.03,2.316 -3.36,0.298c-0.759,-1.2 -1.668,-2.238 -2.92,-2.913c-1.206,-0.668 -2.523,-1.044 -3.724,0.033c-0.992,0.914 -0.96,2.186 -0.778,3.516c0.143,1.233 1.187,2.459 -0.046,4.736c-0.992,-3.263 -2.445,-5.19 -3.613,-7.383c-0.882,-1.564 -1.862,-1.94 -3.276,-0.993c-3.776,2.582 -8.506,4.464 -6.923,11.185c0.033,0.156 -0.382,0.506 -0.746,0.973c-1.952,-1.544 -2.199,-4.431 -3.808,-6.15c-1.706,-1.765 -2.829,-5.456 -5.761,-3.782c-2.511,1.472 -1.187,4.638 -0.85,7.032c0.441,3.043 0.934,6.079 -0.616,8.979c-4.009,-2.323 -4.762,-2.011 -5.755,2.147c-0.116,0.539 -0.116,1.103 -0.175,1.687c-0.175,1.142 -0.584,2.135 -1.797,2.135c-1.005,-0 -1.356,-0.818 -1.498,-1.817c-0.189,-1.518 -0.604,-2.842 -1.596,-3.944c-0.837,-0.948 -0.455,-1.927 -0.124,-3.03c2.018,-6.248 1.181,-9.401 -3.509,-13.436c-1.058,-0.889 -1.655,-2.303 -2.57,-3.25c-3.438,-3.504 -6.533,-7.669 -11.593,-8.551c-1.369,-0.272 -2.79,-0.662 -3.484,0.85c-0.713,1.583 -1.388,3.549 0.111,5.112c2.225,2.336 2.776,6.137 5.871,7.727c0.752,0.409 1.362,1.563 0.707,3.062c-2.336,-1.739 -5.255,-1.589 -7.052,-5.112c-1.849,-3.503 -4.528,-2.725 -6.896,0.772c-1.136,1.654 -2.193,2.945 -1.226,5.268c0.551,1.245 0.09,2.9 -0.461,4.346c-0.487,-0.025 -0.934,-0.045 -1.401,-0.103c-2.699,-0.24 -2.887,0.078 -2.083,2.822c0.376,1.239 2.018,2.128 1.116,3.827c-1.116,0.526 -1.953,-0.473 -2.919,-0.473c-1.635,-0.046 -3.127,1.894 -3.063,4.113c0.065,2.258 1.519,2.173 2.829,1.758c1.862,-0.597 3.555,-0.331 5.242,0.662c1.421,0.882 2.855,0.707 4.256,-0.033c2.069,-1.089 4.256,-1.764 6.202,-3.315c2.504,-2.095 4.885,-1.829 7.149,0.526c1.278,1.31 2.381,2.757 4.561,2.582c-1.07,1.959 -2.53,2.575 -3.646,3.587c-3.575,3.296 -3.361,4.918 1.045,7.046c0.22,0.097 0.343,0.474 0.674,1.032c-2.316,-0.176 -4.489,-0.584 -6.526,0.136c-4.34,1.544 -8.505,3.737 -13.027,4.872c-1.96,0.461 -2.258,2.608 -1.577,4.463c0.675,1.953 2.29,2.226 3.692,1.324c3.581,-2.258 7.298,-1.453 11.087,-1.259c2.037,0.13 3.205,0.805 3.49,2.855c0.383,2.712 1.499,4.924 3.504,6.345c2.017,1.42 0.836,2.601 0.253,4.054c-1.064,2.537 3.062,1.531 2.238,4.003c-0.299,0.915 -0.915,1.512 -1.59,1.972c-2.4,1.635 -4.781,3.14 -7.668,2.459c-0.96,2.07 -0.344,3.899 -0.285,5.696c0.116,2.284 1.342,3.53 3.328,2.822c2.569,-0.947 5.242,-0.285 7.837,-0.493c6.293,-0.506 12.443,0 17.023,6.151c1.343,1.784 3.458,2.874 5.612,3.094c2.887,0.24 5.423,1.609 8.031,2.744c5.807,2.544 12.476,1.155 16.777,-3.561c4.509,-4.957 8.882,-10.147 15.966,-10.367c1.635,-0.078 2.92,-1.59 4.276,-2.667c4.307,-3.328 7.571,-7.979 11.042,-11.892c0.96,0.948 1.777,1.901 2.724,2.634c0.837,0.675 1.739,0.63 2.634,-0.22c3.562,-3.406 6.955,-6.851 7.584,-12.385c0.143,-1.181 0.188,-2.095 1.324,-2.601c4.165,-1.752 5.235,-6.358 7.104,-10.128c0.96,-1.991 1.511,-4.69 -1.486,-5.838Z" style="fill:#fff;"/><path d="M613.756,123.909c1.765,0.96 3.672,1.739 5.326,2.854c3.14,2.115 3.173,3.348 0.617,6.248c-1.369,1.563 -2.667,3.218 -4.023,4.827c-0.72,0.837 -1.31,1.849 -0.85,2.984c1.259,3.185 2.271,6.611 4.088,9.336c1.479,2.225 3.516,4.437 6.623,4.022c1.486,-0.188 2.965,-0.156 4.308,0.856c1.278,0.928 2.427,0.286 3.672,-0.395c7.175,-4.12 15.012,-5.015 22.921,-5.567c1.622,-0.11 2.647,0.915 2.757,2.394c0.078,1.486 -1.291,2.037 -2.472,2.161c-2.621,0.272 -5.3,0.272 -7.902,0.648c-5.365,0.727 -6.357,3.095 -3.503,8.661c-1.959,0.746 -3.315,0.331 -4.437,-0.96c-0.811,-0.915 -1.642,-1.784 -2.829,-2.173c-1.609,-0.539 -2.887,0.22 -4.003,1.356c-0.967,0.966 -1.297,2.238 -0.681,3.47c2.082,4.23 4.386,8.376 8.726,9.939c1.94,0.675 2.906,1.635 3.672,3.757c1.09,3.029 2.543,3.548 5.047,1.706c1.972,-1.466 3.795,-1.135 5.618,-0.675c1.953,0.552 3.549,0.915 5.58,-0.272c2.984,-1.642 5.066,0.032 5.871,3.802c1.057,5.19 3.14,9.575 7.876,11.8c4.807,2.226 11.223,-0.421 12.969,-5.352c1.797,-5.19 4.275,-6.857 9.543,-6.468c0.96,0.045 2.017,-0.091 2.906,-0.474c4.697,-2.16 9.323,-11.573 7.824,-16.945c-0.85,-3.01 0.098,-4.418 2.096,-5.832c3.127,-2.18 5.605,-5.067 6.928,-8.992c0.76,-2.161 1.94,-3.659 3.912,-4.684c2.025,-1.012 3.218,-3.328 2.368,-5.456c-1.758,-4.477 -0.298,-8.674 0.331,-12.872c0.519,-3.282 -0.155,-5.65 -2.192,-7.934c-2.07,-2.297 -4.276,-3.957 -7.15,-4.619c-5.144,-1.259 -10.283,-2.712 -15.395,-3.912c-2.225,-0.493 -3.691,-1.408 -3.536,-4.224c0.098,-1.673 -0.253,-2.919 -2.205,-2.562c-0.506,0.097 -1.181,-0.454 -1.765,-0.824c-4.619,-3.147 -5.132,-3.01 -7.48,2.621c-0.279,0.662 -0.539,1.343 -0.805,2.004c-1.18,3.063 -2.368,6.06 -3.503,9.103c-0.753,2.095 -1.94,3.6 -4.087,3.094c-2.556,-0.603 -1.797,-3.062 -1.875,-4.924c-0.065,-1.596 0.564,-2.777 1.512,-3.925c3.782,-4.515 2.9,-10.082 1.816,-15.129c-1.09,-4.937 -6.468,-5.696 -9.595,-1.862c-3.153,3.86 -3.095,8.7 -2.822,13.468c0.409,5.619 -0.487,11.101 -0.565,16.751c-1.427,-0.298 -1.693,-1.031 -1.849,-1.693c-1.025,-3.296 -1.738,-6.65 -2.076,-10.127c-0.46,-4.009 -2.244,-5.028 -5.527,-3.627c-1.259,0.539 -2.316,1.454 -3.438,2.128c-3.218,2.005 -4.185,1.499 -4.12,-2.426c-0,-1.499 0.084,-2.855 -0.804,-4.185c-3.205,-4.904 -6.988,-9.212 -11.263,-12.994c-0.902,-0.818 -2.082,-1.609 -3.153,-0.72c-1.985,1.596 -2.913,3.866 -2.841,6.649c0.084,2.375 0.914,3.789 3.302,3.789c1.401,-0.032 2.238,0.947 1.952,2.459c-0.544,2.569 0,5.424 -1.115,7.882c-1.674,-0.551 -1.83,-1.985 -2.258,-3.107c-0.72,-1.817 -1.304,-3.737 -2.919,-4.937c-2.394,-1.765 -4.114,-1.103 -4.749,2.004c-0.331,1.797 -0.455,3.64 -0.455,5.456c-0.064,2.842 -1.278,3.932 -3.717,3.932c-1.803,-0 -3.62,-0.019 -5.398,0.344c-2.303,0.473 -3.912,2.303 -4.113,4.878c-0.246,2.336 1.901,2.654 3.309,3.465Z" style="fill:#fff;"/><path d="M306.335,1182.2c3.88,-3.095 7.759,-4.405 12.288,-4.087c2.478,0.188 3.769,-0.74 3.847,-3.582c0.097,-3.172 1.057,-6.091 1.959,-9.024c0.454,-1.589 1.512,-3.062 1.226,-4.729c-1.122,-6.384 1.135,-13.151 -1.862,-19.366c-0.902,-1.862 -0.441,-3.282 1.311,-4.606c2.037,-1.512 3.834,-3.419 5.585,-5.346c2.414,-2.699 2.537,-7.253 0,-9.796c-1.531,-1.544 -1.894,-3.121 -2.212,-5.138c-1.103,-6.754 -4.781,-9.595 -10.951,-8.441c-1.453,0.266 -2.413,0.137 -3.471,-1.063c-1.122,-1.402 -2.809,-2.615 -4.353,-1.402c-1.907,1.402 -4.055,1.402 -6.027,2.115c-3.581,1.298 -6.702,3.173 -7.558,7.727c-0.298,1.356 -1.057,2.238 -1.764,3.205c-2.187,3.023 -2.051,3.406 1.219,4.872c0.688,0.318 1.732,0.065 1.895,1.31c-4.62,5.495 -4.62,5.424 -10.919,4.081c-1.135,-0.253 -2.303,-0.201 -3.438,-0.279c-1.486,-0.136 -2.492,0.662 -3.277,1.959c-1.245,1.953 -1.518,4.418 -2.919,6.293c-0.805,0.993 0.272,1.921 0.96,2.745c0.759,0.849 2.472,0.032 2.634,1.939c-0.74,1.012 -1.434,2.005 -2.147,3.063c-2.128,3.198 -1.973,4.885 0.901,7.233c2.459,2.083 5.301,2.894 9.368,2.796c-4.619,3.822 -4.619,9.797 -8.064,13.267c0.331,4.561 -1.842,6.566 -5.585,7.481c-1.531,0.344 -2.699,2.569 -1.246,3.717c1.752,1.375 1.752,2.147 0.746,3.802c-0.525,0.778 -0.525,1.719 0.234,2.433c1.167,1.038 1.764,2.51 2.588,3.736c1.058,1.674 2.978,3.517 5.19,3.368c2.913,-0.221 5.787,-0.221 8.739,-1.266c5.56,-1.946 10.497,-5.345 15.103,-9.017Z" style="fill:#fff;"/><path d="M695.383,291.522c1.31,-0.123 2.238,-1.94 1.168,-2.809c-2.745,-2.271 -4.036,-5.741 -6.391,-8.298c-1.524,-1.686 -2.9,-2.238 -4.496,-0.013c-1.622,2.206 -3.373,1.908 -4.937,-0.253c-1.673,-2.29 -3.347,-4.515 -4.924,-6.896c-1.239,-1.849 -1.044,-3.568 0.409,-5.378c2.796,-3.549 2.984,-6.786 0.143,-9.53c-1.596,-1.544 -2.855,-3.374 -4.483,-5.664c-4.113,6.403 -9.686,7.065 -15.882,5.566c1.012,-1.544 2.303,-1.81 3.646,-1.894c2.822,-0.091 3.893,-1.849 4.334,-4.827c0.409,-2.666 -0,-5.806 1.849,-7.889c2.329,-2.634 1.927,-4.651 -0.266,-6.909c-0.681,-0.74 -1.116,-1.765 -1.674,-2.679c-2.459,-4.152 -7.097,0.519 -9.861,-3.062c-0.577,-0.773 -2.206,-0.039 -3.231,0.694c-0.11,0.084 -0.331,0.162 -0.396,0.318c-1.952,4.009 -5.598,5.28 -9.024,6.987c-2.394,1.219 -2.757,2.614 -0.675,4.476c2.271,2.063 3.063,4.606 3.504,7.558c0.22,1.421 0.817,2.777 1.245,4.178c1.012,3.601 2.907,6.014 7.429,5.288c-1.577,1.323 -2.492,2.004 -3.38,2.828c-2.725,2.556 -3.043,4.243 -1.058,7.441c1.259,2.083 2.096,4.574 4.165,6.04c2.018,1.467 2.193,3.835 1.187,5.839c-2.822,5.521 -1.401,12.885 -6.306,17.413c-0.35,0.331 -0.46,0.98 -0.583,1.531c-0.902,4.178 0.96,6.767 4.917,6.546c1.758,-0.097 3.549,-0.947 5.288,-0.915c4.067,0.026 7.395,-1.291 9.698,-5.813c2.083,4.12 0.753,7.688 -0.22,10.997c-0.772,2.523 -1.564,4.522 0.973,6.059c2.134,1.324 3.192,0.746 5.287,-2.841c0.727,-1.311 1.564,-2.381 2.92,-2.725c4.619,-1.103 6.682,-5.443 8.278,-9.479c2.452,-5.838 4.528,-11.411 11.347,-11.885Z" style="fill:#fff;"/><path d="M987.337,88.785c-1.784,2.433 -3.581,2.225 -5.326,0.013c-3.49,-4.431 -3.568,-4.496 -7.999,-1.589c-1.583,1.012 -3.095,2.095 -4.399,3.483c-1.356,1.389 -4.009,2.641 -2.764,5.054c1.012,1.998 2.874,-0.396 4.386,-0.681c1.259,-0.221 3.062,-0.882 3.237,1.09c0.208,1.816 -1.719,0.928 -2.647,1.278c-0.33,0.13 -0.681,0.13 -0.96,0.221c-0.979,0.363 -1.764,1.025 -1.862,2.27c-0.129,1.2 0.409,2.083 1.259,2.777c1.038,0.83 2.686,0.519 3.458,2.601c-5.067,1.454 -6.228,1.201 -8.505,-1.719c-2.479,-3.107 -3.153,-3.14 -5.807,-0.272c-3.094,3.36 -3.263,4.736 -1.356,9.199c0.461,1.025 0.883,2.024 1.389,2.933c2.115,3.866 3.594,4.132 6.338,0.849c1.706,-2.004 3.503,-3.47 6.046,-2.731c1.116,0.318 1.797,1.564 0.545,2.271c-2.186,1.278 -2.932,3.38 -3.503,5.663c-0.363,1.408 -0.83,2.939 0.279,4.153c1.135,1.291 2.446,0.629 3.666,0.077c1.213,-0.538 2.38,-1.291 3.626,-1.797c3.737,-1.511 5.819,-4.256 5.917,-8.972c0.091,-2.349 0.545,-4.729 0.72,-7.065c0.331,-4.969 1.797,-6.137 6.072,-5.19c5.644,1.213 7.837,-0.539 7.571,-6.786c-0.11,-2.628 0.818,-3.685 2.647,-4.464c0.96,-0.363 1.927,-0.914 2.842,-0.914c7.727,-0.24 11.593,-7.065 16.323,-12.132c2.335,-2.459 1.725,-5.236 -0.831,-7.513c-1.985,-1.706 -3.957,-3.01 -6.753,-2.725c-2.887,0.254 -3.627,-0.759 -4.036,-4.074c-0.162,-1.103 -0.019,-2.225 -0.188,-3.276c-0.59,-3.659 -4.651,-6.578 -7.415,-4.969c-5.476,3.217 -10.173,7.512 -13.365,13.552c-1.719,3.263 -0.616,5.865 2.634,7.273c3.348,1.421 3.737,2.134 2.284,5.553c-0.967,2.316 -2.083,4.613 -3.523,6.559Z" style="fill:#fff;"/><path d="M1112.67,97.083c0.921,1.576 2.588,1.797 3.964,0.934c2.965,-1.817 5.728,-0.74 8.551,0.363c0.752,0.312 1.576,0.552 2.309,0.915c2.705,1.369 4.652,0.493 6.423,-2.05c2.776,-4.1 5.806,-7.98 8.563,-12.08c4.795,-7 5.301,-14.811 2.654,-22.888c-1.298,-3.971 -5.411,-5.521 -8.453,-2.848c-3.27,2.841 -7.163,3.633 -10.822,5.028c-1.31,0.519 -2.29,0.661 -3.568,-0.617c-3.075,-2.997 -7.441,-2.329 -9.621,1.499c-2.66,4.703 -4.308,9.887 -4.509,15.304c0.169,2.238 0.727,4.308 0.454,6.228c-0.623,4.503 2.199,7.072 4.055,10.212Z" style="fill:#fff;"/><path d="M1062.03,72.32c1.544,-1.032 3.347,-1.519 4.982,-2.355c4.185,-2.051 4.263,-2.479 1.642,-6.923c1.297,0.72 2.634,1.402 3.821,2.381c1.083,0.818 1.985,1.908 2.88,2.952c1.836,2.109 3.646,4.275 5.443,6.403c0.935,1.116 2.005,1.862 3.452,1.486c2.757,-0.616 7.558,-5.839 7.227,-8.894c-0.344,-2.92 0.895,-3.932 2.556,-5.242c0.947,-0.675 1.778,-1.609 2.537,-2.544c2.004,-2.523 2.063,-3.736 -0.013,-6.137c-1.486,-1.7 -3.153,-3.218 -4.626,-4.937c-3.964,-4.814 -9.31,-6.753 -14.526,-8.992c-1.154,-0.506 -2.562,-0.363 -3.918,-0.428c-0.85,0 -1.577,0.428 -1.985,1.343c-0.441,1.012 0.065,1.797 0.674,2.413c1.986,1.973 3.945,3.854 5.963,5.755c1.2,1.22 2.621,2.303 2.841,4.905c-2.491,-2.219 -4.554,-4.049 -6.591,-5.898c-2.102,-1.894 -4.366,-2.679 -6.825,-0.914c-2.07,1.433 -3.666,0.674 -5.242,-1.032c-1.895,-2.031 -3.945,-3.88 -5.917,-5.832c-0.96,-0.915 -2.024,-1.343 -3.107,-0.318c-3.374,3.043 -3.316,10.107 0.168,12.994c2.29,1.862 4.736,3.543 7.604,5.677c-4.885,-0.013 -8.836,1.324 -12.684,2.932c-3.47,1.408 -4.372,5.457 -1.608,7.682c4.508,3.626 9.147,7.655 15.252,3.523Z" style="fill:#fff;"/><path d="M1157.52,76.121c3.561,-0.636 7.227,-0.901 10.737,-1.764c7.37,-1.778 17.983,-13.443 16.725,-22.7c-0.253,-6.975 -1.149,-12.95 -6.073,-17.27c-4.619,-4.023 -8.706,-2.952 -10.886,3.166c-1.031,2.887 -1.862,5.897 -2.829,8.836c-0.694,2.218 -1.926,3.814 -4.255,3.827c-4.055,0.02 -6.637,2.563 -8.817,6.138c-5.456,9.011 -5.742,8.518 1.077,17.886c1.168,1.563 2.511,2.245 4.321,1.881Z" style="fill:#fff;"/><path d="M1083.61,91.627c-2.336,0.914 -2.621,1.693 -1.356,4.009c0.519,0.947 1.213,1.752 1.654,2.699c0.519,0.96 0.74,2.147 0.123,3.107c-0.616,0.948 -1.511,0.318 -2.29,0.098c-3.36,-0.935 -6.513,0.363 -9.699,1.135c-1.992,0.493 -3.01,2.16 -3.107,4.405c-0.065,1.466 -0.253,2.997 0.097,4.386c0.74,3.263 0.156,5.975 -1.622,8.738c-1.778,2.848 -1.077,4.587 1.862,5.839c2.225,0.993 4.6,0.39 6.864,0.785c4.463,0.883 8.246,0.24 9.323,-5.722c1.342,0.915 2.296,1.609 3.328,2.174c4.437,2.588 6.468,1.511 10.763,-4.289c2.361,-3.237 1.777,-5.255 -1.882,-9.024c2.777,-3.899 2.777,-3.899 8.298,-3.419c1.434,0.13 3.107,0.616 4.009,-1.142c0.902,-1.68 -0.052,-3.185 -0.902,-4.554c-4.658,-7.409 -17.75,-12.158 -25.463,-9.225Z" style="fill:#fff;"/><path d="M509.643,1385.13c1.81,-3.989 2.582,-8.297 3.043,-12.903c-0.617,-3.958 -1.291,-8.11 -1.421,-12.366c-0.013,-0.707 -0.441,-1.401 -1.122,-1.635c-0.707,-0.304 -1.402,0.065 -1.635,0.792c-0.993,3.056 -3.374,4.437 -5.742,5.664c-2.699,1.401 -3.38,4.054 -3.153,6.844c0.519,5.456 1.025,11.042 5.08,15.045c0.792,0.791 1.434,1.939 0.565,2.841c-2.427,2.479 -4.01,6.644 -8.344,5.677c-1.907,-0.428 -2.296,0.902 -2.432,2.491c-0.176,1.882 0.285,3.627 1.485,5.054c1.765,2.018 2.128,4.444 2.024,7.13c-0.064,2.556 0,5.073 -0.525,7.603c-0.759,4.1 -0.221,8.077 1.985,11.607c2.368,3.756 4.262,3.976 7.162,0.824c0.727,-0.76 1.058,-2.161 2.128,-2.161c5.405,-0.045 5.255,-4.561 5.405,-8.518c0.285,-5.294 0.285,-10.627 0.259,-15.96c-0.013,-4.651 -0.934,-9.192 -3.99,-12.631c-1.557,-1.752 -1.719,-3.296 -0.772,-5.398Z" style="fill:#fff;"/><path d="M939.621,86.307c2.005,1.628 4.1,3.094 6.15,4.606c1.376,1.012 2.809,1.94 3.458,3.776c1.025,2.77 2.744,2.634 4.827,1.674c1.862,-0.857 3.549,-1.81 4.84,-3.646c1.609,-2.258 3.412,-4.406 5.125,-6.611c2.147,-2.634 3.756,-5.489 4.106,-9.148c0.189,-1.784 0.474,-3.652 2.206,-4.47c0.85,0.162 1.213,0.818 1.402,1.486c1.135,4.892 4.619,6.896 8.375,8.473c2.906,1.18 3.977,0.421 3.899,-3.062c-0.097,-3.504 -0.739,-6.962 -1.648,-10.27c-0.746,-2.608 -2.543,-4.386 -4.736,-5.288c-2.776,-1.103 -5.65,-2.082 -8.563,-2.478c-3.056,-0.363 -5.833,0.727 -7.221,4.327c-0.947,2.414 -2.083,4.652 -4.184,5.975c-3.815,2.511 -7.448,5.346 -12.23,5.203c-1.576,-0.045 -3.276,0.617 -4.729,1.33c-1.894,0.85 -4.574,1.22 -4.717,4.094c-0.116,2.277 2.226,2.88 3.64,4.029Z" style="fill:#fff;"/><path d="M999.372,695.984c-3.646,-0.382 -5.138,-3.646 -7.305,-5.916c-4.587,-4.73 -9.096,-4.224 -12.599,1.531c-2.997,4.917 -3.977,10.412 -3.776,16.232c0,2.51 -0.85,5.06 0.117,7.571c0.279,0.817 1.116,2.225 1.369,2.043c2.569,-2.835 3.821,1.694 5.962,1.33c0.895,-0.136 2.03,0.474 2.867,-0.168c3.406,-2.686 7.824,-3.802 10.043,-8.408c0.98,-2.005 2.206,-4.165 4.944,-3.692c0.739,0.124 1.135,-0.577 1.356,-1.291c0.746,-1.849 -1.324,-9.043 -2.978,-9.232Z" style="fill:#fff;"/><path d="M526.816,235.982c0.473,2.939 1.31,5.917 3.802,7.383c4.333,2.588 5.916,7.071 7.434,11.71c0.441,1.382 0.805,2.867 2.018,3.659c0.74,0.396 1.486,0.947 2.335,0.551c1.013,-0.428 0.837,-1.407 0.837,-2.977c0.299,-2.842 -2.29,-5.379 -2.432,-8.707c-0.046,-1.972 -1.045,-3.419 -2.349,-4.651c-4.003,-3.822 -5.729,-9.089 -6.04,-14.597c-0.285,-5.379 -3.471,-8.927 -5.3,-13.345c-0.506,-1.227 -1.901,-2.148 -3.328,-1.882c-1.72,0.351 -1.577,2.089 -1.668,3.516c-0.13,2.005 -0.272,4.191 0.818,5.865c2.491,4.107 3.133,8.765 3.873,13.475Z" style="fill:#fff;"/><path d="M1081.27,12.945c3.601,1.732 7.26,3.244 10.977,4.84c1.09,0.428 2.206,0.584 2.965,0.811c2.854,-0.162 5.002,-1.298 6.183,-3.601c1.232,-2.433 -0.189,-4.651 -1.467,-6.559c-0.96,-1.421 -2.192,-2.653 -3.373,-3.944c-5.145,-5.774 -7.072,-5.904 -12.923,-0.837c-1.188,0.993 -2.291,2.134 -3.283,3.309c-2.673,3.172 -2.537,4.294 0.921,5.981Z" style="fill:#fff;"/><path d="M712.62,1491.96c-3.484,1.219 -6.526,-0.785 -9.478,-1.81c-5.333,-1.843 -11.529,0.914 -16.342,-3.861c-0.454,-0.493 -1.577,-0.207 -2.381,-0.272c-3.023,-0.175 -4.782,1.369 -5.035,4.463c-0.233,2.667 0.526,3.393 4.276,3.471c3.879,0.033 7.506,0.74 10.49,3.802c0.85,0.947 1.959,1.278 3.153,1.265c4.561,-0.636 9.07,-1.486 13.695,-1.609c1.72,-0.032 2.362,-1.797 2.725,-3.458c0.221,-0.947 -0.298,-2.238 -1.103,-1.991Z" style="fill:#fff;"/><path d="M777.671,126.42c0.442,-0.091 0.935,-0.156 1.402,-0.266c7.616,-1.421 14.311,-5.392 20.961,-9.258c0.363,-0.143 0.584,-0.409 0.818,-0.63c1.219,-1.31 1.174,-2.601 -0.137,-3.756c-1.894,-1.609 -3.899,-1.797 -5.884,-0.11c-3.75,3.205 -8.181,4.574 -12.54,6.228c-1.882,0.675 -3.77,1.401 -5.586,2.173c-1.291,0.604 -2.349,1.486 -2.037,3.309c0.369,1.706 1.492,2.31 3.003,2.31Z" style="fill:#fff;"/><path d="M313.491,1035.34c-1.577,1.135 -1.706,10.224 -0.11,11.295c2.543,1.764 3.438,-1.694 5.112,-2.699c0.279,-0.208 0.584,-0.403 0.869,-0.604c3.529,-2.238 3.153,-6.61 4.652,-9.257c-0.597,-2.336 0.642,-4.405 -1.278,-5.19c-1.544,-0.649 -2.809,0.629 -4.068,1.453c-1.985,1.278 -3.198,3.548 -5.177,5.002Z" style="fill:#fff;"/><path d="M735.573,217.116c1.512,-1.829 3.595,-2.537 5.632,-3.075c2.037,-0.597 2.653,1.758 4.009,2.666c2.582,1.849 7.318,-0.441 7.733,-3.737c-0.052,-0.992 -0.571,-2.244 -1.317,-1.797c-3.276,2.038 -5.015,-1.115 -7.415,-2.27c-1.544,-0.753 -3.516,-2.822 -4.924,-1.071c-1.921,2.427 -4.788,2.978 -6.767,5.203c-1.356,1.531 -2.997,2.842 -1.479,4.892c1.596,2.173 3.172,0.727 4.528,-0.811Z" style="fill:#fff;"/><path d="M1029.58,612.93c-1.797,-0.279 -3.38,0.474 -4.055,2.323c-0.675,1.907 0.461,3.341 1.862,3.912c2.868,1.135 3.834,3.769 4.762,6.513c0.759,2.226 1.609,4.418 2.439,6.566c0.279,0.675 0.792,1.2 1.596,0.96c0.714,-0.266 1.064,-0.915 0.98,-1.674c-0.266,-2.523 -0.539,-5.08 0.188,-7.162c0.286,-5.612 -3.237,-10.646 -7.772,-11.438Z" style="fill:#fff;"/><path d="M309.786,932.982c2.57,0.299 3.925,1.473 4.432,4.153c0.175,0.895 0.46,1.745 0.901,2.504c0.526,0.934 1.356,1.829 2.414,1.2c1.025,-0.597 1.375,-2.031 0.648,-2.809c-2.523,-2.744 -0.862,-4.892 0.493,-7.208c0.507,-0.98 0.915,-1.966 1.246,-2.997c0.629,-2.063 -0.22,-3.218 -2.031,-3.406c-0.804,-0.13 -1.621,0.156 -2.653,0.266c-3.153,-0.785 -5.488,0.473 -7.065,3.977c-1.395,3.016 -1.336,4.009 1.615,4.32Z" style="fill:#fff;"/><path d="M434.939,1412.48c-2.667,0.921 -5.21,2.258 -7.098,4.606c-1.654,2.018 -1.343,3.802 0.915,4.555c1.245,0.408 2.381,0.817 3.503,1.641c3.503,2.556 7.182,0.35 7.318,-4.308c0.078,-2.614 -2.984,-7.058 -4.638,-6.494Z" style="fill:#fff;"/><path d="M380.722,985.941c0.285,0.155 -0,1.732 -0,2.582c-0,1.077 -0.441,2.244 0.902,3.107c1.764,-0.674 2.887,-2.225 3.172,-4.275c0.74,-5.664 1.012,-11.275 -2.978,-16.102c-1.706,0.649 -3.503,2.193 -2.965,4.132c0.973,3.439 -3.237,8.064 1.869,10.556Z" style="fill:#fff;"/><path d="M641.367,194.928c-2.569,-0.395 -4.113,1.175 -4.398,4.464c-0.228,2.965 1.848,5.975 4.366,6.293c2.789,0.396 6.137,-2.147 6.28,-4.762c0.097,-2.31 -3.264,-5.54 -6.248,-5.995Z" style="fill:#fff;"/><path d="M288.15,635.695c0.331,-0.078 0.772,-0.026 0.935,-0.253c2.432,-2.978 5.975,-3.613 8.959,-5.475c2.095,-1.278 3.38,-3.426 3.737,-6.118c0.318,-2.316 -0.915,-3.406 -2.933,-2.855c-1.044,0.234 -1.849,0.928 -2.348,1.843c-1.674,3.043 -4.198,5.067 -6.676,7.162c-1.181,1.006 -2.238,2.206 -2.764,3.782c-0.35,1.032 0.046,1.746 1.09,1.914Z" style="fill:#fff;"/><path d="M713.71,219.153c-0.279,0.805 -0.441,1.719 -0.584,2.284c0.234,2.952 1.201,5.274 2.381,7.493c0.96,1.706 2.303,2.699 4.1,1.486c1.843,-1.246 2.206,-3.251 1.201,-5.223c-1.201,-2.348 -2.602,-4.58 -4.12,-6.689c-1.181,-1.641 -2.316,-1.083 -2.978,0.649Z" style="fill:#fff;"/><path d="M619.225,112.789c1.576,-0.279 3.659,-3.471 3.549,-5.423c-0.098,-2.193 -3.062,-5.236 -5.067,-5.204c-1.706,0.046 -3.893,3.374 -3.705,5.69c0.143,2.037 3.536,5.21 5.223,4.937Z" style="fill:#fff;"/><path d="M705.477,623.453c-1.329,0.078 -4.859,2.933 -4.904,3.945c-0.059,2.666 1.94,4.813 4.431,4.749c2.809,-0.013 4.989,-1.545 4.859,-3.374c-0.117,-2.173 -2.764,-5.378 -4.386,-5.32Z" style="fill:#fff;"/><path d="M712.744,1421.79c-1.752,0.409 -3.614,1.135 -4.795,3.043c-0.506,0.772 -0.441,1.719 0.188,2.458c1.72,2.057 5.865,3.062 8.09,2.005c0.617,-0.273 1.201,-0.584 1.298,-1.414c0.376,-2.232 -2.537,-6.092 -4.781,-6.092Z" style="fill:#fff;"/><path d="M357.704,1020.12c0.824,0.403 1.979,0.409 2.193,-0.363c0.824,-2.855 2.458,-2.855 4.541,-2.18c0.649,0.175 1.246,-0.499 1.44,-1.226c0.266,-0.882 -0.194,-1.401 -0.791,-1.778c-0.96,-0.648 -2.226,-0.525 -3.062,-1.563c-0.902,-1.135 -1.635,-3.14 -3.439,-2.135c-1.524,0.818 -1.369,2.686 -1.453,4.341c-0.013,0.726 -0.188,1.401 -0.292,2.147c-0.24,1.116 -0.24,2.18 0.863,2.757Z" style="fill:#fff;"/><path d="M646.862,1445.76c0.831,-2.16 -0.188,-3.457 -0.947,-4.826c-0.681,-1.226 -1.499,-2.07 -2.764,-1.09c-1.258,0.947 -2.601,2.459 -1.213,3.99c1.609,1.784 2.238,3.659 2.238,6.079c0,0.596 0.584,1.278 0.993,1.784c0.817,0.992 1.849,1.609 3.03,0.609c1.18,-1.012 0.901,-2.238 0.045,-3.237c-0.895,-1.07 -2.063,-1.92 -1.382,-3.309Z" style="fill:#fff;"/><path d="M735.852,1472.34c-2.205,0.266 -5.521,3.562 -5.832,5.917c-0.188,1.466 -0.097,2.913 1.434,3.153c3.075,-0 6.487,-4.146 6.312,-7.286c-0.117,-1.343 -0.726,-1.927 -1.914,-1.784Z" style="fill:#fff;"/><path d="M627.458,468.997c-1.246,-0.785 -2.161,-0.059 -3.108,0.778c-1.232,1.025 -1.343,2.362 -0.772,3.867c0.221,0.694 0.545,1.31 0.707,2.024c0.286,1.213 0.234,2.757 1.921,2.588c1.297,-0.142 1.991,-1.232 2.4,-2.465c0.298,-0.837 0.422,-1.739 0.357,-1.369c0.499,-3.101 -0.052,-4.541 -1.505,-5.423Z" style="fill:#fff;"/><path d="M633.433,658.811c-0.454,-0.442 -1.259,-0.396 -1.642,0.434c-1.057,2.368 2.102,8.33 4.464,8.551c1.797,0.156 2.919,-1.752 1.985,-3.692c-1.083,-2.251 -3.133,-3.626 -4.807,-5.293Z" style="fill:#fff;"/><path d="M645.552,659.154c-1.759,-0.175 -3.218,1.674 -3.218,4.003c-0,2.401 1.31,4.01 3.172,4.211c2.472,0.253 1.843,-2.355 2.193,-3.757c0.058,-2.913 -0.681,-4.333 -2.147,-4.457Z" style="fill:#fff;"/><path d="M823.603,837.887c-1.122,1.843 -0.155,3.439 0.753,4.937c0.727,1.201 1.408,2.732 3.03,1.973c1.226,-0.552 1.356,-1.921 1.421,-3.419c-0.046,-1.655 -0.221,-3.491 -2.083,-4.289c-1.135,-0.415 -2.368,-0.415 -3.121,0.798Z" style="fill:#fff;"/><path d="M345.767,1133.33c0.817,-0.915 1.148,-2.147 1.148,-3.458c-0.104,-0.914 -0.234,-1.829 -1.071,-2.27c-0.895,-0.474 -1.576,0.123 -2.147,0.752c-0.564,0.63 -1.187,1.278 -1.576,2.05c-0.746,1.473 -2.511,3.296 -0.902,4.73c1.706,1.492 3.289,-0.39 4.548,-1.804Z" style="fill:#fff;"/><path d="M701.124,1464.91c1.246,0.636 2.537,1.2 3.562,-0.312c0.616,-0.914 0.649,-2.063 0.298,-3.159c-0.506,-1.622 -1.842,-1.135 -3.672,-1.369c0.098,0 -0.551,-0.013 -1.18,0.065c-1.09,0.143 -1.862,0.837 -2.011,2.037c-0.169,1.278 0.525,2.018 1.628,2.251c0.474,0.091 0.98,0.214 1.375,0.487Z" style="fill:#fff;"/><path d="M711.868,1438.48c0.045,-1.94 -0.87,-3.108 -2.225,-3.205c-1.168,-0.032 -1.83,0.363 -1.986,1.058c-0.486,2.004 -0.11,3.976 0.688,5.838c0.143,0.325 0.843,0.662 1.246,0.539c2.082,-0.513 2.257,-2.375 2.277,-4.23Z" style="fill:#fff;"/><path d="M683.309,628.773c-0.168,1.687 1.356,3.659 2.933,3.691c1.356,-0.116 2.264,-0.999 2.387,-2.653c0.098,-1.752 -1.511,-3.503 -3.107,-3.361c-1.246,0.098 -2.102,0.876 -2.213,2.323Z" style="fill:#fff;"/><path d="M723.792,1482.57c-0.805,-0.143 -1.291,0.486 -1.401,1.167c-0.526,2.459 -1.687,4.509 -3.77,6.754c2.556,0.629 4.276,0.461 5.521,-1.135c1.389,-1.817 0.162,-4.12 0.331,-6.241c0.026,-0.156 -0.435,-0.532 -0.681,-0.545Z" style="fill:#fff;"/><path d="M446.467,1410.24c-1.025,0.156 -1.927,0.642 -2.083,1.92c-0.188,1.577 2.102,3.517 3.88,3.276c1.135,-0.201 1.641,-1.057 1.641,-2.316c-0.064,-1.823 -1.589,-3.153 -3.438,-2.88Z" style="fill:#fff;"/><path d="M307.912,1050.67c-0.189,1.907 1.323,2.588 2.698,2.952c1.687,0.013 2.492,-1.006 2.647,-2.589c0.176,-1.544 -0.661,-2.381 -1.952,-2.413c-1.486,-0.046 -3.238,0.078 -3.393,2.05Z" style="fill:#fff;"/><path d="M622.949,1055.24c0.266,-0.364 0.298,-0.999 0.285,-1.544c-0.285,-2.965 0,-5.664 1.181,-8.486c1.012,-2.556 -0.441,-4.055 -3.108,-3.568c-0.96,0.162 -1.939,0.253 -2.698,1.09c-2.933,3.25 -5.45,6.591 -5.917,11.593c-0.409,4.068 0.493,7.856 1.576,12.417c2.719,-4.061 6.138,-7.37 8.681,-11.502Z" style="fill:#fff;"/><path d="M658.734,1032.3c1.473,2.744 2.381,5.346 1.246,9.258c2.822,-1.084 3.438,-2.868 4.21,-4.366c0.649,-1.09 1.201,-2.466 2.446,-2.466c3.14,-0.09 4.918,-2.744 7.176,-4.431c2.744,-2.05 2.679,-3.516 0.207,-5.832c-1.187,-1.103 -2.543,-1.33 -4.068,-1.466c-3.315,-0.26 -5.981,1.557 -8.738,3.062c-2.699,1.362 -3.945,3.523 -2.479,6.241Z" style="fill:#fff;"/><path d="M670.295,1020.01c1.246,-0.882 2.751,-1.414 2.822,-3.484c0.098,-2.368 -3.581,-5.819 -5.566,-4.872c-2.044,0.993 -3.912,2.589 -5.767,4.055c-0.526,0.428 -0.649,1.226 -0.286,1.991c1.972,3.886 5.3,4.756 8.797,2.31Z" style="fill:#fff;"/><path d="M636.307,977.118c-0.915,-0.519 -1.862,-0.805 -2.77,-0c-1.155,0.992 -2.303,5.443 -1.655,7.065c0.947,2.335 3.075,3.094 4.996,3.937c0.837,0.364 1.784,-0.687 1.472,-1.524c-0.726,-2.083 -0.35,-3.847 0.331,-5.54c0.059,-2.141 -1.064,-3.147 -2.374,-3.938Z" style="fill:#fff;"/><path d="M577.516,1110.49c-0.168,-2.05 -2.095,-4.32 -3.756,-4.255c-2.005,0.064 -2.16,1.848 -2.16,3.49c0.013,2.147 2.024,3.912 4.165,3.769c1.453,-0.182 1.913,-1.408 1.751,-3.004Z" style="fill:#fff;"/><path d="M697.582,842.189c-0.279,-1.467 -1.479,-1.778 -2.66,-1.986c-1.674,0.13 -3.36,0.604 -3.536,2.829c-0.123,1.609 0.935,2.615 2.433,2.744c1.453,0.091 4.049,-2.342 3.763,-3.587Z" style="fill:#fff;"/></g></g></g></svg>