<svg viewBox="0 0 1482 1349" version="1.1" xmlns="http://www.w3.org/2000/svg" xmlns:xlink="http://www.w3.org/1999/xlink" xml:space="preserve" xmlns:serif="http://www.serif.com/" style="fill-rule:evenodd;clip-rule:evenodd;stroke-linejoin:round;stroke-miterlimit:2;"><g><g><g><path d="M673.654,0l0,1348.17c-372.05,-0.221 -673.654,-301.904 -673.654,-674.087c0,-372.142 301.604,-673.871 673.654,-674.088Z" style="fill:#2390cf;fill-rule:nonzero;"/><path d="M1348.18,674.088c0,372.312 -301.775,674.087 -674.087,674.087l-0.434,0l0,-1348.17l0.434,0c372.312,0 674.087,301.817 674.087,674.088Z" style="fill:#227faf;fill-rule:nonzero;"/></g><g><clipPath id="_clip1"><rect x="120.35" y="130.938" width="1227.83" height="1150.93"/></clipPath><g clip-path="url(#_clip1)"><path d="M414.679,392.892c-1.652,-13.7 -1.463,-15.535 5.405,-25.087c3.104,-4.32 5.379,-8.607 7.299,-13.851c3.701,-10.059 12.754,-13.146 21.715,-14.905c2.84,-0.543 5.96,0.242 8.897,0.242c3.055,-0.054 5.857,-1.017 8.434,-2.926c2.781,-2.044 3.195,-6.164 0.489,-8.348c-2.372,-1.91 -5.083,-3.389 -7.455,-5.341c-0.543,-0.474 -0.688,-2.13 -0.382,-3.007c0.215,-0.839 1.194,-1.802 1.969,-2.028c5.336,-1.382 9.919,1.474 14.05,4.169c10.069,6.643 21.407,8.445 32.305,11.726c5.271,1.56 10.65,2.791 16.169,0.893c2.899,-0.947 6.046,-0.947 8.429,1.57c2.522,2.749 4.254,1.124 6.384,-0.527c3.061,-2.307 5.675,-0.419 8.053,1.829c2.56,2.42 3.146,5.594 1.936,8.993c-1.936,5.654 -3.539,11.549 -8.52,15.206c-2.523,1.819 -4.744,4.148 -4.949,7.821c-0.322,6.789 -2.802,12.861 -4.905,19.079c-1.151,3.561 -0.269,6.627 2.184,8.929c3.835,3.566 7.858,6.767 10.892,11.29c1.129,1.641 3.012,3.265 4.803,3.631c9.16,1.964 16.271,7.875 23.495,13.867c1.549,1.329 3.292,2.625 5.137,3.249c7.756,2.641 14.566,6.519 19.8,13.904c3.162,4.432 8.149,6.229 13.377,6.277c5.949,0.119 10.268,-2.264 12.877,-8.907c5.336,-13.254 8.09,-27.276 11.279,-41.24c0.78,-3.566 0.242,-7.729 -0.381,-11.478c-1.582,-8.849 -1.582,-17.6 0.338,-26.341c0.339,-1.63 0.77,-3.351 0.581,-4.943c-2.033,-16.82 7.262,-29.369 13.13,-43.176c0.414,-0.974 1.114,-1.845 1.786,-2.631c1.49,-1.656 3.373,-2.684 5.325,-1.828c1.243,0.527 2.845,2.167 2.899,3.372c0.64,14.324 7.945,26.034 11.968,39.002c1.942,6.245 3.045,12.791 4.449,19.246c1.699,7.73 2.291,8.31 9.848,9.639c9.618,1.657 17.616,9.445 19.692,19.542c1.108,5.411 1.931,10.87 2.706,16.346c0.888,6.1 2.372,11.807 5.933,16.766c4.491,6.299 5.906,13.851 6.53,21.725c1.242,14.76 6.573,25.91 20.155,31.779c8.6,3.754 16.357,10.3 24.344,15.765c1.652,1.119 3.54,2.84 4.029,4.696c3.432,13.259 14.432,22.779 14.679,37.582c0.027,3.061 2.318,4.933 5.32,3.916c3.787,-1.286 6.67,1.334 9.924,2.372c3.781,1.205 6.492,3.98 6.573,8.063c0.258,14.324 6.982,23.135 17.347,30.697c6.019,4.379 10.074,12.022 15.077,18.213c2.426,2.975 4.631,2.819 7.697,0.436c2.609,-2.114 5.067,-0.554 5.045,2.41c-0.059,2.737 -0.059,5.583 -0.64,8.175c-2.275,10.419 -1.501,20.94 -1.258,31.483c0.053,2.184 -0.243,5.121 0.887,6.439c8.795,10.505 2.84,24.194 6.476,35.774c0.716,2.356 0,5.6 -0.774,8.123c-3.69,11.543 -3.147,24.178 -7.703,35.452c-0.635,1.501 -1.011,3.292 -0.828,4.862c1.936,14.868 -5.454,26.658 -10.419,39.207c-1.361,3.399 -3.921,6.455 -6.476,8.875c-6.342,5.949 -9.973,13.7 -13.082,21.93c-2.323,6.153 -4.556,12.317 -6.492,18.568c-2.905,9.461 -5.513,18.89 -11.032,27.05c-2.673,3.986 -3.55,9.026 -4.083,14.093c-1.011,9.321 -2.447,18.621 -3.281,27.959c-0.629,7.03 -4.168,11 -9.687,13.281c-4.212,1.678 -8.58,3.222 -13.13,2.694c-8.574,-0.978 -15.491,3.05 -21.844,8.703c-6.18,5.514 -12.29,11.194 -18.067,17.24c-2.657,2.722 -4.927,3.399 -7.832,1.328c-3.722,-2.711 -8.149,-4.868 -10.946,-8.514c-3.335,-4.443 -7.568,-4.433 -11.817,-5.745c-5.869,-1.802 -10.753,-0.909 -14.959,4.023c-7.127,8.295 -14.824,7.778 -22.823,1.775c-4.631,-3.485 -9.865,-5.405 -15.292,-6.277c-7.509,-1.178 -14.205,-4.851 -21.166,-7.751c-13.173,-5.449 -19.622,-16.454 -20.531,-31.504c-0.446,-7.428 -2.318,-13.867 -5.508,-20.359c-3.727,-7.546 -7.751,-12.409 -16.389,-9.375c-3.373,1.188 -5.514,-2.017 -4.443,-6.164c1.656,-6.439 3.674,-12.808 1.016,-19.391c-0.484,-1.184 -2.092,-2.12 -3.335,-2.512c-0.58,-0.199 -1.995,0.812 -2.35,1.651c-0.958,2.507 -1.436,5.234 -2.394,7.794c-2.678,6.993 -6.928,9.553 -14.297,8.795c-1.925,-0.189 -3.523,-3.196 -2.539,-5.03c1.033,-1.791 2.184,-3.62 3.593,-5.094c2.238,-2.442 3.97,-5.126 4.137,-8.579c0.328,-9.176 3.432,-17.158 7.584,-24.883c0.936,-1.656 0.586,-4.2 0.699,-6.374c0,-0.365 -0.581,-0.935 -0.984,-1.14c-0.43,-0.199 -1.312,-0.226 -1.393,-0.054c-5.325,12.582 -17.293,17.944 -24.614,28.272c-1.845,2.603 -3.534,5.352 -4.879,8.224c-1.328,2.802 -0.785,7.251 -4.798,7.423c-4.851,0.194 -10.908,-5.772 -11.102,-11.317c-0.134,-4.486 -0.107,-8.918 -1.898,-12.947c-2.598,-5.96 -5.272,-12.033 -10.07,-16.298c-3.582,-3.12 -6.928,-6.261 -8.041,-11.506c-1.011,-4.798 -4.454,-7.197 -7.993,-9.3c-2.614,-1.57 -5.4,-2.684 -8.127,-4.136c-10.124,-5.406 -22.075,-5.583 -31.236,-14.077c-2.942,-2.764 -7.605,-2.226 -11.629,-1.828c-9.381,0.909 -18.837,1.651 -28.174,2.979c-3.879,0.571 -7.886,1.888 -11.274,3.97c-11.194,6.939 -23.313,9.23 -35.851,9.419c-7.127,0.08 -13.694,1.161 -19.848,5.653c-3.727,2.657 -8.052,4.351 -12.102,6.368c-7.805,3.927 -14.97,8.305 -18.643,17.858c-2.577,6.713 -8.09,9.489 -14.599,9.505c-10.446,0.07 -20.854,-0.016 -31.316,0.07c-5.949,0.037 -11.914,0.392 -17.863,0.511c-5.19,0.134 -9.854,1.522 -13.184,6.374c-1.839,2.63 -4.066,5.04 -7.008,5.911c-6.014,1.651 -10.704,5.46 -15.233,10.042c-5.013,5.137 -11.032,7.1 -17.955,5.352c-3.835,-0.936 -7.837,-1.124 -11.807,-1.678c-12.79,-1.791 -21.074,-11.737 -29.691,-20.832c-2.996,-3.104 -2.673,-9.838 0.436,-13.824c3.577,-4.658 7.944,-8.725 7.74,-15.475c-0.328,-11.995 3.534,-24.286 -1.979,-36.006c-2.131,-4.379 -3.481,-9.187 -5.514,-13.62c-4.174,-8.972 -7.267,-18.282 -6.788,-28.545c0.242,-5.896 -2.076,-10.731 -4.201,-15.701c-4.556,-10.462 -9.483,-20.725 -11.521,-32.338c-0.84,-4.89 -3.061,-9.295 -6.299,-12.995c-1.711,-1.996 -3.249,-4.175 -4.798,-6.369c-3.308,-4.76 -5.175,-9.515 -0.059,-14.464c1.016,-0.99 1.221,-2.937 1.753,-4.335c3.873,-1.119 4.513,4.093 7.466,4.335c0.775,0.027 2.211,-0.866 2.211,-1.318c-0,-1.56 -0.274,-3.222 -0.909,-4.685c-3.088,-7.552 -6.202,-15.109 -9.499,-22.537c-3.335,-7.412 -4.11,-14.749 -0.242,-22.188c2.899,-5.487 3.453,-11.463 3.2,-17.627c-0.194,-5.013 -0.489,-10.096 1.27,-14.77c1.49,-4.024 2.953,-9.08 8.417,-4.497c1.49,1.232 2.803,-0.043 3.97,-1.113c9.935,-9.204 22.086,-14.733 31.671,-24.544c3.249,-3.362 7.697,-5.799 12.248,-5.379c12.495,1.232 23.161,-5.556 34.338,-9.58c5.234,-1.882 10.258,-3.62 15.691,-4.701c6.288,-1.232 12.441,-3.647 18.654,-5.718c5.405,-1.839 9.563,-5.879 13.022,-10.693c4.647,-6.422 8.848,-13.253 13.264,-19.934c2.222,-3.416 2.184,-7.31 1.506,-11.14c-1.452,-8.106 1.888,-13.866 6.869,-19.03c5.191,-5.368 7.321,-5.202 11.672,1.452c0.866,1.329 1.458,2.926 2.367,4.185c1.027,1.339 2.523,2.033 3.927,0.909c0.72,-0.608 1.452,-1.888 1.398,-2.765c-0.134,-2.765 -0.828,-5.465 -1.017,-8.17c-0.473,-5.637 1.125,-9.118 6.348,-8.241c0.973,0.178 1.99,0.258 2.953,0.42c3.593,0.462 6.261,-1.84 6.793,-5.083c1.651,-10.07 8.267,-16.411 13.695,-23.339c8.149,-10.5 19.122,-16.949 31.149,-20.15c5.422,-1.452 10.704,1.749 14.733,6.369c2.017,2.426 3.808,5.094 5.744,7.606c2.765,3.539 5.922,6.046 10.371,5.137c5.448,-1.108 10.639,1.086 16.126,2.243Z" style="fill:#fff;"/><path d="M807.907,296.75c-1.603,2.119 -3.018,4.394 -4.75,6.304c-2.711,2.936 -6.244,4.184 -9.633,2.49c-11.048,-5.653 -22.957,-6.724 -34.678,-8.73c-5.126,-0.909 -9.445,-3.243 -12.925,-7.412c-8.095,-9.72 -18.272,-17.153 -24.506,-28.782c-1.211,-2.249 -3.362,-4.352 -5.492,-5.379c-6.815,-3.303 -13.797,-6.111 -20.757,-9.053c-2.9,-1.264 -6.105,-1.382 -8.676,0.285c-7.499,4.879 -16.175,8.332 -16.783,20.773c-0.36,6.896 -6.078,11.07 -12.855,10.893c-5.96,-0.146 -11.893,-0.748 -17.82,-1.56c-5.966,-0.893 -8.725,-3.954 -9.392,-10.839c-0.635,-6.6 -0.247,-13.286 -0.828,-19.88c-1.151,-13.2 -1.453,-26.346 -0.49,-39.61c0.549,-7.638 -0.226,-15.454 -1.108,-23.135c-1.258,-11.043 -1.301,-22.058 -0.721,-33.091c0.286,-5.76 3.147,-7.751 8.074,-6.072c3.297,1.14 6.493,2.603 9.79,3.921c11.677,4.663 23.296,9.445 35.016,13.877c10.989,4.212 19.558,12.915 29.191,19.531c2.426,1.689 4.75,4.54 5.81,7.423c4.276,11.495 13.425,15.69 22.736,19.73c3.238,1.452 6.761,1.979 9.881,3.614c7.294,3.905 7.584,10.758 0.769,16.239c-0.769,0.662 -1.785,0.936 -2.56,1.614c-2.931,2.442 -3.496,5.599 -1.657,8.498c0.527,0.883 1.071,1.872 1.845,2.577c7.251,6.724 14.287,13.635 18.1,23.662c0.543,1.452 1.738,3.265 2.948,3.62c7.993,2.259 12.414,10.123 18.998,14.555c1.689,1.14 4.12,1.721 4.943,3.372c3.862,7.929 11.183,8.375 17.713,10.71l-0.183,-0.145Z" style="fill:#fff;"/><path d="M1204.48,1072.95c-4.153,3.308 -9.537,1.926 -14.152,4.029c-7.348,3.356 -13.211,8.197 -14.308,17.428c-1.076,8.955 -5.185,16.749 -7.036,25.323c-3.835,17.702 -16.669,25.222 -29.406,32.876c-2.652,1.587 -5.755,1.463 -8.767,0.785c-5.358,-1.247 -10.678,-2.598 -15.535,-5.637c-5.244,-3.275 -10.515,-6.164 -16.76,-6.164c-1.888,0 -3.927,-0.882 -5.718,-1.732c-3.862,-1.899 -5.858,-6.654 -4.201,-10.951c4.502,-11.576 7.267,-24.356 17.385,-32.187c0.382,-0.296 0.774,-0.732 1.016,-1.189c6.283,-10.86 13.399,-20.548 25.706,-23.151c10.838,-9.644 21.849,-19.17 32.499,-29.067c3.916,-3.631 5.756,-8.972 6.837,-14.496c1.194,-6.127 3.523,-11.511 8.116,-15.427c3.696,-3.141 5.928,-7.332 6.928,-12.415c0.597,-2.667 1.399,-5.341 2.41,-7.804c3.593,-8.623 7.283,-9.408 13.334,-3.023c1.071,1.178 2.324,2.237 3.045,3.604c2.657,4.97 5.863,5.335 9.924,2.237c1.172,-0.893 2.765,-1.285 4.217,-1.533c3.545,-0.624 7.353,2.276 7.6,6.154c0.716,10.515 1.108,20.87 -5.949,29.734c-4.943,6.207 -8.579,13.662 -13.56,19.73c-5.029,6.073 -6.783,11.979 -3.351,19.514c0.409,0.786 -0.124,2.104 -0.274,3.362Z" style="fill:#fff;"/><path d="M1203.35,830.985c5.249,4.422 10.897,8.456 17.207,11.436c7.304,3.507 10.736,11.279 13.113,19.272c1.743,5.788 2.765,11.818 4.266,17.659c0.634,2.63 1.355,5.406 2.764,7.509c1.464,2.125 3.868,4.131 6.348,3.346c2.42,-0.705 0.919,-3.722 1.409,-5.691c0.193,-0.882 1.113,-1.996 1.829,-2.114c0.828,-0.134 2.006,0.516 2.673,1.221c2.291,2.426 2.706,5.842 3.141,9.08c1.657,12.371 9.408,17.492 19.176,20.262c3.012,0.866 5.868,0.774 8.633,-0.952c2.614,-1.598 5.121,-3.48 7.826,-4.787c6.455,-2.97 11.733,0.25 12.12,7.77c-2.559,6.441 -4.097,10.245 -6.852,17.317c-0.976,2.505 -3.079,6.788 -3.902,9.322c-1.011,3.023 -2.072,4.835 -3.044,5.147c-9.233,2.963 -11.236,2.587 -11.774,12.672c-0.291,5.084 -1.168,9.892 -3.104,14.378c-5.045,11.452 -11.037,22.317 -18.697,31.843c-4.997,6.181 -15.389,4.26 -19.165,-3.05c-0.64,-1.242 -0.667,-3.308 -0.247,-4.717c0.774,-2.598 2.162,-4.932 3.254,-7.434c5.04,-11.93 3.916,-16.631 -5.589,-23.586c-3.711,-2.759 -7.6,-5.298 -11.032,-8.466c-4.604,-4.26 -5.239,-10.72 -0.349,-14.147c10.424,-7.24 10.37,-19.514 13.468,-30.261c1.458,-4.879 -0.172,-9.795 -2.356,-14.34c-4.604,-9.752 -8.762,-19.773 -14.867,-28.621c-7.369,-10.57 -13.13,-22.188 -17.347,-34.721c-0.532,-1.598 -0.833,-3.184 1.098,-5.347Z" style="fill:#fff;"/><path d="M760.594,1013.58c0.775,13.867 -5.33,24.167 -13.329,33.559c-3.453,3.986 -7.035,7.869 -10.123,12.156c-2.13,3.023 -3.453,7.117 -7.6,6.928c-5.567,-0.242 -10.994,-1.043 -14.528,-6.734c-5.675,-9.144 -11.14,-18.283 -13.512,-29.363c-1.592,-7.52 -3.975,-14.814 -5.96,-22.269c-0.715,-2.587 -1.49,-5.287 -1.732,-7.982c-0.823,-9.731 3.48,-13.706 11.554,-10.801c1.845,0.688 3.889,1.42 5.384,2.775c8.424,7.628 17.535,6.181 26.782,2.561c3.302,-1.275 6.395,-3.077 9.687,-4.201c5.567,-1.899 10.075,0.688 11.441,7.003c1.167,5.336 1.296,10.919 1.936,16.368Z" style="fill:#fff;"/><path d="M789.635,218.799c-9.295,-1.243 -18.256,-4.024 -25.754,-10.844c-1.253,-1.097 -1.549,-2.867 -0.78,-4.47c0.489,-0.871 1.312,-1.99 2.087,-2.119c2.905,-0.527 5.858,-0.662 8.811,-0.974c3.442,-0.435 7.417,0.151 10.182,-1.57c5.271,-3.373 9.768,-7.499 15.34,-0.624c0.753,0.936 4.158,0.473 5.492,-0.662c5.756,-4.932 13.022,-8.375 15.152,-17.39c0.334,-1.463 1.447,-2.861 2.561,-3.846c2.038,-1.872 4.604,-2.157 7.035,-1.285c2.507,0.855 4.158,3.017 4.4,5.986c0.64,7.536 -1.253,14.83 -5.906,19.827c-10.564,11.387 -23.011,18.961 -38.62,17.971Z" style="fill:#fff;"/><path d="M1044.52,505.38c1.301,0.258 2.904,0.14 4.157,0.802c5.815,3.211 11.425,6.911 15.341,12.726c4.911,7.224 10.478,13.264 17.874,17.046c0.888,0.473 1.748,1.07 2.539,1.721c6.476,5.094 9.827,11.021 7.154,12.484c-4.701,2.518 -8.515,-1.006 -12.307,-3.227c-13.254,-7.805 -25.512,-17.008 -33.984,-31.262c-1.355,-2.302 -2.84,-4.62 -2.517,-7.52c0.097,-0.909 1.033,-1.683 1.743,-2.77Z" style="fill:#fff;"/><path d="M1293.15,463.479c-2.711,-0.608 -5.137,-0.963 -7.402,-1.84c-2.42,-0.882 -4.211,-2.738 -4.663,-5.712c-0.431,-2.964 0.581,-5.444 2.576,-7.246c3.518,-3.216 7.848,-4.297 12.291,-4.109c4.701,0.161 8.773,5.814 8.413,11.371c-0.081,2.372 -1.302,4.335 -3.029,5.147c-2.668,1.184 -5.578,1.7 -8.186,2.389Z" style="fill:#fff;"/><path d="M440.825,319.11c1.635,-0.269 3.088,-0.544 4.594,-0.635c2.087,-0.178 3.873,0.694 4.852,2.791c1.344,2.846 0.328,5.406 -1.41,7.456c-2.13,2.506 -4.894,3.711 -7.977,3.238c-3.888,-0.581 -7.767,-1.329 -11.629,-2.184c-2.178,-0.517 -3.238,-2.356 -3.006,-4.809c0.188,-2.291 1.409,-4.013 3.195,-5.153c3.776,-2.302 7.745,0.054 11.381,-0.704Z" style="fill:#fff;"/><path d="M893.017,228.314c-0.656,-0.301 -3.087,-0.489 -4.045,-1.979c-4.308,-6.503 -8.283,-13.335 -12.113,-20.22c-0.495,-0.855 0.441,-3.023 1.221,-4.227c0.323,-0.56 2.028,-0.689 2.705,-0.189c7.111,4.917 12.926,11.49 17.423,19.348c1.56,2.711 -0.952,7.063 -5.191,7.267Z" style="fill:#fff;"/><path d="M554.858,868.74c-1.108,-0.205 -4.024,-0.474 -6.719,-1.501c-1.086,-0.339 -2.237,-2.302 -2.275,-3.636c-0.054,-1.313 0.871,-3.115 1.829,-3.97c2.722,-2.442 6.019,-3.566 9.488,-3.507c4.524,0.097 8.73,1.291 11.059,6.154c1.356,2.899 -3.631,6.083 -10.128,6.449c-0.49,0.038 -0.958,0.011 -3.254,0.011Z" style="fill:#fff;"/><path d="M832.22,159.862c4.889,1.722 8.724,5.272 12.398,8.967c2.641,2.646 4.298,6.019 3.969,10.258c-0.199,2.302 -1.113,4.324 -3.141,5.126c-2.151,0.855 -3.943,-0.269 -4.905,-2.426c-1.888,-4.476 -3.48,-9.107 -5.422,-13.593c-1.071,-2.463 -2.507,-4.739 -3.771,-7.127l0.872,-1.205Z" style="fill:#fff;"/><path d="M911.59,244.289c0.474,-0.064 1.017,-0.403 1.356,-0.215c6.293,3.12 12.775,5.949 18.261,10.758c3.964,3.539 6.234,8.579 4.255,9.176c-3.432,0.979 -5.218,-2.248 -7.59,-3.916c-5.438,-3.829 -10.871,-7.681 -16.201,-11.666c-0.602,-0.458 -0.715,-1.921 -0.845,-2.953c-0.064,-0.302 0.522,-0.786 0.764,-1.184Z" style="fill:#fff;"/><path d="M966.729,256.677c-0.769,0.516 -1.673,1.603 -2.313,1.436c-6.341,-1.705 -11.957,-5.045 -16.352,-10.532c-0.559,-0.678 -0.785,-2.178 -0.505,-3.05c0.581,-1.855 2.345,-2.071 3.593,-1.301c5.174,3.103 10.763,5.599 14.991,10.37c0.565,0.651 0.457,2.023 0.586,3.077Z" style="fill:#fff;"/><path d="M1481.87,373.673c-0.732,0.651 -1.404,1.791 -2.135,1.845c-5.67,0.43 -10.683,-2.119 -15.438,-5.083c-1.016,-0.635 -2.092,-2.776 -1.904,-3.97c0.506,-2.7 2.905,-3.033 4.712,-2.248c4.642,1.947 9.085,4.308 13.56,6.723c0.678,0.345 0.828,1.797 1.205,2.733Z" style="fill:#fff;"/><path d="M999.245,280.053c-1.399,0.953 -2.184,1.819 -2.97,1.819c-0.914,0.08 -1.979,-0.436 -2.657,-1.098c-4.604,-4.556 -7.283,-10.354 -8.321,-16.997c-0.151,-0.785 0.721,-1.872 1.296,-2.657c0.189,-0.231 1.157,-0.221 1.399,0.107c4.744,5.551 8.262,12.038 11.253,18.826Z" style="fill:#fff;"/><path d="M1098.61,401.751c-0.135,2.506 -1.259,4.324 -3.282,4.851c-1.312,0.329 -3.141,0.242 -4.077,-0.527c-3.329,-2.969 -4.029,-7.25 -3.636,-11.71c0.059,-0.623 1.458,-1.656 2.093,-1.57c5.077,0.742 8.767,4.663 8.902,8.956Z" style="fill:#fff;"/><path d="M831.348,161.073c-9.16,-1.372 -15.889,-7.918 -23.118,-13.458c-0.479,-0.404 -0.791,-2.179 -0.414,-2.765c0.387,-0.651 1.931,-1.205 2.463,-0.855c7.466,5.002 15.879,8.482 21.941,15.9l-0.872,1.178Z" style="fill:#fff;"/><path d="M1116.88,1160.89c0.527,5.325 -3.922,10.526 -7.993,9.649c-0.667,-0.15 -1.657,-1.285 -1.808,-2.13c-0.769,-4.093 0.829,-7.385 3.351,-10.166c1.125,-1.232 2.722,-1.63 3.965,-0.57c1.129,0.914 1.839,2.361 2.485,3.217Z" style="fill:#fff;"/><path d="M1001.96,297.578c4.255,0.15 7.59,2.071 9.489,6.492c0.333,0.823 0.285,2.275 -0.199,3.034c-0.425,0.785 -1.646,1.571 -2.415,1.479c-4.26,-0.463 -7.305,-3.061 -9.053,-7.412c-0.194,-0.463 -0.253,-1.286 0,-1.598c0.581,-0.747 1.404,-1.307 2.178,-1.995Z" style="fill:#fff;"/><path d="M753.215,964.215c4.953,2.13 8.095,9.149 6.46,14.7c-0.21,0.597 -1.985,1.291 -2.383,0.936c-4.207,-3.48 -6.105,-8.428 -6.39,-14.066c0.005,-0.462 1.495,-1.043 2.313,-1.57Z" style="fill:#fff;"/><path d="M924.091,233.257c-0.968,1.442 -1.469,2.819 -2.05,2.846c-5.814,0.489 -12.392,-5.11 -12.581,-10.634c0,-0.64 1.383,-1.964 1.888,-1.802c5.417,1.355 8.956,5.68 12.743,9.59Z" style="fill:#fff;"/><path d="M544.605,370.698c2.803,-0.376 5.573,2.631 5.46,6.197c-0.027,2.372 -1.243,4.233 -3.426,4.54c-2.754,0.349 -4.556,-1.533 -5.282,-4.4c-0.727,-2.711 1.065,-6.003 3.248,-6.337Z" style="fill:#fff;"/><path d="M808.09,296.889c-2.523,-4.706 -5.137,-9.38 -7.509,-14.162c-0.242,-0.5 0.581,-2.168 1.269,-2.614c0.667,-0.474 1.98,-0.484 2.701,-0.065c4.12,2.722 5.244,7.821 6.874,12.221c0.817,2.275 -1.791,3.496 -3.523,4.481l0.188,0.139Z" style="fill:#fff;"/><path d="M1116.58,396.533c0.963,0.64 2.276,1.028 2.534,1.791c0.376,1.474 0.57,3.281 0.188,4.728c-0.543,2.034 -1.517,3.981 -2.662,5.567c-0.264,0.302 -2.631,-0.946 -3.653,-1.963c-2.21,-2.334 -1.888,-4.911 0.189,-7.181c1.081,-1.124 2.35,-1.979 3.404,-2.942Z" style="fill:#fff;"/><path d="M1399.9,1074.46c-0.059,2.265 -0.689,4.228 -2.926,4.814c-2.394,0.662 -4.497,-2.56 -4.406,-6.723c0.113,-2.566 1.415,-3.997 3.69,-3.819c3.142,0.253 3.583,2.878 3.642,5.728Z" style="fill:#fff;"/><path d="M1107.13,422.906c-0.516,0.624 -1.156,1.775 -1.872,1.909c-3.308,0.57 -6.46,-3.862 -5.492,-7.74c0.135,-0.742 1.657,-1.635 2.324,-1.49c3.12,0.834 5.137,3.959 5.04,7.321Z" style="fill:#fff;"/><path d="M682.224,964.145c0,0.99 -0.032,3.614 -2.367,3.889c-2.452,0.312 -2.85,-2.318 -2.85,-4.47c-0,-2.238 0.424,-4.621 3.087,-4.282c1.517,0.199 2.044,2.017 2.13,4.863Z" style="fill:#fff;"/><path d="M846.882,317.189c3.572,0.269 6.111,2.491 7.913,5.718c0.215,0.425 -0.635,2.318 -1.028,2.334c-3.727,0.366 -6.293,-1.855 -7.804,-5.421c-0.242,-0.576 0.58,-1.711 0.919,-2.631Z" style="fill:#fff;"/><path d="M1423.03,527.159c-0.43,0.759 -0.774,2.077 -1.339,2.211c-1.952,0.516 -3.943,0.043 -4.949,-2.076c-0.823,-1.716 0.097,-3.099 1.792,-3.26c2.027,-0.167 3.625,0.92 4.496,3.125Z" style="fill:#fff;"/><path d="M597.028,431.184c-0.656,-0.716 -1.813,-1.382 -1.861,-2.114c-0.194,-2.684 1.452,-3.916 3.571,-4.077c1.689,-0.124 3.104,1.054 2.797,2.899c-0.376,2.533 -2.345,3.238 -4.507,3.292Z" style="fill:#fff;"/><path d="M735.453,134.151c-0.962,1.56 -2.318,2.184 -3.824,1.56c-1.614,-0.651 -2.125,-2.227 -0.973,-3.7c1.07,-1.318 2.614,-1.318 4.061,-0.56c1.081,0.592 1.269,1.619 0.736,2.7Z" style="fill:#fff;"/><path d="M794.352,143.973c-1.517,-0.457 -2.533,-1.517 -2.135,-3.276c0.43,-1.715 1.791,-2.42 3.249,-1.748c0.72,0.328 1.543,1.463 1.597,2.265c0.14,1.915 -1.113,2.657 -2.711,2.759Z" style="fill:#fff;"/><path d="M1301.81,477.276c0.441,0.704 1.409,1.64 1.253,2.103c-0.656,2.221 -2.216,3.023 -4.239,2.318c-0.349,-0.102 -0.828,-0.785 -0.774,-1.124c0.22,-2.512 1.689,-3.378 3.76,-3.297Z" style="fill:#fff;"/></g></g></g></g></svg>